<svg xmlns="http://www.w3.org/2000/svg" version="1.1" xmlns:xlink="http://www.w3.org/1999/xlink" xmlns:svgjs="http://svgjs.dev/svgjs" viewBox="0 0 1422 800"><defs><filter id="uuunion-blur" x="-100%" y="-100%" width="400%" height="400%" color-interpolation-filters="sRGB">
        <feGaussianBlur in="SourceGraphic" stdDeviation="22 22" result="blur"></feGaussianBlur>
        <feDropShadow stdDeviation="0" in="blur" dx="0" dy="0" flood-color="#d9d9d9" flood-opacity="0" x="0%" y="0%" width="100%" height="100%"></feDropShadow>
      </filter><filter id="uuunion-blur2" x="-100%" y="-100%" width="400%" height="400%" color-interpolation-filters="sRGB">
        <feGaussianBlur in="SourceGraphic" stdDeviation="22 22" result="blur"></feGaussianBlur>
        <feDropShadow stdDeviation="0" in="blur" dx="-0" dy="-0" flood-color="#d9d9d9" flood-opacity="0" x="0%" y="0%" width="100%" height="100%"></feDropShadow>
      </filter><linearGradient gradientTransform="rotate(119, 0.5, 0.5)" x1="50%" y1="0%" x2="50%" y2="100%" id="uuunion-grad"><stop stop-color="#adadad" offset="10%"></stop><stop stop-color="#d9d9d9" offset="90%"></stop></linearGradient><linearGradient gradientTransform="rotate(139, 0.5, 0.5)" x1="50%" y1="0%" x2="50%" y2="100%" id="uuunion-grad2"><stop stop-color="#adadad" offset="25%"></stop><stop stop-color="#d9d9d9" offset="100%"></stop></linearGradient><linearGradient gradientTransform="rotate(199, 0.5, 0.5)" x1="50%" y1="0%" x2="50%" y2="100%" id="uuunion-grad3"><stop stop-color="#adadad" offset="0%"></stop><stop stop-color="#d9d9d9" offset="75%"></stop></linearGradient></defs><path d="M-143.72 -89.06Q-130.37 -87.33 -117.02 -85.19 -103.68 -82.76 -90.33 -80.17 -76.98 -77.57 -63.63 -75.11 -50.29 -72.92 -36.94 -71.14 -23.59 -69.85 -10.24 -69.13 3.09 -69.03 16.44 -69.54 29.79 -70.65 43.14 -72.28 56.48 -74.35 69.83 -76.73 83.18 -79.3 96.53 -81.91 109.87 -84.41 123.22 -86.66 136.57 -88.54 149.92 -89.93 163.26 -90.76 176.61 -90.99 189.96 -90.59 203.3 -89.6 216.65 -88.07 230 -86.08 243.35 -83.75 256.69 -81.2 270.04 -78.59 283.39 -76.06 296.74 -73.74 310.08 -71.79 323.43 -70.29 336.78 -69.34 350.13 -69 363.47 -69.27 376.82 -70.15 390.17 -71.58 403.52 -73.49 416.86 -75.76 430.21 -78.28 443.56 -80.89 456.91 -83.45 470.25 -85.81 483.6 -87.85 496.95 -89.45 510.3 -90.51 523.64 -90.97 536.99 -90.82 550.34 -90.06 563.69 -88.73 577.03 -86.91 590.38 -84.7 603.73 -82.22 617.08 -79.62 630.42 -77.03 643.77 -74.62 657.12 -72.51 670.47 -70.82 683.81 -69.65 697.16 -69.06 710.51 -69.09 723.86 -69.73 737.2 -70.96 750.55 -72.69 763.9 -74.83 777.25 -77.27 790.59 -79.86 803.94 -82.46 817.29 -84.92 830.64 -87.1 843.98 -88.88 857.33 -90.16 870.68 -90.86 884.03 -90.96 897.37 -90.43 910.72 -89.32 924.07 -87.68 937.42 -85.61 950.76 -83.22 964.11 -80.65 977.46 -78.04 990.81 -75.54 1004.15 -73.29 1017.5 -71.43 1030.85 -70.04 1044.2 -69.22 1057.54 -69 1070.89 -69.41 1084.24 -70.41 1097.59 -71.95 1110.93 -73.95 1124.28 -76.28 1137.63 -78.83 1150.98 -81.44 1164.32 -83.97 1177.67 -86.28 1191.02 -88.23 1204.37 -89.72 1217.71 -90.66 1231.06 -90.99 1244.41 -90.71 1257.76 -89.82 1271.1 -88.38 1284.45 -86.47 1297.8 -84.19 1311.15 -81.67 1324.49 -79.06 1337.84 -76.5 1351.19 -74.14 1364.54 -72.11 1377.88 -70.52 1391.23 -69.47 1404.58 -69.01 1417.93 -69.17 1431.27 -69.95 1444.62 -71.28 1457.97 -73.11 1471.32 -75.33 1484.66 -77.81 1498.01 -80.42 1511.36 -83 1524.71 -85.41 1538.05 -87.51 1551.4 -89.19 1564.75 -90.36 1564.76 -75.18 1564.7 -60 1564.59 -44.83 1564.44 -29.65 1564.26 -14.47 1564.07 0.69 1563.9 15.87 1563.76 31.05 1563.66 46.22 1563.63 61.4 1563.66 76.58 1563.74 91.75 1563.88 106.93 1564.05 122.11 1564.24 137.28 1564.42 152.46 1564.58 167.64 1564.69 182.81 1564.75 197.99 1564.75 213.17 1564.69 228.34 1564.57 243.52 1564.41 258.7 1564.23 273.87 1564.04 289.05 1563.87 304.23 1563.74 319.4 1563.65 334.58 1563.63 349.76 1563.67 364.93 1563.76 380.11 1563.91 395.28 1564.08 410.46 1564.27 425.64 1564.45 440.81 1564.6 455.99 1564.71 471.17 1564.76 486.34 1564.75 501.52 1564.67 516.7 1564.55 531.87 1564.39 547.05 1564.2 562.23 1564.02 577.4 1563.85 592.58 1563.72 607.76 1563.65 622.93 1563.63 638.11 1563.68 653.29 1563.78 668.46 1563.93 683.64 1564.11 698.82 1564.3 713.99 1564.47 729.17 1564.62 744.35 1564.72 759.52 1564.76 774.7 1564.74 789.88 1564.66 805.05 1564.53 820.23 1564.36 835.41 1564.17 850.58 1563.99 865.76 1563.83 880.94 1550.51 880.83 1537.19 880.68 1523.87 880.49 1510.55 880.27 1497.23 880.03 1483.9 879.8 1470.58 879.57 1457.26 879.37 1443.94 879.2 1430.62 879.08 1417.3 879.01 1403.98 879 1390.66 879.04 1377.34 879.13 1364.02 879.28 1350.7 879.46 1337.38 879.68 1324.06 879.91 1310.74 880.15 1297.42 880.38 1284.1 880.58 1270.78 880.76 1257.46 880.89 1244.14 880.97 1230.82 880.99 1217.5 880.96 1204.18 880.88 1190.86 880.74 1177.54 880.57 1164.21 880.36 1150.89 880.13 1137.57 879.89 1124.25 879.66 1110.93 879.45 1097.61 879.26 1084.29 879.12 1070.97 879.03 1057.65 879 1044.33 879.02 1031.01 879.09 1017.69 879.22 1004.37 879.39 991.05 879.59 977.73 879.82 964.41 880.05 951.09 880.29 937.77 880.51 924.45 880.69 911.13 880.84 897.81 880.94 884.49 880.99 871.17 880.98 857.85 880.92 844.53 880.8 831.21 880.64 817.88 880.44 804.56 880.22 791.24 879.98 777.92 879.75 764.6 879.53 751.28 879.33 737.96 879.17 724.64 879.06 711.32 879 698 879 684.68 879.05 671.36 879.16 658.04 879.31 644.72 879.51 631.4 879.73 618.08 879.96 604.76 880.2 591.44 880.42 578.12 880.62 564.8 880.79 551.48 880.91 538.16 880.98 524.84 880.99 511.52 880.95 498.2 880.85 484.88 880.71 471.56 880.52 458.24 880.31 444.91 880.08 431.59 879.84 418.27 879.61 404.95 879.4 391.63 879.23 378.31 879.1 364.99 879.02 351.67 879 338.35 879.03 325.03 879.11 311.71 879.25 298.39 879.43 285.07 879.64 271.75 879.87 258.43 880.1 245.11 880.34 231.79 880.55 218.47 880.73 205.15 880.87 191.83 880.96 178.51 880.99 165.19 880.97 151.87 880.9 138.55 880.77 125.23 880.6 111.91 880.4 98.59 880.17 85.27 879.93 71.95 879.7 58.63 879.48 45.31 879.29 31.99 879.15 18.66 879.04 5.34 879 -7.97 879.01 -21.29 879.07 -34.61 879.19 -47.93 879.35 -61.25 879.55 -74.57 879.77 -87.89 880.01 -101.21 880.25 -114.53 880.47 -127.85 880.66 -141.17 880.82 -141.61 865.66 -142.12 850.51 -142.64 835.36 -143.1 820.2 -143.47 805.05 -143.69 789.89 -143.75 774.74 -143.63 759.58 -143.36 744.43 -142.96 729.27 -142.47 714.12 -141.95 698.97 -141.45 683.81 -141.04 668.66 -140.75 653.5 -140.62 638.35 -140.67 623.19 -140.88 608.04 -141.23 592.88 -141.69 577.73 -142.2 562.57 -142.71 547.42 -143.17 532.27 -143.51 517.11 -143.71 501.96 -143.74 486.8 -143.6 471.65 -143.31 456.49 -142.89 441.34 -142.39 426.18 -141.87 411.03 -141.39 395.88 -140.99 380.72 -140.72 365.57 -140.62 350.41 -140.69 335.26 -140.92 320.1 -141.29 304.95 -141.76 289.79 -142.28 274.64 -142.79 259.48 -143.23 244.33 -143.55 229.18 -143.73 214.02 -143.73 198.87 -143.57 183.71 -143.25 168.56 -142.82 153.4 -142.31 138.25 -141.79 123.09 -141.32 107.94 -140.94 92.79 -140.7 77.63 -140.62 62.48 -140.71 47.32 -140.97 32.17 -141.36 17.01 -141.84 1.86 -142.36 -13.29 -142.86 -28.44 -143.28 -43.59 -143.59 -58.75 -143.74 -73.9 -143.72 -89.06" fill="url(#uuunion-grad)"></path><path d="M-143.73 -89.06Q-143.75 -73.9 -143.6 -58.75 -143.29 -43.6 -142.87 -28.44 -142.37 -13.29 -141.85 1.86 -141.37 17.01 -140.98 32.17 -140.72 47.32 -140.63 62.48 -140.71 77.63 -140.95 92.78 -141.33 107.94 -141.8 123.09 -142.32 138.25 -142.83 153.4 -143.26 168.56 -143.58 183.71 -143.74 198.87 -143.74 214.02 -143.56 229.18 -143.24 244.33 -142.8 259.48 -142.29 274.64 -141.77 289.79 -141.3 304.95 -140.93 320.1 -140.7 335.26 -140.63 350.41 -140.73 365.57 -141 380.72 -141.4 395.87 -132.51 396.37 -123.63 396.96 -114.75 397.63 -105.87 398.36 -96.99 399.12 -88.1 399.91 -79.22 400.7 -70.34 401.48 -61.46 402.21 -52.58 402.89 -43.7 403.5 -34.81 404.02 -25.93 404.44 -17.05 404.75 -0.26 404.98 2.69 404.99 13.86 401.77 25.02 398.36 36.18 394.76 47.33 390.98 58.47 387.06 69.61 383.02 80.74 378.9 91.87 374.73 102.99 370.56 114.1 366.42 125.21 362.36 136.31 358.42 147.4 354.62 158.49 351 169.57 347.58 180.65 344.38 191.72 341.4 202.78 338.63 213.84 336.08 224.9 333.71 235.95 331.49 247 329.41 258.04 327.41 269.09 325.46 280.12 323.5 291.16 321.49 302.19 319.39 313.22 317.15 324.25 314.74 335.28 312.13 346.31 309.3 357.34 306.22 368.37 302.9 379.39 299.33 390.42 295.55 401.45 291.56 412.49 287.4 423.52 283.1 434.56 278.72 445.59 274.3 456.63 269.9 467.68 265.55 478.72 261.32 489.77 257.24 500.83 253.36 511.88 249.71 522.94 246.31 534.01 243.17 545.07 240.3 556.15 237.7 567.22 235.34 578.3 233.19 589.38 231.23 600.47 229.4 611.56 227.66 622.65 225.95 633.75 224.22 644.85 222.42 655.95 220.48 667.06 218.37 678.17 216.03 689.28 213.44 700.39 210.57 711.51 207.41 722.62 203.96 733.74 200.23 744.86 196.23 755.98 192.01 767.11 187.6 778.23 183.04 789.35 178.4 800.47 173.74 811.6 169.1 822.72 164.57 833.84 160.18 844.96 155.99 856.08 152.05 867.2 148.39 878.32 145.04 889.44 142 900.55 139.27 911.66 136.85 922.77 134.7 933.88 132.8 944.99 131.1 956.1 129.53 967.2 128.05 978.3 126.59 989.4 125.08 1000.49 123.46 1011.59 121.66 1022.68 119.64 1033.77 117.35 1044.86 114.76 1055.95 111.83 1067.03 108.56 1078.12 104.96 1089.2 101.03 1100.28 96.81 1111.37 92.33 1122.45 87.66 1133.53 82.84 1144.61 77.94 1155.69 73.04 1166.77 68.19 1177.85 63.48 1188.93 58.96 1200.01 54.69 1211.09 50.71 1222.17 47.07 1233.26 43.79 1244.34 40.87 1255.43 38.31 1266.52 36.1 1277.61 34.19 1288.7 32.54 1299.8 31.1 1310.9 29.81 1322 28.58 1333.1 27.35 1344.2 26.05 1355.31 24.59 1366.42 22.92 1377.53 20.98 1388.64 18.71 1399.76 16.08 1410.88 13.06 1422 9.66 1422.14 -7.62 1422.27 -24.91 1422.35 -42.2 1422.38 -59.49 1422.36 -76.77 1422.28 -94.06 1422.15 -111.35 1422.01 -128.64 1409.69 -128.25 1397.38 -128.43 1385.07 -129.17 1372.75 -130.43 1360.44 -132.15 1348.13 -134.24 1335.82 -136.61 1323.5 -139.15 1311.19 -141.73 1298.88 -144.22 1286.56 -146.51 1274.25 -148.48 1261.94 -150.05 1249.63 -151.14 1237.31 -151.68 1225 -151.67 1212.69 -151.09 1200.37 -149.98 1188.06 -148.38 1175.75 -146.39 1163.43 -144.08 1151.12 -141.58 1138.81 -139 1126.5 -136.47 1114.18 -134.11 1101.87 -132.04 1089.56 -130.34 1077.24 -129.11 1064.93 -128.41 1052.62 -128.26 1040.3 -128.68 1027.99 -129.64 1015.68 -131.1 1003.37 -132.99 991.05 -135.22 978.74 -137.67 966.43 -140.24 954.11 -142.8 941.8 -145.22 929.49 -147.39 917.18 -149.2 904.86 -150.57 892.55 -151.43 880.24 -151.74 867.92 -151.49 855.61 -150.68 843.3 -149.36 830.98 -147.58 818.67 -145.44 806.36 -143.04 794.05 -140.49 781.73 -137.92 769.42 -135.45 757.11 -133.2 744.79 -131.27 732.48 -129.76 720.17 -128.75 707.85 -128.28 695.54 -128.37 683.23 -129.02 670.92 -130.2 658.6 -131.85 646.29 -133.9 633.98 -136.23 621.66 -138.75 609.35 -141.33 597.04 -143.84 584.72 -146.17 572.41 -148.2 560.1 -149.84 547.79 -151 535.47 -151.63 523.16 -151.71 510.85 -151.21 498.53 -150.18 486.22 -148.66 473.91 -146.72 461.6 -144.45 449.28 -141.98 436.97 -139.4 424.66 -136.86 412.34 -134.46 400.03 -132.34 387.72 -130.58 375.4 -129.27 363.09 -128.48 350.78 -128.25 338.47 -128.58 326.15 -129.46 313.84 -130.85 301.53 -132.67 289.21 -134.85 276.9 -137.28 264.59 -139.84 252.27 -142.41 239.96 -144.86 227.65 -147.07 215.34 -148.95 203.02 -150.39 190.71 -151.34 178.4 -151.73 166.08 -151.57 153.77 -150.84 141.46 -149.59 129.15 -147.88 116.83 -145.8 104.52 -143.43 92.21 -140.89 79.89 -138.32 67.58 -135.82 55.27 -133.53 42.95 -131.54 30.64 -129.97 18.33 -128.87 6.02 -128.31 -6.29 -128.32 -18.6 -128.88 -30.91 -129.99 -43.23 -131.57 -55.54 -133.56 -67.85 -135.86 -80.17 -138.36 -92.48 -140.93 -104.79 -143.46 -117.1 -145.83 -129.42 -147.91 -146.67 -142.53 -149.11 -119.99 -146.49 -104.53 -143.73 -89.06" fill="url(#uuunion-grad2)" filter="url(#uuunion-blur)"></path><path d="M1421.71 325.79Q1430.59 325.48 1439.47 325.02 1448.35 324.44 1457.23 323.75 1466.11 322.96 1474.98 322.1 1483.86 321.19 1492.74 320.24 1501.62 319.29 1510.5 318.36 1519.38 317.47 1528.26 316.64 1537.14 315.89 1546.02 315.25 1554.9 314.73 1563.78 314.34 1563.66 332.05 1563.63 349.76 1563.68 367.46 1563.81 385.17 1563.99 402.87 1564.21 420.58 1564.42 438.29 1564.6 455.99 1564.72 473.7 1564.76 491.4 1564.72 509.11 1564.6 526.82 1564.42 544.52 1564.2 562.23 1563.99 579.93 1563.8 597.64 1563.68 615.35 1563.63 633.05 1563.67 650.76 1563.78 668.46 1563.96 686.17 1564.17 703.88 1564.39 721.58 1564.58 739.29 1564.71 756.99 1564.76 774.7 1564.73 792.41 1564.62 810.11 1564.45 827.82 1564.24 845.52 1564.02 863.23 1563.83 880.94 1551.61 880.84 1539.39 880.71 1527.17 880.54 1514.95 880.34 1502.74 880.13 1490.52 879.91 1478.3 879.7 1466.08 879.5 1453.86 879.32 1441.65 879.18 1429.43 879.07 1417.21 879.01 1404.99 879 1392.77 879.03 1380.55 879.11 1368.34 879.23 1356.12 879.38 1343.9 879.57 1331.68 879.78 1319.46 879.99 1307.25 880.21 1295.03 880.42 1282.81 880.6 1270.59 880.76 1258.37 880.88 1246.15 880.96 1233.94 880.99 1221.72 880.98 1209.5 880.92 1197.28 880.81 1185.06 880.67 1172.84 880.5 1160.63 880.3 1148.41 880.08 1136.19 879.86 1123.97 879.65 1111.75 879.46 1099.54 879.29 1087.32 879.15 1075.1 879.06 1062.88 879 1050.66 879 1038.44 879.04 1026.23 879.13 1014.01 879.26 1001.79 879.42 989.57 879.61 977.35 879.82 965.14 880.04 952.92 880.26 940.7 880.46 928.48 880.64 916.26 880.79 904.04 880.9 891.83 880.97 879.61 880.99 867.39 880.97 855.17 880.9 842.95 880.79 830.73 880.63 818.52 880.45 806.3 880.25 794.08 880.03 781.86 879.82 769.64 879.61 757.43 879.42 745.21 879.25 732.99 879.13 720.77 879.04 708.55 879 696.33 879 684.12 879.06 671.9 879.16 659.68 879.29 647.46 879.46 635.24 879.66 623.03 879.87 610.81 880.09 598.59 880.3 586.37 880.5 574.15 880.68 561.93 880.82 549.72 880.92 537.5 880.98 525.28 880.99 513.06 880.96 500.84 880.88 488.63 880.75 476.41 880.6 464.19 880.41 451.97 880.2 439.75 879.98 427.53 879.77 415.32 879.56 403.1 879.38 390.88 879.22 378.66 879.1 366.44 879.03 354.22 879 342.01 879.01 329.79 879.08 317.57 879.18 305.35 879.33 293.13 879.51 280.92 879.71 268.7 879.92 256.48 880.14 244.26 880.35 232.04 880.54 219.82 880.71 207.61 880.85 195.39 880.94 183.17 880.99 170.95 880.99 158.73 880.94 146.52 880.85 134.3 880.72 122.08 880.56 109.86 880.36 97.64 880.15 85.42 879.93 73.21 879.72 60.99 879.52 48.77 879.34 36.55 879.19 24.33 879.08 5.88 874.07 -0.64 859.25 -0.94 849.37 -1.25 839.5 -1.54 829.62 -1.81 819.75 -1.88 804.93 -1.21 800 11.21 793.82 23.67 787.64 36.16 781.43 48.67 775.19 61.21 768.92 73.77 762.6 86.36 756.25 98.96 749.86 111.58 743.45 124.22 737.02 136.87 730.58 149.52 724.16 162.19 717.76 174.85 711.4 187.51 705.1 200.17 698.86 212.82 692.69 225.46 686.59 238.08 680.57 250.69 674.61 263.29 668.7 275.87 662.83 288.42 656.98 300.96 651.12 313.48 645.24 325.98 639.3 338.46 633.29 350.92 627.18 363.36 620.97 375.79 614.64 388.21 608.19 400.61 601.63 413.01 594.95 425.4 588.19 437.78 581.36 450.17 574.49 462.55 567.61 474.94 560.75 487.34 553.95 499.74 547.25 512.15 540.66 524.57 534.22 537 527.94 549.45 521.82 561.9 515.88 574.38 510.1 586.86 504.47 599.36 498.95 611.87 493.52 624.4 488.14 636.93 482.75 649.47 477.33 662.03 471.81 674.58 466.17 687.15 460.36 699.72 454.36 712.28 448.14 724.85 441.7 737.42 435.04 749.99 428.17 762.55 421.12 775.1 413.92 787.65 406.61 800.19 399.25 809.91 397.16 819.64 395.1 829.36 393.11 839.08 391.22 848.79 389.43 858.51 387.77 868.23 386.25 877.95 384.87 887.66 383.65 897.38 382.59 907.09 381.67 916.81 380.9 926.52 380.25 936.23 379.71 945.94 379.26 955.66 378.87 965.37 378.52 975.08 378.18 984.79 377.83 994.5 377.44 1004.21 376.98 1013.92 376.42 1023.63 375.75 1033.34 374.95 1043.04 374 1052.75 372.89 1062.46 371.63 1072.17 370.2 1081.87 368.61 1091.58 366.87 1101.29 365 1111 363.01 1120.7 360.93 1130.41 358.78 1140.11 356.58 1149.82 354.37 1159.53 352.17 1169.23 350.01 1178.94 347.92 1188.65 345.93 1198.36 344.06 1208.06 342.32 1217.77 340.74 1227.48 339.32 1237.18 338.07 1246.89 337 1256.6 336.08 1266.31 335.33 1276.02 334.72 1285.73 334.24 1295.44 333.85 1305.15 333.55 1314.86 333.29 1324.57 333.05 1334.28 332.8 1343.99 332.51 1353.7 332.15 1363.42 331.69 1373.13 331.11 1382.85 330.38 1392.56 329.5 1402.28 328.44 1411.99 327.21 1421.71 325.79" fill="url(#uuunion-grad3)" filter="url(#uuunion-blur2)"></path></svg>