<svg id="eh5jktWFMBL1" xmlns="http://www.w3.org/2000/svg" xmlns:xlink="http://www.w3.org/1999/xlink" viewBox="0 0 1422 800" shape-rendering="geometricPrecision" text-rendering="geometricPrecision" project-id="1a12f220ecfd4684af56eb68dbb1dcb4" export-id="6ee3ceebe41247e0bf786d7a634fa168" cached="false"><defs><linearGradient id="eh5jktWFMBL2-fill" x1="0.937305" y1="0.742405" x2="0.062685" y2="0.257595" spreadMethod="pad" gradientUnits="objectBoundingBox" gradientTransform="translate(0 0)"><stop id="eh5jktWFMBL2-fill-0" offset="10%" stop-color="#adadad"/><stop id="eh5jktWFMBL2-fill-1" offset="90%" stop-color="#d9d9d9"/></linearGradient><filter id="eh5jktWFMBL3-filter" x="-150%" width="400%" y="-150%" height="400%"><feGaussianBlur id="eh5jktWFMBL3-filter-drop-shadow-0-blur" in="SourceAlpha" stdDeviation="0,0"/><feOffset id="eh5jktWFMBL3-filter-drop-shadow-0-offset" dx="0" dy="0" result="tmp"/><feFlood id="eh5jktWFMBL3-filter-drop-shadow-0-flood" flood-color="#000"/><feComposite id="eh5jktWFMBL3-filter-drop-shadow-0-composite" operator="in" in2="tmp"/><feMerge id="eh5jktWFMBL3-filter-drop-shadow-0-merge" result="result"><feMergeNode id="eh5jktWFMBL3-filter-drop-shadow-0-merge-node-1"/><feMergeNode id="eh5jktWFMBL3-filter-drop-shadow-0-merge-node-2" in="SourceGraphic"/></feMerge><feGaussianBlur id="eh5jktWFMBL3-filter-blur-0" stdDeviation="22,22" result="result"/></filter><linearGradient id="eh5jktWFMBL3-fill" x1="0.828025" y1="0.877355" x2="0.171966" y2="0.122645" spreadMethod="pad" gradientUnits="objectBoundingBox" gradientTransform="translate(0 0)"><stop id="eh5jktWFMBL3-fill-0" offset="25%" stop-color="#adadad"/><stop id="eh5jktWFMBL3-fill-1" offset="100%" stop-color="#d9d9d9"/></linearGradient><filter id="eh5jktWFMBL4-filter" x="-150%" width="400%" y="-150%" height="400%"><feGaussianBlur id="eh5jktWFMBL4-filter-drop-shadow-0-blur" in="SourceAlpha" stdDeviation="0,0"/><feOffset id="eh5jktWFMBL4-filter-drop-shadow-0-offset" dx="0" dy="0" result="tmp"/><feFlood id="eh5jktWFMBL4-filter-drop-shadow-0-flood" flood-color="#000"/><feComposite id="eh5jktWFMBL4-filter-drop-shadow-0-composite" operator="in" in2="tmp"/><feMerge id="eh5jktWFMBL4-filter-drop-shadow-0-merge" result="result"><feMergeNode id="eh5jktWFMBL4-filter-drop-shadow-0-merge-node-1"/><feMergeNode id="eh5jktWFMBL4-filter-drop-shadow-0-merge-node-2" in="SourceGraphic"/></feMerge><feGaussianBlur id="eh5jktWFMBL4-filter-blur-0" stdDeviation="22,22" result="result"/></filter><linearGradient id="eh5jktWFMBL4-fill" x1="0.337216" y1="0.972756" x2="0.662784" y2="0.027237" spreadMethod="pad" gradientUnits="objectBoundingBox" gradientTransform="translate(0 0)"><stop id="eh5jktWFMBL4-fill-0" offset="0%" stop-color="#adadad"/><stop id="eh5jktWFMBL4-fill-1" offset="75%" stop-color="#d9d9d9"/></linearGradient><linearGradient id="eh5jktWFMBL5-fill" x1="0.5" y1="0" x2="0.5" y2="1" spreadMethod="pad" gradientUnits="objectBoundingBox" gradientTransform="translate(0 0)"><stop id="eh5jktWFMBL5-fill-0" offset="0%" stop-color="rgba(255, 255, 255, 0)"/><stop id="eh5jktWFMBL5-fill-1" offset="100%" stop-color="#010022"/></linearGradient></defs><path id="eh5jktWFMBL2" d="M -143.7 -89.1 q 13.3 1.7 26.7 3.9 q 13.3 2.4 26.7 5 q 13.3 2.6 26.7 5.1 q 13.3 2.2 26.7 4 q 13.3 1.3 26.7 2 q 13.3 0.1 26.7 -0.4 q 13.3 -1.1 26.7 -2.7 q 13.3 -2.1 26.7 -4.5 q 13.3 -2.6 26.7 -5.2 q 13.3 -2.5 26.7 -4.8 q 13.3 -1.9 26.7 -3.3 q 13.3 -0.8 26.7 -1.1 q 13.3 0.4 26.7 1.4 q 13.3 1.5 26.7 3.5 q 13.3 2.3 26.7 4.9 q 13.3 2.6 26.7 5.1 q 13.3 2.3 26.7 4.3 q 13.3 1.5 26.7 2.5 q 13.3 0.3 26.7 0.1 q 13.3 -0.9 26.7 -2.3 q 13.3 -1.9 26.7 -4.2 q 13.3 -2.5 26.7 -5.1 q 13.3 -2.6 26.7 -4.9 q 13.3 -2 26.7 -3.6 q 13.3 -1.1 26.7 -1.5 q 13.3 0.1 26.7 0.9 q 13.3 1.3 26.7 3.1 q 13.3 2.2 26.7 4.7 q 13.3 2.6 26.7 5.2 q 13.3 2.4 26.7 4.5 q 13.3 1.7 26.7 2.9 q 13.3 0.6 26.7 0.6 q 13.3 -0.6 26.7 -1.9 q 13.3 -1.7 26.7 -3.9 q 13.3 -2.4 26.7 -5 q 13.3 -2.6 26.7 -5.1 q 13.3 -2.2 26.7 -4 q 13.3 -1.3 26.7 -2 q 13.3 -0.1 26.7 0.4 q 13.3 1.1 26.7 2.8 q 13.3 2.1 26.7 4.5 q 13.3 2.6 26.7 5.2 q 13.3 2.5 26.7 4.8 q 13.3 1.9 26.7 3.3 q 13.3 0.8 26.7 1 q 13.3 -0.4 26.7 -1.4 q 13.3 -1.5 26.7 -3.5 q 13.3 -2.3 26.7 -4.9 q 13.3 -2.6 26.7 -5.1 q 13.3 -2.3 26.7 -4.3 q 13.3 -1.5 26.7 -2.4 q 13.3 -0.3 26.7 -0.1 q 13.3 0.9 26.7 2.3 q 13.3 1.9 26.7 4.2 q 13.3 2.5 26.7 5.1 q 13.3 2.6 26.7 4.9 q 13.3 2 26.7 3.6 q 13.3 1.1 26.7 1.5 q 13.3 -0.2 26.7 -0.9 q 13.3 -1.3 26.7 -3.2 q 13.3 -2.2 26.7 -4.7 q 13.3 -2.6 26.7 -5.2 q 13.3 -2.4 26.7 -4.5 q 13.3 -1.7 26.7 -2.9 q 0 15.2 -0.1 30.4 q -0.1 15.2 -0.3 30.4 q -0.2 15.2 -0.4 30.3 q -0.2 15.2 -0.3 30.4 q -0.1 15.2 -0.1 30.4 q 0 15.2 0.1 30.4 q 0.1 15.2 0.3 30.4 q 0.2 15.2 0.4 30.4 q 0.2 15.2 0.3 30.4 q 0.1 15.2 0.1 30.4 q -0.1 15.2 -0.2 30.4 q -0.2 15.2 -0.3 30.4 q -0.2 15.2 -0.4 30.4 q -0.1 15.2 -0.2 30.4 q 0 15.2 0 30.4 q 0.1 15.2 0.2 30.4 q 0.2 15.2 0.4 30.4 q 0.2 15.2 0.3 30.4 q 0.1 15.2 0.2 30.4 q 0 15.2 -0.1 30.4 q -0.1 15.2 -0.3 30.4 q -0.2 15.2 -0.4 30.4 q -0.2 15.2 -0.3 30.4 q -0.1 15.2 -0.1 30.4 q 0.1 15.2 0.1 30.4 q 0.1 15.2 0.3 30.4 q 0.2 15.2 0.4 30.4 q 0.1 15.2 0.3 30.4 q 0 15.2 0 30.4 q -0.1 15.2 -0.2 30.4 q -0.2 15.2 -0.4 30.4 q -0.2 15.2 -0.3 30.4 q -13.3 -0.1 -26.6 -0.3 q -13.3 -0.2 -26.6 -0.4 q -13.3 -0.2 -26.6 -0.5 q -13.3 -0.2 -26.6 -0.4 q -13.3 -0.2 -26.6 -0.3 q -13.3 -0.1 -26.6 -0.1 q -13.3 0 -26.6 0.1 q -13.3 0.1 -26.6 0.3 q -13.3 0.2 -26.6 0.5 q -13.3 0.2 -26.6 0.5 q -13.3 0.2 -26.6 0.4 q -13.3 0.1 -26.6 0.2 q -13.3 0 -26.6 0 q -13.3 -0.1 -26.6 -0.2 q -13.3 -0.2 -26.6 -0.4 q -13.3 -0.2 -26.6 -0.5 q -13.3 -0.2 -26.6 -0.4 q -13.3 -0.2 -26.6 -0.3 q -13.3 -0.1 -26.6 -0.1 q -13.3 0 -26.6 0.1 q -13.3 0.1 -26.6 0.3 q -13.3 0.2 -26.6 0.4 t -26.6 0.5 q -13.3 0.2 -26.6 0.4 q -13.3 0.1 -26.6 0.3 q -13.3 0.1 -26.6 0 q -13.3 -0.1 -26.6 -0.2 q -13.3 -0.2 -26.6 -0.4 q -13.3 -0.2 -26.6 -0.5 q -13.3 -0.2 -26.6 -0.5 q -13.3 -0.2 -26.6 -0.4 q -13.3 -0.1 -26.6 -0.2 q -13.3 0 -26.6 0.1 q -13.3 0.1 -26.6 0.3 q -13.3 0.2 -26.6 0.4 q -13.3 0.2 -26.6 0.5 q -13.3 0.2 -26.6 0.4 q -13.3 0.2 -26.6 0.3 q -13.3 0.1 -26.6 0.1 q -13.3 0 -26.6 -0.1 q -13.3 -0.1 -26.6 -0.3 q -13.3 -0.2 -26.6 -0.4 q -13.3 -0.2 -26.6 -0.5 q -13.3 -0.2 -26.6 -0.4 q -13.3 -0.1 -26.6 -0.2 q -13.3 0 -26.6 0 q -13.3 0.1 -26.6 0.2 q -13.3 0.2 -26.6 0.4 q -13.3 0.2 -26.6 0.5 q -13.3 0.2 -26.6 0.5 q -13.3 0.2 -26.6 0.3 q -13.3 0.1 -26.6 0.1 q -13.3 0 -26.6 -0.1 q -13.3 -0.1 -26.6 -0.3 q -13.3 -0.2 -26.6 -0.4 q -13.3 -0.2 -26.6 -0.5 q -13.3 -0.2 -26.6 -0.4 q -13.3 -0.1 -26.6 -0.3 q -13.3 0 -26.6 0 q -13.3 0.1 -26.6 0.2 q -13.3 0.2 -26.6 0.4 q -13.3 0.2 -26.6 0.5 t -26.6 0.5 q -13.3 0.2 -26.6 0.3 q -0.4 -15.2 -0.9 -30.3 q -0.5 -15.2 -1 -30.3 q -0.4 -15.2 -0.6 -30.3 q -0.1 -15.2 0.1 -30.3 q 0.3 -15.2 0.7 -30.3 q 0.5 -15.2 1 -30.3 q 0.5 -15.2 0.9 -30.3 q 0.3 -15.2 0.4 -30.3 q -0.1 -15.2 -0.3 -30.3 q -0.3 -15.2 -0.8 -30.3 q -0.5 -15.2 -1 -30.3 q -0.5 -15.2 -0.8 -30.3 q -0.2 -15.2 -0.2 -30.3 q 0.1 -15.2 0.4 -30.3 q 0.4 -15.2 0.9 -30.3 q 0.5 -15.2 1 -30.3 q 0.4 -15.2 0.7 -30.3 q 0.1 -15.2 0 -30.3 q -0.2 -15.2 -0.6 -30.3 q -0.5 -15.2 -1 -30.3 q -0.5 -15.2 -0.9 -30.3 q -0.3 -15.2 -0.5 -30.3 q 0 -15.2 0.2 -30.3 q 0.3 -15.2 0.8 -30.3 q 0.5 -15.2 1 -30.3 q 0.5 -15.2 0.8 -30.3 q 0.2 -15.2 0.3 -30.3 q -0.1 -15.2 -0.3 -30.3 q -0.4 -15.2 -0.9 -30.3 q -0.5 -15.2 -1 -30.3 q -0.4 -15.2 -0.7 -30.3 q -0.1 -15.2 -0.1 -30.3" fill="url(#eh5jktWFMBL2-fill)"/><path id="eh5jktWFMBL3" d="M -143.7 -89.1 q 0 15.2 0.1 30.3 q 0.3 15.2 0.7 30.3 q 0.5 15.2 1 30.3 q 0.5 15.2 0.9 30.3 q 0.3 15.2 0.3 30.3 q -0.1 15.2 -0.3 30.3 q -0.4 15.2 -0.8 30.3 q -0.5 15.2 -1 30.3 q -0.4 15.2 -0.8 30.3 q -0.2 15.2 -0.2 30.3 q 0.2 15.2 0.5 30.3 q 0.4 15.2 0.9 30.3 q 0.5 15.2 1 30.3 q 0.4 15.2 0.6 30.3 q 0.1 15.2 0 30.3 q -0.3 15.2 -0.7 30.3 q 8.9 0.5 17.8 1.1 q 8.9 0.7 17.8 1.4 q 8.9 0.8 17.8 1.6 q 8.9 0.8 17.8 1.6 q 8.9 0.7 17.8 1.4 q 8.9 0.6 17.8 1.1 q 8.9 0.4 17.8 0.7 q 16.8 0.2 19.7 0.2 q 11.2 -3.2 22.3 -6.6 q 11.2 -3.6 22.3 -7.4 q 11.1 -3.9 22.3 -8 q 11.1 -4.1 22.3 -8.3 q 11.1 -4.2 22.2 -8.3 q 11.1 -4.1 22.2 -8 q 11.1 -3.8 22.2 -7.4 q 11.1 -3.4 22.2 -6.6 q 11.1 -3 22.1 -5.8 q 11.1 -2.5 22.1 -4.9 q 11.1 -2.2 22.1 -4.3 q 11 -2 22.1 -4 q 11 -2 22.1 -4 q 11 -2.1 22.1 -4.3 q 11 -2.4 22.1 -5 q 11 -2.8 22.1 -5.9 q 11 -3.3 22.1 -6.9 q 11 -3.8 22.1 -7.8 q 11 -4.2 22.1 -8.5 q 11 -4.4 22.1 -8.8 q 11 -4.4 22.1 -8.8 q 11 -4.2 22.1 -8.3 q 11.1 -3.9 22.1 -7.5 q 11.1 -3.4 22.1 -6.5 q 11.1 -2.9 22.1 -5.5 q 11.1 -2.4 22.1 -4.5 q 11.1 -2 22.2 -3.8 q 11.1 -1.7 22.2 -3.5 q 11.1 -1.7 22.2 -3.5 q 11.1 -1.9 22.2 -4 q 11.1 -2.3 22.2 -4.9 q 11.1 -2.9 22.2 -6 q 11.1 -3.5 22.2 -7.2 q 11.1 -4 22.2 -8.2 q 11.1 -4.4 22.3 -9 q 11.1 -4.6 22.2 -9.3 q 11.1 -4.6 22.3 -9.2 q 11.1 -4.4 22.2 -8.6 q 11.1 -3.9 22.2 -7.6 q 11.1 -3.4 22.2 -6.4 q 11.1 -2.7 22.2 -5.2 q 11.1 -2.1 22.2 -4 q 11.1 -1.7 22.2 -3.3 q 11.1 -1.5 22.2 -2.9 q 11.1 -1.5 22.2 -3.1 q 11.1 -1.8 22.2 -3.8 q 11.1 -2.3 22.2 -4.9 q 11.1 -2.9 22.2 -6.2 q 11.1 -3.6 22.2 -7.5 q 11.1 -4.2 22.2 -8.7 q 11.1 -4.7 22.2 -9.5 q 11.1 -4.9 22.2 -9.8 q 11.1 -4.8 22.2 -9.6 q 11.1 -4.5 22.2 -8.8 q 11.1 -4 22.2 -7.6 q 11.1 -3.3 22.2 -6.2 q 11.1 -2.6 22.2 -4.8 q 11.1 -1.9 22.2 -3.6 q 11.1 -1.4 22.2 -2.7 q 11.1 -1.2 22.2 -2.5 q 11.1 -1.3 22.2 -2.8 q 11.1 -1.7 22.2 -3.6 q 11.1 -2.3 22.2 -4.9 q 11.1 -3 22.2 -6.4 q 0.1 -17.3 0.3 -34.6 q 0.1 -17.3 0.1 -34.6 q 0 -17.3 -0.1 -34.6 q -0.1 -17.3 -0.3 -34.6 q -12.3 0.4 -24.6 0.2 q -12.3 -0.7 -24.6 -2 q -12.3 -1.7 -24.6 -3.8 q -12.3 -2.4 -24.6 -4.9 q -12.3 -2.6 -24.6 -5.1 q -12.3 -2.3 -24.6 -4.3 q -12.3 -1.6 -24.6 -2.7 q -12.3 -0.5 -24.6 -0.5 q -12.3 0.6 -24.6 1.7 q -12.3 1.6 -24.6 3.6 q -12.3 2.3 -24.6 4.8 q -12.3 2.6 -24.6 5.1 q -12.3 2.4 -24.6 4.4 q -12.3 1.7 -24.6 2.9 q -12.3 0.7 -24.6 0.8 q -12.3 -0.4 -24.6 -1.4 q -12.3 -1.5 -24.6 -3.4 q -12.3 -2.2 -24.6 -4.7 q -12.3 -2.6 -24.6 -5.1 q -12.3 -2.4 -24.6 -4.6 q -12.3 -1.8 -24.6 -3.2 q -12.3 -0.9 -24.6 -1.2 q -12.3 0.3 -24.6 1.1 q -12.3 1.3 -24.6 3.1 q -12.3 2.1 -24.6 4.5 q -12.3 2.5 -24.6 5.1 q -12.3 2.5 -24.6 4.7 q -12.3 1.9 -24.6 3.4 q -12.3 1 -24.6 1.5 q -12.3 -0.1 -24.6 -0.7 q -12.3 -1.2 -24.6 -2.8 q -12.3 -2 -24.6 -4.4 q -12.3 -2.5 -24.6 -5.1 q -12.3 -2.5 -24.6 -4.8 q -12.3 -2 -24.6 -3.7 q -12.3 -1.2 -24.6 -1.8 q -12.3 -0.1 -24.6 0.4 q -12.3 1 -24.6 2.5 q -12.3 1.9 -24.6 4.2 q -12.3 2.5 -24.6 5 q -12.3 2.5 -24.6 4.9 q -12.3 2.1 -24.6 3.9 q -12.3 1.3 -24.6 2.1 q -12.3 0.2 -24.6 -0.1 q -12.3 -0.9 -24.6 -2.3 q -12.3 -1.8 -24.6 -4 q -12.3 -2.4 -24.6 -5 q -12.3 -2.6 -24.6 -5 q -12.3 -2.2 -24.6 -4.1 q -12.3 -1.4 -24.6 -2.4 q -12.3 -0.4 -24.6 -0.2 q -12.3 0.7 -24.6 2 q -12.3 1.7 -24.6 3.8 q -12.3 2.4 -24.6 4.9 q -12.3 2.6 -24.6 5.1 q -12.3 2.3 -24.6 4.3 q -12.3 1.6 -24.6 2.7 q -12.3 0.6 -24.6 0.6 q -12.3 -0.6 -24.6 -1.7 q -12.3 -1.6 -24.6 -3.6 q -12.3 -2.3 -24.6 -4.8 q -12.3 -2.6 -24.6 -5.1 q -12.3 -2.4 -24.6 -4.5 q -17.3 5.4 -19.7 27.9 q 2.6 15.5 5.4 30.9" filter="url(#eh5jktWFMBL3-filter)" fill="url(#eh5jktWFMBL3-fill)"/><path id="eh5jktWFMBL4" d="M 1421.7 325.8 q 8.9 -0.3 17.8 -0.8 q 8.9 -0.6 17.8 -1.3 q 8.9 -0.8 17.8 -1.6 q 8.9 -0.9 17.8 -1.9 t 17.8 -1.9 q 8.9 -0.9 17.8 -1.7 q 8.9 -0.8 17.8 -1.4 q 8.9 -0.5 17.8 -0.9 q -0.1 17.7 -0.1 35.4 q 0.1 17.7 0.2 35.4 q 0.2 17.7 0.4 35.4 q 0.2 17.7 0.4 35.4 q 0.1 17.7 0.2 35.4 q 0 17.7 -0.2 35.4 q -0.2 17.7 -0.4 35.4 q -0.2 17.7 -0.4 35.4 q -0.1 17.7 -0.2 35.4 q 0 17.7 0.1 35.4 q 0.2 17.7 0.4 35.4 q 0.2 17.7 0.4 35.4 q 0.1 17.7 0.2 35.4 q 0 17.7 -0.1 35.4 q -0.2 17.7 -0.4 35.4 q -0.2 17.7 -0.4 35.4 q -12.2 -0.1 -24.4 -0.2 q -12.2 -0.2 -24.4 -0.4 q -12.2 -0.2 -24.4 -0.4 q -12.2 -0.2 -24.4 -0.4 q -12.2 -0.2 -24.4 -0.3 q -12.2 -0.1 -24.4 -0.2 q -12.2 0 -24.4 0 q -12.2 0.1 -24.4 0.2 q -12.2 0.1 -24.4 0.3 q -12.2 0.2 -24.4 0.4 q -12.2 0.2 -24.4 0.4 q -12.2 0.2 -24.4 0.3 q -12.2 0.1 -24.4 0.2 q -12.2 0 -24.4 0 q -12.2 -0.1 -24.4 -0.2 q -12.2 -0.1 -24.4 -0.3 q -12.2 -0.2 -24.4 -0.4 t -24.4 -0.4 q -12.2 -0.2 -24.4 -0.4 q -12.2 -0.1 -24.4 -0.2 q -12.2 -0.1 -24.4 -0.1 q -12.2 0 -24.4 0.1 q -12.2 0.1 -24.4 0.3 q -12.2 0.2 -24.4 0.4 q -12.2 0.2 -24.4 0.4 q -12.2 0.2 -24.4 0.4 q -12.2 0.1 -24.4 0.3 q -12.2 0.1 -24.4 0.1 q -12.2 0 -24.4 -0.1 q -12.2 -0.1 -24.4 -0.3 q -12.2 -0.2 -24.4 -0.4 q -12.2 -0.2 -24.4 -0.4 t -24.4 -0.4 q -12.2 -0.2 -24.4 -0.3 q -12.2 -0.1 -24.4 -0.1 q -12.2 0 -24.4 0.1 q -12.2 0.1 -24.4 0.2 q -12.2 0.2 -24.4 0.4 q -12.2 0.2 -24.4 0.4 q -12.2 0.2 -24.4 0.4 q -12.2 0.2 -24.4 0.3 q -12.2 0.1 -24.4 0.2 q -12.2 0 -24.4 0 q -12.2 -0.1 -24.4 -0.2 q -12.2 -0.1 -24.4 -0.3 q -12.2 -0.2 -24.4 -0.4 q -12.2 -0.2 -24.4 -0.4 q -12.2 -0.2 -24.4 -0.3 q -12.2 -0.1 -24.4 -0.2 q -12.2 0 -24.4 0 q -12.2 0.1 -24.4 0.2 q -12.2 0.1 -24.4 0.3 q -12.2 0.2 -24.4 0.4 q -12.2 0.2 -24.4 0.4 q -12.2 0.2 -24.4 0.4 q -12.2 0.1 -24.4 0.2 q -12.2 0.1 -24.4 0.1 q -12.2 -0.1 -24.4 -0.1 q -12.2 -0.1 -24.4 -0.3 q -12.2 -0.2 -24.4 -0.4 q -12.2 -0.2 -24.4 -0.4 q -12.2 -0.2 -24.4 -0.4 q -12.2 -0.1 -24.4 -0.3 q -18.4 -5 -25 -19.8 q -0.3 -9.9 -0.6 -19.8 q -0.3 -9.9 -0.6 -19.8 q -0.1 -14.8 0.6 -19.8 q 12.4 -6.2 24.9 -12.4 q 12.5 -6.2 25 -12.4 q 12.5 -6.3 25.1 -12.6 q 12.6 -6.3 25.2 -12.7 q 12.6 -6.4 25.3 -12.8 q 12.7 -6.4 25.3 -12.9 q 12.7 -6.4 25.3 -12.8 q 12.7 -6.3 25.3 -12.5 q 12.7 -6.2 25.3 -12.3 q 12.6 -6 25.2 -12 q 12.6 -5.9 25.2 -11.8 q 12.6 -5.8 25.1 -11.7 q 12.5 -5.9 25 -11.8 q 12.5 -6 24.9 -12.1 q 12.4 -6.2 24.9 -12.5 q 12.4 -6.5 24.8 -13 q 12.4 -6.7 24.8 -13.4 q 12.4 -6.8 24.8 -13.7 q 12.4 -6.9 24.8 -13.7 q 12.4 -6.8 24.8 -13.5 q 12.4 -6.6 24.8 -13 q 12.4 -6.3 24.9 -12.4 q 12.4 -5.9 24.9 -11.7 q 12.5 -5.6 25 -11.2 q 12.5 -5.4 25 -10.8 q 12.5 -5.4 25.1 -10.8 q 12.6 -5.5 25.1 -11.2 q 12.6 -5.8 25.1 -11.8 q 12.6 -6.2 25.1 -12.7 q 12.6 -6.7 25.1 -13.5 q 12.6 -7 25.1 -14.3 q 12.6 -7.3 25.1 -14.7 q 9.7 -2.1 19.4 -4.2 q 9.7 -2 19.4 -3.9 q 9.7 -1.8 19.4 -3.5 q 9.7 -1.5 19.4 -2.9 q 9.7 -1.2 19.4 -2.3 q 9.7 -0.9 19.4 -1.7 q 9.7 -0.7 19.4 -1.2 q 9.7 -0.5 19.4 -0.8 q 9.7 -0.3 19.4 -0.7 q 9.7 -0.3 19.4 -0.7 q 9.7 -0.5 19.4 -1 q 9.7 -0.7 19.4 -1.5 q 9.7 -0.9 19.4 -2.1 q 9.7 -1.3 19.4 -2.7 q 9.7 -1.6 19.4 -3.3 q 9.7 -1.9 19.4 -3.9 q 9.7 -2.1 19.4 -4.2 q 9.7 -2.2 19.4 -4.4 q 9.7 -2.2 19.4 -4.4 q 9.7 -2.1 19.4 -4.1 q 9.7 -1.9 19.4 -3.6 q 9.7 -1.6 19.4 -3 q 9.7 -1.3 19.4 -2.3 q 9.7 -0.9 19.4 -1.7 q 9.7 -0.6 19.4 -1.1 q 9.7 -0.4 19.4 -0.7 q 9.7 -0.3 19.4 -0.5 q 9.7 -0.3 19.4 -0.5 q 9.7 -0.4 19.4 -0.8 q 9.7 -0.6 19.4 -1.3 q 9.7 -0.9 19.4 -1.9 q 9.7 -1.2 19.4 -2.6" filter="url(#eh5jktWFMBL4-filter)" fill="url(#eh5jktWFMBL4-fill)"/><g transform="matrix(2.3,0,0,2.3,1033.4,640)"><path d=".1 0.9 0.3 1.3 s 0.5 0.7 0.8 0.9 c 0.4 0.2 0.8 0.3 1.2 0.3 c 0.4 0 0.8 -0.1 1.2 -0.3 c 0.4 -0.2 0.6 -0.5 0.8 -0.9 Z M 35.1 2.7 c 1.2 0 2.1 0.3 2.7 0.9 c 0.6 0.6 0.9 1.4 0.9 2.6 v 4.7 h -1.8 v -1 c -0.2 0.4 -0.6 0.6 -1 0.8 c -0.4 0.2 -0.9 0.3 -1.5 0.3 s -1.1 -0.1 -1.6 -0.3 c -0.4 -0.2 -0.8 -0.5 -1 -0.9 c -0.2 -0.4 -0.4 -0.8 -0.4 -1.3 c 0 -0.7 0.3 -1.3 0.8 -1.7 c 0.5 -0.4 1.4 -0.7 2.5 -0.7 h 2.1 v -0.1 c 0 -0.6 -0.2 -1 -0.5 -1.3 c -0.3 -0.3 -0.8 -0.5 -1.5 -0.5 c -0.4 0 -0.9 0.1 -1.3 0.2 c -0.4 0.1 -0.8 0.3 -1.1 0.6 l -0.7 -1.4 c 0.4 -0.3 0.9 -0.6 1.5 -0.7 s 1.2 -0.3 1.9 -0.3 l 0 0 Z m -0.3 6.9 c 0.5 0 0.9 -0.1 1.2 -0.3 c 0.4 -0.2 0.6 -0.5 0.8 -0.9 v -0.9 h -1.9 c -1.1 0 -1.6 0.4 -1.6 1.1 c 0 0.3 0.1 0.6 0.4 0.8 s 0.6 0.3 1.1 0.3 h 0 Z m -10.7 0.1 h -0.9 l -3.4 -5.7 v 6.9 h -1.8 v -10.6 h 1.6 l 4.1 7 l 4.1 -7 h 1.6 l 0 10.6 h -1.8 l 0 -7 l -3.4 5.8 Z m 63.3 18.9 v 15.1 h -3.4 v -2 c -0.6 0.7 -1.3 1.3 -2.2 1.6 c -0.9 0.4 -1.9 0.6 -2.9 0.5 c -1.4 0 -2.7 -0.3 -4 -1 c -1.1 -0.6 -2.1 -1.6 -2.7 -2.7 c -1.3 -2.6 -1.3 -5.6 0 -8.2 c 0.6 -1.1 1.6 -2.1 2.7 -2.7 c 1.2 -0.7 2.6 -1 4 -1 c 0.9 0 1.8 0.2 2.7 0.5 c 0.8 0.3 1.5 0.8 2.1 1.5 v -0.8 c 0 -0.3 0.1 -0.6 0.3 -0.8 s 0.5 -0.3 0.8 -0.3 l 2.5 0 Z m -4.8 11 c 1.7 -2 1.7 -4.9 0 -6.9 c -1.8 -1.7 -4.7 -1.7 -6.5 0 c -1.7 2 -1.7 4.9 0 6.9 c 0.8 0.9 2 1.3 3.2 1.3 c 1.2 0 2.4 -0.4 3.2 -1.3 v 0 Z m 17.9 3.3 c -0.5 0.4 -1 0.6 -1.5 0.8 c -0.6 0.2 -1.2 0.3 -1.9 0.3 c -1.4 0.1 -2.8 -0.4 -3.9 -1.3 c -1 -1 -1.5 -2.4 -1.3 -3.8 v -13.6 h 2.5 c 0.3 0 0.6 0.1 0.8 0.3 s 0.3 0.5 0.3 0.8 v 2.4 h 4 v 2.9 h -4 v 7.2 c 0 0.6 0.2 1.2 0.6 1.7 c 0.4 0.4 1 0.6 1.5 0.6 c 0.2 0 0.5 0 0.7 -0.1 c 0.8 -0.2 1.6 0.3 1.9 1 l 0.4 0.9 Z m 5.1 0 c -1.2 -0.6 -2.2 -1.6 -2.9 -2.8 c -1.4 -2.5 -1.4 -5.5 0 -8 c 0.7 -1.2 1.7 -2.1 2.9 -2.8 c 2.6 -1.3 5.7 -1.3 8.3 0 c 1.2 0.6 2.2 1.6 2.9 2.8 c 1.4 2.5 1.4 5.5 0 8 c -0.7 1.2 -1.7 2.1 -2.9 2.8 c -2.6 1.3 -5.7 1.3 -8.3 0 Z m 7.4 -3.4 c 1.7 -2 1.7 -4.9 0 -6.9 c -1.8 -1.7 -4.7 -1.7 -6.5 0 c -1.7 2 -1.7 4.9 0 6.9 c 0.8 0.9 2 1.3 3.2 1.3 c 1.2 0 2.4 -0.4 3.2 -1.3 v 0 Z m 17 -11.2 v 3.4 c -0.3 -0.1 -0.5 -0.1 -0.8 -0.1 c -1.2 -0.1 -2.4 0.4 -3.2 1.2 c -0.8 1 -1.3 2.2 -1.2 3.5 v 7.4 h -3.6 v -15.1 h 2.3 c 0.3 0 0.6 0.1 0.8 0.3 s 0.3 0.5 0.3 0.8 v 1.1 c 1 -1.6 2.8 -2.4 5.4 -2.4 Z m -107 15 c -1 -0.2 -2 -0.7 -2.8 -1.2 l 0.6 -1.2 c 0.4 -0.7 1.3 -1.1 2 -0.8 c 0.4 0.2 0.8 0.3 1.1 0.4 c 0.9 0.3 1.9 0.4 2.8 0.4 c 2.1 0 3.2 -0.6 3.2 -1.7 c 0 -0.5 -0.3 -1 -0.8 -1.1 c -0.8 -0.3 -1.7 -0.5 -2.6 -0.6 c -1 -0.1 -2.1 -0.4 -3.1 -0.7 c -0.8 -0.2 -1.5 -0.7 -2 -1.3 c -0.6 -0.7 -0.9 -1.6 -0.9 -2.6 c 0 -1.4 0.6 -2.7 1.8 -3.5 c 1.4 -0.9 3.2 -1.4 4.9 -1.3 c 1.1 0 2.1 0.1 3.1 0.4 c 0.9 0.2 1.8 0.5 2.6 1 l -0.7 1.3 c -0.4 0.7 -1.2 1.1 -2 0.8 c -1 -0.4 -2 -0.5 -3.1 -0.5 c -0.8 0 -1.6 0.1 -2.4 0.5 c -0.5 0.2 -0.8 0.7 -0.8 1.2 c 0 0.5 0.3 1 0.9 1.2 c 0.9 0.3 1.8 0.5 2.7 0.7 c 1 0.2 2 0.4 3 0.7 c 0.8 0.2 1.5 0.7 2 1.2 c 0.6 0.7 0.9 1.6 0.8 2.5 c 0 1.4 -0.7 2.7 -1.8 3.4 c -1.5 0.9 -3.3 1.4 -5 1.3 c -1.2 0 -2.4 -0.2 -3.6 -0.5 Z m 44.9 -14.9 v 12.9 c 0 5.3 -2.7 8 -8.2 8 c -1.4 0 -2.8 -0.2 -4.1 -0.6 c -1.2 -0.3 -2.3 -0.9 -3.2 -1.6 l 1 -1.7 c 0.3 -0.5 1 -0.6 1.4 -0.3 c 0.5 0.3 1.1 0.5 1.6 0.7 c 1 0.3 2 0.5 3.1 0.5 c 1.7 0 2.9 -0.4 3.7 -1.1 c 0.8 -0.9 1.3 -2.2 1.2 -3.5 v -0.8 c -0.6 0.7 -1.4 1.2 -2.2 1.5 c -0.9 0.3 -1.9 0.5 -2.9 0.5 c -1.4 0 -2.7 -0.3 -3.9 -0.9 c -1.1 -0.6 -2.1 -1.5 -2.8 -2.6 c -0.7 -1.2 -1 -2.5 -1 -3.8 c 0 -1.3 0.3 -2.7 1 -3.8 c 0.7 -1.1 1.6 -2 2.8 -2.6 c 1.2 -0.6 2.5 -0.9 3.9 -0.9 c 1 0 2 0.2 3 0.5 c 0.9 0.3 1.7 0.9 2.3 1.6 v -0.9 c 0 -0.3 0.1 -0.6 0.3 -0.8 s 0.5 -0.3 0.8 -0.3 l 2.3 0 Z m -4.8 10.3 c 0.9 -0.8 1.3 -2 1.3 -3.1 c 0 -1.2 -0.4 -2.3 -1.3 -3.1 c -1.9 -1.6 -4.7 -1.6 -6.6 0 c -0.9 0.8 -1.3 1.9 -1.3 3.1 c 0 1.2 0.4 2.3 1.3 3.1 c 1.9 1.6 4.7 1.6 6.6 0 Z m -12.1 -10.3 l -5.9 13.7 c -0.4 0.9 -1.2 1.4 -2.2 1.4 h -1.9 l 5.8 -13.4 l 0.3 -0.7 c 0.3 -0.7 0.9 -1.1 1.6 -1.1 l 2.2 0 Z m -10.8 13.3 l -5.9 -13.2 h 2.5 c 0.7 0 1.4 0.4 1.6 1.1 l 3.5 8 l -1.8 4.1 Z" opacity="0.7" clip-rule="evenodd" fill="#ffffff" fill-rule="evenodd"/><g transform="matrix(.3 0 0 0.3-18.12243-25.905895)" opacity="0.7" mask="url(#eh5jktWFMBL10)"><mask id="eh5jktWFMBL10" mask-type="alpha" x="-150%" y="-150%" height="400%" width="400%"><path id="eh5jktWFMBL11" d="M 78.4 207 c 0 -31.5 25.5 -57 57 -57 s 57 25.5 57 57 s -25.5 57 -57 57 s -57 -25.5 -57 -57 Z m 89.2 -4.7 c -0.2 -0.9 -1.1 -1.6 -2 -1.4 h -0.1 c -4.2 0.7 -8.3 -1.3 -10.3 -5 s -1.5 -8.3 1.3 -11.4 c 0.3 -0.3 0.5 -0.8 0.5 -1.2 s -0.2 -0.9 -0.5 -1.2 l -0.1 -0.1 c -2.7 -2.3 -5.8 -4.2 -9.1 -5.5 c -0.4 -0.2 -0.9 -0.2 -1.4 0 s -0.8 0.5 -0.9 1 v 0.1 c -1.4 4 -5.2 6.6 -9.4 6.6 s -8 -2.8 -9.3 -6.8 c -0.1 -0.4 -0.4 -0.8 -0.9 -1 s -0.9 -0.3 -1.3 -0.1 h -0.1 c -3.3 1.2 -6.3 2.9 -9 5.1 c -0.4 0.3 -0.6 0.7 -0.7 1.2 s 0.1 0.9 0.3 1.3 l 0.1 0.1 c 2.7 3.2 3 7.8 0.9 11.4 s -6.3 5.4 -10.5 4.6 c -0.5 -0.1 -0.9 0 -1.3 0.2 s -0.7 0.6 -0.8 1.1 v 0.1 c -0.6 3.4 -0.6 6.9 0 10.4 c 0.1 0.5 0.3 0.9 0.7 1.2 s 0.8 0.4 1.3 0.3 h 0.1 c 4.2 -0.7 8.3 1.3 10.3 5 s 1.5 8.3 -1.3 11.4 c -0.3 0.3 -0.5 0.8 -0.5 1.2 s 0.2 0.9 0.5 1.2 l 0.1 0.1 c 2.7 2.3 5.8 4.1 9.1 5.4 c 0.4 0.2 0.9 0.2 1.4 0 s 0.8 -0.5 0.9 -1 v -0.1 c 1.4 -4 5.2 -6.6 9.4 -6.6 s 7.9 2.7 9.3 6.7 c 0.1 0.4 0.4 0.8 0.9 1 s 0.9 0.3 1.3 0.1 h 0.1 c 3.3 -1.2 6.4 -3 9.1 -5.2 c 0.4 -0.3 0.6 -0.7 0.7 -1.2 s -0.1 -0.9 -0.4 -1.3 l -0.1 -0.1 c -2.8 -3.2 -3.3 -7.8 -1.1 -11.5 s 6.4 -5.6 10.6 -4.7 c 0.9 0.2 1.9 -0.3 2.1 -1.3 v -0.1 c 0.5 -3.4 0.5 -6.8 0 -10.2 Z m -41.7 4.7 c 0 -5.2 4.2 -9.4 9.4 -9.4 s 9.4 4.2 9.4 9.4 s -4.2 9.4 -9.4 9.4 s -9.4 -4.2 -9.4 -9.4 Z" fill="#d2dbed" stroke-width="0"/></mask></g></g>
<script><![CDATA[
(function(s,i,u,o,c,w,d,t,n,x,e,p,a,b){w[o]=w[o]||{};w[o][s]=w[o][s]||[];w[o][s].push(i);e=d.createElementNS(n,t);e.async=true;e.setAttributeNS(x,'href',[u,s,'.','j','s','?','v','=',c].join(''));e.setAttributeNS(null,'src',[u,s,'.','j','s','?','v','=',c].join(''));p=d.getElementsByTagName(t)[0];p.parentNode.insertBefore(e,p);})('5c7f360c',{"root":"eh5jktWFMBL1","version":"2024-09-05","animations":[{"elements":{"eh5jktWFMBL2":{"transform":{"data":{"t":{"x":-710.509995,"y":-394.999992}},"keys":{"o":[{"t":0,"v":{"x":710.509995,"y":394.999992,"type":"corner"}},{"t":15000,"v":{"x":710.509995,"y":394.999992,"type":"corner"}}],"r":[{"t":0,"v":0},{"t":15000,"v":0}],"s":[{"t":0,"v":{"x":1,"y":1}},{"t":15000,"v":{"x":1,"y":1}}]}},"fill":[{"t":0,"v":{"t":"g","s":[{"c":{"r":173,"g":173,"b":173,"a":1},"o":0.1},{"c":{"r":217,"g":217,"b":217,"a":1},"o":0.9}],"r":"eh5jktWFMBL2-fill","gt":[1,0,0,1,0,0],"f":{"x":0.937305,"y":0.742405},"to":{"x":0.062685,"y":0.257595}}},{"t":7000,"v":{"t":"g","s":[{"c":{"r":173,"g":173,"b":173,"a":1},"o":0.1},{"c":{"r":217,"g":217,"b":217,"a":1},"o":0.9}],"r":"eh5jktWFMBL2-fill","gt":[1,0,0,1,0,0],"f":{"x":1.014507,"y":0.177886},"to":{"x":-0.204159,"y":0.813217}}},{"t":15000,"v":{"t":"g","s":[{"c":{"r":173,"g":173,"b":173,"a":1},"o":0.1},{"c":{"r":217,"g":217,"b":217,"a":1},"o":0.9}],"r":"eh5jktWFMBL2-fill","gt":[1,0,0,1,0,0],"f":{"x":0.937305,"y":0.742405},"to":{"x":0.062685,"y":0.257595}}}]},"eh5jktWFMBL3":{"transform":{"data":{"t":{"x":-636.634995,"y":-126.624985}},"keys":{"o":[{"t":0,"v":{"x":636.634995,"y":126.624985,"type":"corner"}},{"t":7000,"v":{"x":636.634995,"y":126.624985,"type":"corner"}},{"t":15000,"v":{"x":636.634995,"y":126.624985,"type":"corner"}}],"r":[{"t":0,"v":0},{"t":7000,"v":-10.177532},{"t":15000,"v":0}],"s":[{"t":0,"v":{"x":1,"y":1}},{"t":7000,"v":{"x":1.268442,"y":1.22741}},{"t":15000,"v":{"x":1,"y":1}}]}},"fill":[{"t":0,"v":{"t":"g","s":[{"c":{"r":173,"g":173,"b":173,"a":1},"o":0.25},{"c":{"r":217,"g":217,"b":217,"a":1},"o":1}],"r":"eh5jktWFMBL3-fill","gt":[1,0,0,1,0,0],"f":{"x":0.828025,"y":0.877355},"to":{"x":0.171966,"y":0.122645}}},{"t":7000,"v":{"t":"g","s":[{"c":{"r":173,"g":173,"b":173,"a":1},"o":0.503446},{"c":{"r":217,"g":217,"b":217,"a":1},"o":1}],"r":"eh5jktWFMBL3-fill","gt":[1,0,0,1,0,0],"f":{"x":0.404404,"y":0.47191},"to":{"x":0.022202,"y":0.299368}}},{"t":15000,"v":{"t":"g","s":[{"c":{"r":173,"g":173,"b":173,"a":1},"o":0.25},{"c":{"r":217,"g":217,"b":217,"a":1},"o":1}],"r":"eh5jktWFMBL3-fill","gt":[1,0,0,1,0,0],"f":{"x":0.828025,"y":0.877355},"to":{"x":0.171966,"y":0.122645}}}]},"eh5jktWFMBL4":{"transform":{"data":{"t":{"x":-781.471709,"y":-597.665009}},"keys":{"o":[{"t":0,"v":{"x":781.471709,"y":597.665009,"type":"corner"}},{"t":7000,"v":{"x":781.471709,"y":597.665009,"type":"corner"}},{"t":15000,"v":{"x":781.471709,"y":597.665009,"type":"corner"}}],"r":[{"t":0,"v":0},{"t":7000,"v":7.85774},{"t":15000,"v":0}],"s":[{"t":0,"v":{"x":1,"y":1}},{"t":7000,"v":{"x":1.258313,"y":1.319432}},{"t":15000,"v":{"x":1,"y":1}}]}}},"eh5jktWFMBL11":{"transform":{"data":{"o":{"x":135.33781,"y":207.03926,"type":"corner"},"t":{"x":-135.33781,"y":-207.03926}},"keys":{"r":[{"t":0,"v":720,"e":[0.415,0.08,0.115,0.955]},{"t":7700,"v":0,"e":[1,0]},{"t":10000,"v":720,"e":[0.415,0.08,0.115,0.955]},{"t":17700,"v":0,"e":[1,0]}]}},"fill":[{"t":0,"v":{"t":"c","v":{"r":210,"g":219,"b":237,"a":1}}},{"t":7700,"v":{"t":"c","v":{"r":210,"g":219,"b":236,"a":1}}},{"t":10000,"v":{"t":"c","v":{"r":210,"g":219,"b":237,"a":1}}},{"t":17700,"v":{"t":"c","v":{"r":210,"g":219,"b":236,"a":1}}}]},"eh5jktWFMBL12":{"transform":{"data":{"o":{"x":11.12,"y":29.9,"type":"corner"},"s":{"x":0.3,"y":0.3},"t":{"x":-95.902813,"y":-108.465}},"keys":{"r":[{"t":0,"v":-720,"e":[0.415,0.08,0.115,0.955]},{"t":7700,"v":0,"e":[1,0]},{"t":10000,"v":-720,"e":[0.415,0.08,0.115,0.955]},{"t":17700,"v":0,"e":[1,0]}]}}}},"s":"MIDA1ZWEyNDk4YjljOTAk4ODliWDkwOTY5NTQR5NjE1ODVjNTc1NzU3PNTM0OThiOTA5OUE4YWzhhOWI5MDk2OTU0OTAYxNTg1MzQ5OTA5YkEM4Yzk5ODg5YjkwVzk2POTVXOWFBNDk2MTU3RPzUzNDk4ZDkwOTM5MzCQ5NjFTNTQ1ODUzNDkV4ODkzOWI4Yzk5STk1MODg5Ylk4YzQ5RjYxOFGQ4ODkzOWE4YzUzNDOlQOWE5NzhjOGM4YjQO5NjE1ODUzNDk4ZDk3UOWE0OTYxNWRKNTdhNUA|"}],"options":"MGDAxMDg4MmY4MDgxNmIVQN2Y4MUgyZjQ3MmYJ3OVg3YzZlNzEyZjhhS"},'https://cdn.svgator.com/ply/','__SVGATOR_PLAYER__','2024-09-05',window,document,'script','http://www.w3.org/2000/svg','http://www.w3.org/1999/xlink')
]]></script>
    <rect x="348" y="284" width="0" height="0" fill="rgb(255, 255, 255)"/>
</svg>
