<?xml version="1.0" encoding="utf-8"?>
<svg id="Layer_2" xmlns="http://www.w3.org/2000/svg" viewBox="0 0 400 400" width="400px" height="400px">
  <defs>
    <style>.cls-1{fill:none;}.cls-2{opacity:.2;}.cls-3{clip-path:url(#clippath);}.cls-4{opacity:.5;}</style>
    <clipPath id="clippath">
      <rect class="cls-1" x="3.5" y="3.5" width="400" height="400"/>
    </clipPath>
  </defs>
  <g class="cls-3" transform="matrix(1, 0, 0, 1, -3.5, -3.5)">
    <g class="cls-2" style="opacity: 0.55;">
      <rect class="cls-4" x="3" y="3.5" width="1" height="400" style="fill: rgb(240, 240, 240);"/>
      <rect class="cls-2" x="22.55" y="3" width="1" height="401" style="fill: rgb(240, 240, 240);"/>
      <rect class="cls-2" x="42.6" y="3" width="1" height="401" style="fill: rgb(240, 240, 240);"/>
      <rect class="cls-2" x="62.65" y="3" width="1" height="401" style="fill: rgb(240, 240, 240);"/>
      <rect class="cls-2" x="82.7" y="3" width="1" height="401" style="fill: rgb(240, 240, 240);"/>
      <rect class="cls-4" x="102.75" y="3" width="1" height="401" style="fill: rgb(240, 240, 240);"/>
      <rect class="cls-2" x="122.8" y="3" width="1" height="401" style="fill: rgb(240, 240, 240);"/>
      <rect class="cls-2" x="142.85" y="3" width="1" height="401" style="fill: rgb(240, 240, 240);"/>
      <rect class="cls-2" x="162.9" y="3" width="1" height="401" style="fill: rgb(240, 240, 240);"/>
      <rect class="cls-2" x="182.95" y="3" width="1" height="401" style="fill: rgb(240, 240, 240);"/>
      <rect class="cls-4" x="203" y="3" width="1" height="401" style="fill: rgb(240, 240, 240);"/>
      <rect class="cls-2" x="223.05" y="3" width="1" height="401" style="fill: rgb(240, 240, 240);"/>
      <rect class="cls-2" x="243.1" y="3" width="1" height="401" style="fill: rgb(240, 240, 240);"/>
      <rect class="cls-2" x="263.15" y="3" width="1" height="401" style="fill: rgb(240, 240, 240);"/>
      <rect class="cls-2" x="283.2" y="3" width="1" height="401" style="fill: rgb(240, 240, 240);"/>
      <rect class="cls-4" x="303.25" y="3" width="1" height="401" style="fill: rgb(240, 240, 240);"/>
      <rect class="cls-2" x="323.3" y="3" width="1" height="401" style="fill: rgb(240, 240, 240);"/>
      <rect class="cls-2" x="343.35" y="3" width="1" height="401" style="fill: rgb(240, 240, 240);"/>
      <rect class="cls-2" x="363.4" y="3" width="1" height="401" style="fill: rgb(240, 240, 240);"/>
      <rect class="cls-2" x="383.45" y="3" width="1" height="401" style="fill: rgb(240, 240, 240);"/>
      <rect class="cls-4" x="403" y="3.5" width="1" height="400" style="fill: rgb(240, 240, 240);"/>
      <rect class="cls-4" x="3.5" y="3" width="400" height="1" style="fill: rgb(240, 240, 240);"/>
      <rect class="cls-2" x="3" y="22.55" width="401" height="1" style="fill: rgb(240, 240, 240);"/>
      <rect class="cls-2" x="3" y="42.6" width="401" height="1" style="fill: rgb(240, 240, 240);"/>
      <rect class="cls-2" x="3" y="62.65" width="401" height="1" style="fill: rgb(240, 240, 240);"/>
      <rect class="cls-2" x="3" y="82.7" width="401" height="1" style="fill: rgb(240, 240, 240);"/>
      <rect class="cls-4" x="3" y="102.75" width="401" height="1" style="fill: rgb(240, 240, 240);"/>
      <rect class="cls-2" x="3" y="122.8" width="401" height="1" style="fill: rgb(240, 240, 240);"/>
      <rect class="cls-2" x="3" y="142.85" width="401" height="1" style="fill: rgb(240, 240, 240);"/>
      <rect class="cls-2" x="3" y="162.9" width="401" height="1" style="fill: rgb(240, 240, 240);"/>
      <rect class="cls-2" x="3" y="182.95" width="401" height="1" style="fill: rgb(240, 240, 240);"/>
      <rect class="cls-4" x="3" y="203" width="401" height="1" style="fill: rgb(240, 240, 240);"/>
      <rect class="cls-2" x="3" y="223.05" width="401" height="1" style="fill: rgb(240, 240, 240);"/>
      <rect class="cls-2" x="3" y="243.1" width="401" height="1" style="fill: rgb(240, 240, 240);"/>
      <rect class="cls-2" x="3" y="263.15" width="401" height="1" style="fill: rgb(240, 240, 240);"/>
      <rect class="cls-2" x="3" y="283.2" width="401" height="1" style="fill: rgb(240, 240, 240);"/>
      <rect class="cls-4" x="3" y="303.25" width="401" height="1" style="fill: rgb(240, 240, 240);"/>
      <rect class="cls-2" x="3" y="323.3" width="401" height="1" style="fill: rgb(240, 240, 240);"/>
      <rect class="cls-2" x="3" y="343.35" width="401" height="1" style="fill: rgb(240, 240, 240);"/>
      <rect class="cls-2" x="3" y="363.4" width="401" height="1" style="fill: rgb(240, 240, 240);"/>
      <rect class="cls-2" x="3" y="383.45" width="401" height="1" style="fill: rgb(240, 240, 240);"/>
      <rect class="cls-4" x="3.5" y="403" width="400" height="1" style="fill: rgb(240, 240, 240);"/>
      <rect x="3" width="1" height="7" style="fill: rgb(240, 240, 240);"/>
      <rect y="3" width="7" height="1" style="fill: rgb(240, 240, 240);"/>
      <rect x="403" width="1" height="7" style="fill: rgb(240, 240, 240);"/>
      <rect x="400" y="3" width="7" height="1" style="fill: rgb(240, 240, 240);"/>
      <rect x="3" y="99.75" width="1" height="7" style="fill: rgb(240, 240, 240);"/>
      <rect y="102.75" width="7" height="1" style="fill: rgb(240, 240, 240);"/>
      <rect x="403" y="99.75" width="1" height="7" style="fill: rgb(240, 240, 240);"/>
      <rect x="400" y="102.75" width="7" height="1" style="fill: rgb(240, 240, 240);"/>
      <rect x="3" y="200" width="1" height="7" style="fill: rgb(240, 240, 240);"/>
      <rect y="203" width="7" height="1" style="fill: rgb(240, 240, 240);"/>
      <rect x="403" y="200" width="1" height="7" style="fill: rgb(240, 240, 240);"/>
      <rect x="400" y="203" width="7" height="1" style="fill: rgb(240, 240, 240);"/>
      <rect x="3" y="300.25" width="1" height="7" style="fill: rgb(240, 240, 240);"/>
      <rect y="303.25" width="7" height="1" style="fill: rgb(240, 240, 240);"/>
      <rect x="403" y="300.25" width="1" height="7" style="fill: rgb(240, 240, 240);"/>
      <rect x="400" y="303.25" width="7" height="1" style="fill: rgb(240, 240, 240);"/>
      <rect x="3" y="400" width="1" height="7" style="fill: rgb(240, 240, 240);"/>
      <rect y="403" width="7" height="1" style="fill: rgb(240, 240, 240);"/>
      <rect x="102.75" width="1" height="7" style="fill: rgb(240, 240, 240);"/>
      <rect x="99.75" y="3" width="7" height="1" style="fill: rgb(240, 240, 240);"/>
      <rect x="102.75" y="99.75" width="1" height="7" style="fill: rgb(240, 240, 240);"/>
      <rect x="99.75" y="102.75" width="7" height="1" style="fill: rgb(240, 240, 240);"/>
      <rect x="102.75" y="200" width="1" height="7" style="fill: rgb(240, 240, 240);"/>
      <rect x="99.75" y="203" width="7" height="1" style="fill: rgb(240, 240, 240);"/>
      <rect x="102.75" y="300.25" width="1" height="7" style="fill: rgb(240, 240, 240);"/>
      <rect x="99.75" y="303.25" width="7" height="1" style="fill: rgb(240, 240, 240);"/>
      <rect x="102.75" y="400" width="1" height="7" style="fill: rgb(240, 240, 240);"/>
      <rect x="99.75" y="403" width="7" height="1" style="fill: rgb(240, 240, 240);"/>
      <rect x="203" width="1" height="7" style="fill: rgb(240, 240, 240);"/>
      <rect x="200" y="3" width="7" height="1" style="fill: rgb(240, 240, 240);"/>
      <rect x="203" y="99.75" width="1" height="7" style="fill: rgb(240, 240, 240);"/>
      <rect x="200" y="102.75" width="7" height="1" style="fill: rgb(240, 240, 240);"/>
      <rect x="203" y="200" width="1" height="7" style="fill: rgb(240, 240, 240);"/>
      <rect x="200" y="203" width="7" height="1" style="fill: rgb(240, 240, 240);"/>
      <rect x="203" y="300.25" width="1" height="7" style="fill: rgb(240, 240, 240);"/>
      <rect x="200" y="303.25" width="7" height="1" style="fill: rgb(240, 240, 240);"/>
      <rect x="203" y="400" width="1" height="7" style="fill: rgb(240, 240, 240);"/>
      <rect x="200" y="403" width="7" height="1" style="fill: rgb(240, 240, 240);"/>
      <rect x="303.25" width="1" height="7" style="fill: rgb(240, 240, 240);"/>
      <rect x="300.25" y="3" width="7" height="1" style="fill: rgb(240, 240, 240);"/>
      <rect x="303.25" y="99.75" width="1" height="7" style="fill: rgb(240, 240, 240);"/>
      <rect x="300.25" y="102.75" width="7" height="1" style="fill: rgb(240, 240, 240);"/>
      <rect x="303.25" y="200" width="1" height="7" style="fill: rgb(240, 240, 240);"/>
      <rect x="300.25" y="203" width="7" height="1" style="fill: rgb(240, 240, 240);"/>
      <rect x="303.25" y="300.25" width="1" height="7" style="fill: rgb(240, 240, 240);"/>
      <rect x="300.25" y="303.25" width="7" height="1" style="fill: rgb(240, 240, 240);"/>
      <rect x="303.25" y="400" width="1" height="7" style="fill: rgb(240, 240, 240);"/>
      <rect x="300.25" y="403" width="7" height="1" style="fill: rgb(240, 240, 240);"/>
      <rect x="403" y="400" width="1" height="7" style="fill: rgb(240, 240, 240);"/>
      <rect x="400" y="403" width="7" height="1" style="fill: rgb(240, 240, 240);"/>
      <rect x="53" y="53" width="1" height="1" style="fill: rgb(240, 240, 240);"/>
      <rect x="153" y="53" width="1" height="1" style="fill: rgb(240, 240, 240);"/>
      <rect x="253" y="53" width="1" height="1" style="fill: rgb(240, 240, 240);"/>
      <rect x="353" y="53" width="1" height="1" style="fill: rgb(240, 240, 240);"/>
      <rect x="53" y="153" width="1" height="1" style="fill: rgb(240, 240, 240);"/>
      <rect x="153" y="153" width="1" height="1" style="fill: rgb(240, 240, 240);"/>
      <rect x="253" y="153" width="1" height="1" style="fill: rgb(240, 240, 240);"/>
      <rect x="353" y="153" width="1" height="1" style="fill: rgb(240, 240, 240);"/>
      <rect x="53" y="253" width="1" height="1" style="fill: rgb(240, 240, 240);"/>
      <rect x="153" y="253" width="1" height="1" style="fill: rgb(240, 240, 240);"/>
      <rect x="253" y="253" width="1" height="1" style="fill: rgb(240, 240, 240);"/>
      <rect x="353" y="253" width="1" height="1" style="fill: rgb(240, 240, 240);"/>
      <rect x="53" y="353" width="1" height="1" style="fill: rgb(240, 240, 240);"/>
      <rect x="153" y="353" width="1" height="1" style="fill: rgb(240, 240, 240);"/>
      <rect x="253" y="353" width="1" height="1" style="fill: rgb(240, 240, 240);"/>
      <rect x="353" y="353" width="1" height="1" style="fill: rgb(240, 240, 240);"/>
    </g>
  </g>
</svg>