<?xml version="1.0" encoding="UTF-8"?>
<svg xmlns="http://www.w3.org/2000/svg" version="1.1" viewBox="0 0 750 500">
  <!-- Generator: Adobe Illustrator 28.7.3, SVG Export Plug-In . SVG Version: 1.2.0 Build 164)  -->
  <g>
    <g id="Elements">
      <g>
        <path d="M364.17,266.16c-.43-1.25.45-2.4,1.1-3.42.5-.79,1.71-1.13,2.61-1.66.18-.11.4-.17.59-.25-.21-.08-.41-.17-.63-.23-1.47-.38-2.65-1.1-3.24-2.6-.03-.08-.37-1.65-1.06-.04-.5,1.18-1.77,2.13-3.14,2.64-.18.07-.34.19-.51.28.21.07.48.07.63.21,1.12,1.04,2.67,1.76,2.7,3.61,1.26,1.08.27,2.3-.1,3.17-.78,1.85-2.45,3-4.45,3.24-1.63.2-3.01-.74-4.06-1.9-.51-.56-1.03-1.2-1.16-2.17-.09-.63-.41-1.31-.22-1.96.34-1.13.9-2.18,1.72-3.04.36-.38.82-.68,1.28-.94.92-.52.89-.45.2-1-.8-.63-1.67-1.27-2.23-2.09-.93-1.35-1.02-4.39.36-5.82,1.14-1.18,2.26-2.17,4.14-2.22,2.38-.07,3.73,1.22,4.98,2.87.26.35.61.38.79-.01.73-1.56,1.84-2.58,3.6-2.81.14-.02.26-.14.39-.21-.11-.09-.21-.21-.34-.25-1.4-.52-2.6-1.26-3.13-2.77-.12-.35-.24-.7-.36-1.05-.05-.14-.1-.28-.15-.42-.11.14-.27.26-.32.41-.39,1.14-1.27,1.9-2.04,2.76-1.31,1.46-5.07,1.36-6.58-.02-1.7-1.56-2.25-3.35-1.92-5.46.27-1.73,2.49-3.8,4.26-4.04,3.1-.41,4.96,1.18,6.27,3.73.1.19.17.4.25.6.08-.21.17-.41.23-.62.38-1.47,1.1-2.66,2.6-3.25.08-.03,1.75-.51.02-1.03-.74-.22-1.35-1.11-1.87-1.81-1.09-1.49-1.17-3.28-.42-4.82,1.57-3.24,4.1-4.3,7.19-2.82,3.31,1.59,3.78,4.38,2.5,7.13-.45.97-1.53,1.7-2.44,2.39-.41.31-.36.41-.06.58,1.21.71,2.29,1.51,2.87,2.85.1.22.32.72.69-.04.66-1.36,1.78-2.28,3.4-2.41.13-.01.26-.14.39-.22-.1-.11-.19-.24-.31-.34-.66-.51-1.33-1.02-2-1.53-1.88-1.41-1.68-3.46-1.44-5.36.2-1.61,3-3.46,4.66-3.61,3.05-.27,4.7,1.42,5.84,3.93.06.14.15.26.22.39.09-.11.23-.21.25-.33.39-2.32,2.23-3.18,4.08-3.92,1.06-.43,2.13.22,3.05.66,1.62.77,2.44,2.34,2.93,3.98.32,1.07-.33,2.09-.76,3.02-.73,1.57-2.28,2.28-3.8,2.82-1.04.36-2.19-.15-3.02-.71-1.12-.75-2.45-1.53-2.47-3.22,0-.11-.16-.23-.25-.34-.07.13-.16.25-.22.39-.87,1.97-2.09,3.55-4.39,3.92-.14.02-.26.14-.39.21.19.09.37.22.57.25,1.72.33,2.81,1.43,3.53,2.94.19.4.24.86.35,1.29.27-.47.56-.92.81-1.41,1.29-2.59,4.36-3.53,7.13-2.37,2.1.88,2.94,2.44,2.93,4.57,0,.75.15,1.48-.26,2.29-1.13,2.2-1.05,2.24-4.12,3.26-.14.05-.26.15-.39.22.12.08.22.21.35.25.57.18,1.19.24,1.71.5,1.75.87,2.73,2.31,2.7,4.29-.01.83.08,1.63-.23,2.53-.65,1.87-2.04,2.62-3.67,3.25-.14.05-.26.15-.39.23.12.08.23.21.36.24,1.51.41,2.3,1.48,3.02,2.82,1.28,2.37-.33,5.36-1.78,6.29-3.32,2.11-6.34.61-7.85-2.14-.1-.19-.12-.43-.18-.65-.23.18-.5.32-.67.55-.17.23-.24.53-.35.81-.66,1.72-2.21,2.15-3.76,2.37-.89.13-1.91.05-2.75-.27-2.26-.85-2.58-1.34-3.35-4.02-.04-.14-.11-.27-.17-.41-.1.15-.27.3-.3.46-.32,2.14-1.61,3.68-3.56,4.14-3.2.76-7.06-.45-7.01-5.35ZM374.98,265.86c.07-.13.18-.25.22-.39q.97-2.94,3.44-4.23c.19-.1.44-.09.64-.19.08-.04.12-.21.14-.33,0-.04-.11-.13-.17-.13-2.19-.19-3.32-1.59-4.05-3.49-.05-.13-.17-.23-.25-.34-.08.13-.17.25-.22.39-.7,1.8-1.82,3.13-3.85,3.44-.14.02-.27.11-.41.17.15.1.29.25.45.3,1.8.59,3.01,1.8,3.7,3.53.11.27.04.61.1.92.02.13.16.23.25.34ZM386.04,245.74c-.09.1-.25.19-.26.3-.15,1.68-1.06,2.8-2.54,3.53-.53.26-.5.63.08.94,1.3.68,2.09,1.73,2.46,3.13.06.22.11.43.17.65.23-.18.61-.33.65-.54.33-1.81,1.8-2.45,3.2-3.14.26-.13.62-.04.92-.1.12-.02.21-.17.32-.26-.13-.07-.25-.16-.39-.21q-2.84-.9-4.07-3.29c-.1-.2-.21-.39-.31-.59-.07-.13-.13-.27-.21-.42ZM385.94,256.82c-.06.15-.11.29-.17.42-.78,1.74-1.84,3.16-3.94,3.37-.13.01-.25.15-.38.23.13.08.25.18.38.24,1.47.67,3.14,1.1,3.48,3.08.04.26.41.46.63.69.17-.28.38-.55.5-.85.51-1.31,1.51-2.02,2.79-2.45.16-.06.36-.31.36-.47,0-.16-.2-.43-.36-.46-1.45-.27-2.16-1.22-2.51-2.57-.09-.35-.3-.68-.48-1-.05-.1-.19-.15-.3-.23ZM378.09,250.12c-.04-.14-.04-.39-.12-.41-1.34-.45-2-1.55-2.66-2.67-.13-.21-.35-.59-.59-.01-.61,1.44-1.74,2.23-3.24,2.54-.2.04-.38.17-.57.25.21.07.43.12.62.23.51.3,1.04.59,1.51.95.93.71,1.46,1.71,1.85,2.79.69-.91.98-2.12,2.01-2.78.31-.2.66-.32.97-.51.11-.07.15-.25.23-.37Z"/>
        <path d="M358.66,238.37c-1.31-.24-2.57-.89-3.75-2.01-.99-.95-.51-2.24-1.31-3.1.61-.68.21-1.7.69-2.34.67-.89,1.46-1.74,2.37-2.35.64-.43,1.57-.42,2.37-.61.53.98,1.68.07,2.32.78.74.83,1.78,1.49,2.24,2.44.28.58.48,1.45.5,2.16.03.77-.27,1.66-.72,2.3-.64.9-1.46,1.74-2.37,2.35-.55.37-1.43.25-2.35.38Z"/>
        <path d="M384.81,277.42c-.01,2.53-2.02,4.83-4.88,4.77-2.68-.05-4.85-2.17-4.7-4.93.16-2.84,1.99-4.56,4.74-4.64,2.75-.09,4.84,2.16,4.84,4.8Z"/>
        <path d="M407.37,244.71c0,2.79-2.22,4.9-4.81,4.83-2.7-.08-4.58-1.75-4.76-4.62-.17-2.75,1.96-4.88,4.67-4.95,2.81-.08,4.86,2.15,4.91,4.74Z"/>
        <path d="M364.65,276.89c.02-2.55,2.05-4.83,4.89-4.76,2.69.06,4.85,2.18,4.69,4.94-.17,2.85-2.02,4.55-4.75,4.63-2.7.08-4.83-2.11-4.83-4.81Z"/>
        <path d="M402.09,260.6c-2.52,0-4.83-1.99-4.8-4.86.03-2.63,2.13-4.85,4.91-4.72,2.78.13,4.58,2,4.67,4.72.09,2.88-2.28,4.86-4.78,4.86Z"/>
        <path d="M370.02,217.88c2.39.03,4.76,2.55,4.71,5.01-.04,2.24-2.57,4.62-4.89,4.59-2.39-.03-4.76-2.55-4.71-5.01.04-2.24,2.57-4.62,4.89-4.59Z"/>
        <path d="M380.96,217.88c2.3,0,4.78,2.4,4.81,4.67.03,2.43-2.39,4.93-4.79,4.93-2.41,0-4.84-2.48-4.81-4.91.03-2.26,2.5-4.69,4.79-4.69Z"/>
        <path d="M347.78,239c2.3-.02,4.83,2.37,4.87,4.61.04,2.45-2.35,4.97-4.73,4.99-2.3.02-4.83-2.37-4.87-4.61-.04-2.45,2.35-4.97,4.73-4.99Z"/>
        <path d="M352.65,254.95c-.03,2.38-2.57,4.74-5.03,4.69-2.25-.05-4.6-2.57-4.57-4.91.03-2.38,2.57-4.74,5.03-4.69,2.25.05,4.6,2.57,4.57,4.91Z"/>
        <path d="M398.25,234.18c0-2.95,1.39-4.31,4.4-4.3,2.93,0,4.25,1.4,4.24,4.46-.01,2.8-1.42,4.18-4.28,4.18-2.96,0-4.36-1.39-4.36-4.34Z"/>
        <path d="M395.37,277.46c0,2.94-1.39,4.27-4.44,4.26-2.9,0-4.21-1.42-4.2-4.5.01-2.75,1.46-4.14,4.32-4.14s4.33,1.4,4.32,4.38Z"/>
        <path d="M362.73,276.96c0,2.95-1.38,4.29-4.42,4.28-2.92,0-4.23-1.4-4.22-4.48.01-2.78,1.44-4.16,4.3-4.16,2.95,0,4.34,1.4,4.34,4.36Z"/>
        <path d="M397.77,266.78c0-2.94,1.39-4.27,4.44-4.26,2.9,0,4.21,1.42,4.2,4.5-.01,2.75-1.46,4.14-4.32,4.14s-4.32-1.4-4.32-4.38Z"/>
        <path d="M363.79,222.78c.5,1.4-.64,2.34-1.29,3.08-.72.83-1.97,1.19-3.31,1.22-1.35.03-2.35-.6-3.05-1.3-.78-.79-1.23-1.96-1.18-3.35.05-1.31.64-2.31,1.35-3.03.71-.73,1.83-1.4,3.13-1.06.59.15,1.34-.03,1.8.27.85.55,1.76,1.17,2.17,2.15.26.62.27,1.35.39,2.03Z"/>
        <path d="M387.77,223.18c-.57-1.43.41-2.5,1.17-3.28.7-.72,1.83-1.13,3.11-1.15,1.33-.03,2.35.52,3.1,1.21.83.76,1.19,1.96,1.27,3.3.08,1.37-.57,2.38-1.26,3.07-.69.69-1.71,1.33-3.08,1.25-1.25-.07-2.43-.38-3.12-1.12-.75-.8-1.78-1.83-1.19-3.27Z"/>
        <path d="M347.98,261.65c1.38-.7,2.31.44,3.06,1.09.83.72,1.18,1.97,1.22,3.31.04,1.35-.6,2.35-1.3,3.05-.78.78-1.96,1.23-3.35,1.18-1.31-.05-2.31-.64-3.03-1.34-.73-.71-1.09-1.85-1.14-3.12-.05-1.34.53-2.38,1.23-3.09.77-.78,1.89-1.71,3.32-1.08Z"/>
        <path d="M352.59,233.18c.38,1.36-.35,2.2-1.23,3.07-.87.87-1.72,1.38-3.05,1.37-1.33,0-2.16-.51-3.04-1.39-.9-.89-1.3-1.78-1.32-3.07-.02-1.25.42-2.04,1.26-2.85.87-.84,1.61-1.54,3.01-1.46,1.27.07,2.2.36,3.07,1.31.82.89,1.74,1.64,1.29,3.01Z"/>
        <path d="M425.25,176.11c.78.31,1.83.35,2.69,1.1,1,.88,1.29,2.01,1.5,3.21.05.29-.82,2.46-.98,2.69-.76,1.09-1.97,1.47-3.14,1.61-2.22.27-4.4-1.83-4.51-4.14-.11-2.25,1.92-4.38,4.44-4.47Z"/>
        <path d="M321.06,189.07c-.44,1.05-.48,2.2-1.41,3.05-.9.82-1.92,1.25-3.06,1.26-2.3.02-4.36-2.18-4.26-4.41.1-2.23,2.04-4.2,4.26-4.18,1.13.01,2.16.42,3.06,1.25.93.85.97,1.99,1.42,3.04Z"/>
        <path d="M309.93,199.49c-.06,2.51-2.2,4.57-4.44,4.47-2.33-.1-4.43-2.26-4.16-4.49.13-1.07.43-2.19,1.4-3,.86-.72,1.84-1.12,2.87-1.11,1.12,0,2.16.42,3.04,1.28.9.87.98,1.99,1.28,2.85Z"/>
        <path d="M451.05,202.65c-.3.78-.35,1.83-1.11,2.69-.88.99-2,1.41-3.21,1.46-.95.04-1.89-.28-2.7-.94-1.01-.83-1.47-1.96-1.6-3.15-.25-2.23,1.84-4.4,4.15-4.51,2.25-.1,4.38,1.93,4.46,4.45Z"/>
        <path d="M308.01,297.71c-.3.86-.38,1.98-1.28,2.85-.88.86-1.92,1.27-3.04,1.28-1.03,0-2.01-.39-2.87-1.11-.97-.81-1.27-1.93-1.4-3-.27-2.23,1.83-4.39,4.16-4.49,2.24-.1,4.38,1.96,4.44,4.47Z"/>
        <path d="M332.01,178.65c-.3.78-.35,1.83-1.11,2.69-.88.99-2,1.41-3.21,1.46-.95.04-1.89-.28-2.7-.94-1.01-.83-1.47-1.96-1.6-3.15-.25-2.23,1.84-4.4,4.15-4.51,2.25-.1,4.38,1.93,4.46,4.45Z"/>
        <path d="M422.73,325.97c-1.05-.44-2.19-.48-3.05-1.41-.82-.9-1.25-1.92-1.25-3.06-.02-2.3,2.18-4.36,4.41-4.26,2.23.1,4.2,2.04,4.18,4.26-.01,1.14-.43,2.16-1.25,3.06-.85.93-1.99.97-3.04,1.42Z"/>
        <path d="M329.13,319.79c-.3.86-.38,1.98-1.28,2.85-.88.86-1.92,1.27-3.04,1.28-1.03,0-2.01-.39-2.87-1.11-.97-.81-1.27-1.93-1.4-3-.27-2.23,1.83-4.39,4.16-4.49,2.24-.1,4.38,1.96,4.44,4.47Z"/>
        <path d="M293.97,216.92c1.87-.09,4.38,2.33,4.43,4.27.04,1.78-2.23,4.21-4.09,4.37-1.82.16-4.43-2.22-4.55-4.15-.12-1.84,2.28-4.4,4.21-4.49Z"/>
        <path d="M456.78,228.44c-1.93-.03-4.37-2.53-4.29-4.41.08-1.94,2.61-4.34,4.47-4.23,1.81.1,4.14,2.5,4.17,4.29.03,1.93-2.42,4.38-4.35,4.35Z"/>
        <path d="M455.82,282.68c-1.92-.03-4.37-2.53-4.29-4.41.08-1.94,2.61-4.34,4.47-4.23,1.81.1,4.14,2.5,4.17,4.29.03,1.93-2.42,4.38-4.35,4.35Z"/>
        <path d="M403.53,173.24c-1.92,0-4.37-2.48-4.33-4.37.05-1.94,2.56-4.36,4.43-4.27,1.82.09,4.15,2.45,4.21,4.25.06,1.89-2.4,4.38-4.31,4.39Z"/>
        <path d="M444.8,295.64c1.93,0,4.38,2.46,4.33,4.37-.04,1.81-2.36,4.18-4.19,4.27-1.85.1-4.39-2.32-4.45-4.25-.06-1.88,2.39-4.38,4.31-4.39Z"/>
        <path d="M297.45,275.36c.09,1.87-2.33,4.39-4.26,4.44-1.78.05-4.21-2.22-4.38-4.08-.17-1.82,2.21-4.43,4.14-4.56,1.83-.12,4.4,2.28,4.5,4.2Z"/>
        <path d="M346.43,326.36c1.92.02,4.37,2.53,4.3,4.4-.07,1.94-2.59,4.34-4.46,4.24-1.82-.1-4.15-2.49-4.18-4.28-.04-1.93,2.41-4.38,4.34-4.36Z"/>
        <path d="M349.22,172.28c-1.93-.06-4.35-2.58-4.26-4.44.1-1.92,2.67-4.32,4.5-4.2,1.83.13,4.14,2.54,4.14,4.32,0,1.92-2.49,4.37-4.38,4.32Z"/>
        <path d="M318.57,308.53c.06,1.88-2.39,4.38-4.31,4.39-1.8,0-4.2-2.28-4.33-4.13-.13-1.84,2.26-4.41,4.19-4.51,1.85-.1,4.39,2.32,4.45,4.25Z"/>
        <path d="M435.63,187.12c.98.42,2.2.64,2.94,1.36.74.72,1.33,1.94,1.34,2.94.01,1.01-.54,2.25-1.26,2.97-.72.73-1.94,1.27-2.96,1.31-.93.04-2.11-.47-2.79-1.14-.74-.73-1.38-1.91-1.43-2.91-.04-1.01.48-2.26,1.18-3.01.7-.75,1.92-1.02,2.98-1.53Z"/>
        <path d="M400.7,336.02c-1.01-.45-2.23-.68-2.96-1.41-.73-.73-1.27-1.94-1.32-2.96-.04-.93.47-2.11,1.13-2.79.73-.75,1.9-1.39,2.91-1.44,1.01-.05,2.26.47,3.01,1.17.75.7,1.36,1.91,1.4,2.92.03,1.01-.51,2.25-1.21,3-.71.75-1.92,1.01-2.96,1.51Z"/>
        <path d="M297.89,232.48c.36,1.09-.36,1.76-1.02,2.61-.84,1.07-1.86.95-2.96,1.05-1.16.11-1.84-.47-2.68-1.12-1.11-.86-.88-1.9-1-2.98-.13-1.18.46-1.86,1.18-2.66.8-.89,1.69-.94,2.75-.97,1.1-.04,1.88.28,2.72,1.04.95.87,1.18,1.79,1.02,3.03Z"/>
        <path d="M433.98,306.71c1.09-.36,1.76.36,2.61,1.02,1.07.84.95,1.86,1.05,2.96.11,1.16-.47,1.84-1.12,2.68-.86,1.11-1.9.88-2.98,1-1.18.13-1.86-.46-2.66-1.18-.89-.8-.94-1.69-.97-2.75-.04-1.11.28-1.88,1.04-2.72.87-.95,1.8-1.18,3.03-1.02Z"/>
        <path d="M393.93,331.7c-.02,2.3-1.6,3.81-3.96,3.78-2.26-.03-3.76-1.65-3.72-4.02.04-2.13,1.64-3.66,3.84-3.66,2.29,0,3.86,1.59,3.84,3.9Z"/>
        <path d="M460.17,267.82c0,2.28-1.61,3.84-3.92,3.82-2.29-.02-3.79-1.62-3.76-3.98.03-2.16,1.6-3.69,3.8-3.7,2.31-.01,3.89,1.56,3.88,3.86Z"/>
        <path d="M460.65,235.4c.09,1.85-1.86,3.85-4.14,3.63-2.08-.2-3.57-1.75-3.54-3.99.03-2.26,1.65-3.67,4.02-3.75,1.78-.06,4.04,1.94,3.66,4.11Z"/>
        <path d="M457.05,217.4c-1.85.09-3.85-1.86-3.63-4.14.2-2.08,1.75-3.57,3.99-3.54,2.26.03,3.67,1.65,3.75,4.02.06,1.78-1.94,4.04-4.11,3.66Z"/>
        <path d="M297.45,243.3c0,2.3-1.57,3.87-3.88,3.86-2.2-.01-3.77-1.54-3.8-3.7-.03-2.36,1.47-3.96,3.76-3.98,2.31-.02,3.91,1.54,3.92,3.82Z"/>
        <path d="M415.53,332.22c-.03,2.28-1.63,3.78-4,3.74-2.23-.03-3.66-1.69-3.7-4.06-.04-1.89,2.04-3.8,3.9-3.66,2.28.17,3.83,1.64,3.8,3.98Z"/>
        <path d="M379.93,291.8c-2.29-.02-3.79-1.62-3.76-3.98.03-2.25,1.67-3.74,4.04-3.7,2.12.04,3.65,1.66,3.64,3.86,0,2.28-1.61,3.84-3.92,3.82Z"/>
        <path d="M340.65,254.78c.02,2.31-1.55,3.9-3.84,3.9s-3.8-1.53-3.84-3.66c-.04-2.37,1.46-3.99,3.72-4.02,2.36-.03,3.94,1.48,3.96,3.78Z"/>
        <path d="M384.81,212.14c0,2.28-1.61,3.84-3.92,3.82-2.29-.02-3.79-1.62-3.76-3.98.03-2.16,1.6-3.69,3.8-3.7,2.31-.01,3.89,1.56,3.88,3.86Z"/>
        <path d="M360.37,164.6c2.29.01,3.83,1.6,3.8,3.94-.03,2.28-1.63,3.78-4,3.74-2.14-.03-3.67-1.62-3.68-3.82,0-2.3,1.57-3.87,3.88-3.86Z"/>
        <path d="M347.31,280.28c-2.3-.02-3.81-1.6-3.78-3.96.03-2.26,1.65-3.76,4.02-3.72,2.13.04,3.66,1.64,3.66,3.84,0,2.29-1.59,3.86-3.9,3.84Z"/>
        <path d="M459.69,289.48c-.02,2.29-1.62,3.79-3.98,3.76-2.25-.03-3.74-1.67-3.7-4.04.04-2.12,1.66-3.65,3.86-3.64,2.28,0,3.84,1.61,3.82,3.92Z"/>
        <path d="M392.97,165.08c2.29,0,3.86,1.59,3.84,3.9-.02,2.3-1.6,3.81-3.96,3.78-2.18-.03-3.7-1.58-3.72-3.78-.02-2.31,1.55-3.9,3.84-3.9Z"/>
        <path d="M413.19,249.08c-2.31.02-3.9-1.55-3.9-3.84,0-2.2,1.53-3.8,3.66-3.84,2.37-.04,3.99,1.46,4.02,3.72.03,2.36-1.48,3.94-3.78,3.96Z"/>
        <path d="M405.45,277.46c-.02,2.3-1.6,3.81-3.96,3.78-2.26-.03-3.76-1.65-3.72-4.02.04-2.13,1.64-3.66,3.84-3.66,2.29,0,3.86,1.59,3.84,3.9Z"/>
        <path d="M293.71,261.08c2.28.03,3.78,1.63,3.74,4-.04,2.23-1.69,3.66-4.06,3.7-1.89.04-3.8-2.04-3.66-3.9.17-2.28,1.64-3.83,3.98-3.8Z"/>
        <path d="M337.21,247.64c-2.29-.02-3.79-1.62-3.76-3.98.03-2.25,1.67-3.74,4.04-3.7,2.12.04,3.65,1.66,3.64,3.86,0,2.28-1.61,3.84-3.92,3.82Z"/>
        <path d="M402.57,227c-2.29,0-3.86-1.59-3.84-3.9.02-2.3,1.6-3.81,3.96-3.78,2.18.03,3.7,1.58,3.72,3.78.02,2.31-1.55,3.9-3.84,3.9Z"/>
        <path d="M413.13,259.64c-2.29,0-3.86-1.59-3.84-3.9.02-2.3,1.6-3.81,3.96-3.78,2.18.03,3.7,1.58,3.72,3.78.02,2.31-1.55,3.9-3.84,3.9Z"/>
        <path d="M361.29,331.16c0,2.29-1.59,3.86-3.9,3.84-2.3-.02-3.81-1.6-3.78-3.96.03-2.18,1.58-3.7,3.78-3.72,2.31-.02,3.9,1.55,3.9,3.84Z"/>
        <path d="M335.91,326.84c2.3.02,3.81,1.6,3.78,3.96-.03,2.26-1.65,3.76-4.02,3.72-2.13-.04-3.66-1.64-3.66-3.84,0-2.29,1.59-3.86,3.9-3.84Z"/>
        <path d="M296.97,286.4c.03,2.36-1.48,3.94-3.78,3.96-2.2.02-3.72-1.52-3.93-3.6-.22-2.19,1.93-4.17,3.7-4.11,2.37.08,3.99,1.49,4.02,3.75Z"/>
        <path d="M372.81,288.06c-.03,2.28-1.63,3.78-4,3.74-2.23-.04-3.66-1.69-3.7-4.06-.04-1.89,2.04-3.8,3.9-3.66,2.28.17,3.83,1.64,3.8,3.98Z"/>
        <path d="M381.97,164.6c1.97,0,3.82,1.93,3.8,3.94-.02,1.91-2.02,3.64-4,3.79-1.21.09-1.67-1.03-2.65-1.18-.08-1-1.25-1.44-1.1-2.7.24-1.98,1.93-3.86,3.94-3.85Z"/>
        <path d="M370.53,215.48c-2.16-.01-3.85-1.95-4.02-3.96-.1-1.22.68-2.02,1.24-2.58.63-.62,1.57-1.27,2.83-1.23,1.18.04,1.65,1.1,2.64,1.23.1.99,1.11,1.49,1.12,2.7,0,1.32-1.12,1.82-1.29,2.87-1.02.01-1.48,1.58-2.53.97Z"/>
        <path d="M352.3,222.16c-.37.9-.5,2.05-1.15,2.61-.72.63-1.68,1.22-2.8,1.28-1.07.06-1.92-.61-2.64-1.11-.67-.46-.95-1.64-1.19-2.56-.29-1.12.54-2.09,1.1-2.86.48-.66,1.66-.92,2.58-1.15,1.13-.28,2.06.59,2.84,1.14.67.48.84,1.67,1.26,2.63Z"/>
        <path d="M410.6,168.89c.42-.95.58-2.13,1.25-2.63.76-.57,1.72-1.39,2.83-1.15.92.2,2.1.47,2.58,1.13.56.77,1.4,1.72,1.11,2.85-.23.92-.51,2.07-1.18,2.57-.69.52-1.58,1.12-2.63,1.11-1.14-.01-2.05-.69-2.8-1.28-.66-.51-.79-1.7-1.17-2.6Z"/>
        <path d="M370.92,164.47c.95.42,2.13.58,2.63,1.25.57.76,1.39,1.72,1.15,2.83-.2.92-.47,2.1-1.13,2.58-.77.56-1.72,1.4-2.85,1.11-.92-.23-2.07-.51-2.57-1.17-.52-.69-1.12-1.58-1.11-2.63,0-1.14.69-2.05,1.28-2.81.51-.66,1.7-.79,2.6-1.17Z"/>
        <path d="M294.57,206.66c1,.48,2.27.69,2.77,1.43.48.71,1.32,1.58,1.05,2.64-.24.92-.45,2.1-1.1,2.6-.75.58-1.72,1.39-2.83,1.15-.92-.2-1.99-.5-2.61-1.13-.62-.63-.85-1.71-1.09-2.63-.28-1.06.57-1.94,1.05-2.64.5-.74,1.77-.95,2.77-1.43Z"/>
        <path d="M338.73,171.97c-1-.48-2.27-.69-2.77-1.43-.48-.71-1.32-1.58-1.05-2.64.24-.92.45-2.1,1.1-2.6.75-.58,1.72-1.39,2.83-1.15.92.2,1.99.49,2.61,1.12.62.63.85,1.71,1.09,2.63.28,1.06-.57,1.94-1.05,2.64-.5.74-1.77.95-2.77,1.43Z"/>
        <path d="M297.6,253.97c-.46.94-.73,2.07-1.43,2.73-.64.6-1.76.97-2.66.94-.9-.02-2.1-.41-2.58-1.07-.56-.76-1.41-1.71-1.13-2.84.23-.92.5-2.09,1.16-2.57.7-.51,1.57-1.13,2.63-1.13,1.15,0,2.05.69,2.81,1.27.66.5.8,1.69,1.2,2.68Z"/>
        <path d="M416.49,266.93c-.07,1.69-2.36,3.84-3.99,3.75-1.69-.1-3.82-2.43-3.69-4.05.12-1.57,2.34-3.65,3.87-3.63,1.69.03,3.88,2.28,3.81,3.93Z"/>
        <path d="M390.54,292.28c-.98-.53-2.27-.56-2.86-1.7-.37-.71-1.03-1.59-.86-2.2.27-1.03.51-2.29,1.66-2.86.72-.36,1.62-1.01,2.21-.82.93.31,2,.53,2.75,1.48.56.71.29,1.66.97,2.24-.62.76-.5,1.81-1.27,2.6-.78.81-1.86.62-2.6,1.27Z"/>
        <path d="M361.72,287.57c-.47.8-.55,1.87-1.42,2.66-.74.67-1.73.98-2.42.96-.7-.02-1.66-.37-2.41-1.03-.85-.74-.97-1.74-1.28-2.6-.2-.56.47-1.48.83-2.2.58-1.16,1.86-1.25,2.87-1.67.43-.18,1.2.14,1.66.45.65.43,1.25,1.01,1.68,1.65.31.45.32,1.11.48,1.77Z"/>
        <path d="M382.41,331.85c.2.9-.13,1.75-.99,2.51-.52.46-.98.75-1.66.64-1.03-.17-2.25.5-3.07-.67-.31-.44-.89-.81-.95-1.27-.15-1.01-.38-2.24.05-3.05.43-.83,1.15-1.98,2.56-1.74.39.07.8.06,1.19,0,.87-.13,1.46.22,2.07.83.61.61.97,1.21.81,2.07-.03.15,0,.32,0,.68Z"/>
        <path d="M413.19,230.83c1.31.03,2.15-.05,2.96.78.8.81.84,1.61.81,2.56-.03.92.06,1.76-.77,2.58-.81.8-1.61.84-2.56.81-.92-.03-1.76.06-2.58-.77-.8-.81-.84-1.61-.81-2.56.03-.92-.06-1.76.77-2.58.81-.79,1.61-.86,2.17-.82Z"/>
        <path d="M460.17,245.83c0,2.34-.99,3.26-3.47,3.25-2.34,0-3.26-.99-3.25-3.47,0-2.34.99-3.26,3.47-3.25,2.34,0,3.26.99,3.25,3.47Z"/>
        <path d="M382.41,342.17c0,2.25-1.1,3.38-3.33,3.39-2.25,0-3.38-1.1-3.39-3.33,0-2.25,1.1-3.38,3.33-3.39,2.25,0,3.38,1.1,3.39,3.33Z"/>
        <path d="M364.65,342.19c0-2.25,1.11-3.36,3.36-3.36,2.25,0,3.36,1.11,3.36,3.36,0,2.25-1.11,3.36-3.36,3.36-2.25,0-3.36-1.11-3.36-3.36Z"/>
        <path d="M337.39,229.4c1.88-.22,3.35,1.6,3.31,3.47-.04,1.87-1.66,3.35-3.52,3.31-1.87-.04-3.35-1.66-3.31-3.52.04-1.87,1.66-3.55,3.52-3.25Z"/>
        <path d="M341.61,178.55c-.01,2.23-1.14,3.34-3.39,3.33-2.23-.01-3.34-1.14-3.33-3.39.01-2.23,1.14-3.34,3.39-3.33,2.23.01,3.34,1.14,3.33,3.39Z"/>
        <path d="M368.56,334.52c-2.27.02-3.41-1.08-3.43-3.29-.02-2.27,1.08-3.41,3.29-3.43,2.27-.02,3.41,1.08,3.43,3.29.02,2.27-1.08,3.41-3.29,3.43Z"/>
        <path d="M467.37,253.4c1.87-.29,3.42,1.55,3.42,3.36,0,1.87-1.61,3.42-3.42,3.42-1.87,0-3.42-1.61-3.42-3.42,0-1.87,1.61-3.65,3.42-3.36Z"/>
        <path d="M456.26,253.4c2.27-.02,3.41,1.08,3.43,3.29.02,2.27-1.08,3.41-3.29,3.43-2.27.02-3.41-1.08-3.43-3.29-.02-2.27,1.08-3.41,3.29-3.43Z"/>
        <path d="M362.73,211.71c-.02,2.22-1.16,3.31-3.43,3.29-2.22-.02-3.31-1.16-3.29-3.43.02-2.22,1.16-3.31,3.43-3.29,2.22.02,3.31,1.16,3.29,3.43Z"/>
        <path d="M395.37,212.05c.02,2.27-1.08,3.41-3.29,3.43-2.27.02-3.41-1.08-3.43-3.29-.02-2.27,1.08-3.41,3.29-3.43,2.27-.02,3.41,1.08,3.43,3.29Z"/>
        <path d="M336.74,262.04c2.27-.02,3.41,1.08,3.43,3.29.02,2.27-1.08,3.41-3.29,3.43-2.27.02-3.41-1.08-3.43-3.29-.02-2.27,1.08-3.41,3.29-3.43Z"/>
        <path d="M467.37,242.84c1.87-.29,3.42,1.55,3.42,3.36,0,1.87-1.61,3.42-3.42,3.42-1.87,0-3.42-1.61-3.42-3.42,0-1.87,1.61-3.65,3.42-3.36Z"/>
        <path d="M437.13,321.3c.02,1.93-1.57,3.56-3.3,3.63-.86.04-1.54-.11-2.07-.82-.54-.72-1.54-1.11-1.38-2.32.12-.86-.03-1.7.86-2.3.75-.51,1.16-1.45,2.35-1.33.89.09,1.68.09,2.28.92.53.74,1.61,1.16,1.25,2.23Z"/>
        <path d="M444.81,314.3c-1.19.45-1.69-.52-2.39-1.12-.7-.6-1.07-1.24-1-2.24.12-1.73,1.72-3.21,3.51-3.34,1.08-.08,1.57.55,2.18,1.14.62.6,1.17,1.13,1.12,2.2-.04.98-.33,1.64-1.03,2.24-.7.6-1.2,1.58-2.39,1.13Z"/>
        <path d="M308.49,210.56c-.01,1.92-1.69,3.4-3.48,3.52-1.16.07-1.63-.74-2.37-1.29-.81-.61-.83-1.39-.92-2.28-.12-1.2.78-1.63,1.34-2.35.54-.69,1.21-.79,2.05-.89,1.18-.14,1.71.6,2.4,1.23.67.61,1.27,1.22.97,2.06Z"/>
        <path d="M385.29,157.78c.07,1.61-1.67,3.42-3.32,3.46-1.51.03-3.27-1.6-3.4-3.14-.13-1.59,1.56-3.48,3.2-3.58,1.61-.1,3.45,1.6,3.52,3.26Z"/>
        <path d="M446.73,194.84c-1.83-.04-3.43-2.06-3.37-3.42.07-1.66,1.87-3.38,3.49-3.3,1.56.08,3.17,1.75,3.25,3.3.06,1.35-1.53,3.38-3.37,3.42Z"/>
        <path d="M283.01,246.2c-1.65-.04-3.39-1.85-3.32-3.46.07-1.66,1.92-3.44,3.52-3.24,1.7.22,3.03,1.5,3.2,3.32.12,1.3-1.51,3.38-3.39,3.38Z"/>
        <path d="M414.59,183.32c-1.31.07-3.39-1.53-3.38-3.4.01-1.54,1.67-3.24,3.22-3.32,1.61-.09,3.44,1.62,3.5,3.28.06,1.61-1.7,3.42-3.34,3.44Z"/>
        <path d="M307.05,286.42c.07,1.61-1.67,3.42-3.32,3.46-1.51.03-3.27-1.6-3.4-3.14-.13-1.59,1.56-3.48,3.2-3.58,1.61-.1,3.45,1.6,3.52,3.26Z"/>
        <path d="M303.74,305.19c.71.7,1.92.36,2.39,1.31.36.73,1.04,1.7.81,2.21-.35.78-.14,1.96-1.2,2.38-.75.3-1.7,1-2.24.77-.78-.34-1.95-.17-2.37-1.24-.27-.69-.91-1.5-.73-2.03.28-.8.18-1.91,1.13-2.4.72-.37,1.48-.68,2.2-1Z"/>
        <path d="M354.04,341.75c.69-.72.28-1.94,1.25-2.42.73-.36,1.59-1.04,2.21-.87.79.21,1.9.2,2.38,1.15.36.72.62,1.5.93,2.25-.8.51-.28,1.59-1.07,2.23-.71.57-1.66.34-2.25.99-.63-.59-1.55-.37-2.26-.95-.85-.68-.4-1.81-1.19-2.38Z"/>
        <path d="M286.08,253.76c-.77.84-.41,2.05-1.37,2.53-.73.36-1.61,1.04-2.21.86-.79-.24-1.91-.21-2.38-1.16-.36-.73-.61-1.5-.91-2.26.8-.51.29-1.58,1.09-2.22.71-.58,1.67-.3,2.25-.98.67.65,1.71.37,2.44,1.13.67.7.05,1.78,1.1,2.11Z"/>
        <path d="M371.4,160.81c-.72-.69-1.94-.28-2.42-1.25-.36-.73-1.04-1.59-.87-2.21.21-.79.2-1.9,1.15-2.38.72-.36,1.5-.62,2.25-.93.51.8,1.59.28,2.23,1.07.57.71.34,1.66.99,2.25-.59.63-.37,1.55-.95,2.26-.68.85-1.81.4-2.38,1.19Z"/>
        <path d="M439.57,180.46c-.67.72-.32,1.92-1.28,2.4-.73.36-1.63,1.03-2.21.84-.79-.25-1.91-.23-2.37-1.18-.36-.73-.6-1.51-.9-2.26.77-.52.32-1.58,1.1-2.21.71-.58,1.67-.3,2.26-.97.65.68,1.89.2,2.38,1.19.36.73.69,1.47,1.02,2.19Z"/>
        <path d="M317.66,319.68c-.69.71-.34,1.92-1.3,2.4-.73.36-1.65,1.03-2.22.83-.79-.29-1.92-.21-2.37-1.19-.34-.74-.59-1.51-.88-2.27.76-.59.23-1.92,1.33-2.33.69-.26,1.52-.94,2.02-.74.8.31,1.92.15,2.41,1.12.37.73.69,1.48,1.01,2.19Z"/>
        <path d="M392.97,342.58c-.32.74-.47,1.66-1.01,2.19-.59.6-1.51,1.12-2.32,1.18-.71.05-1.62-.43-2.18-.95-.57-.53-1.1-1.38-1.13-2.11-.04-.73.41-1.63.92-2.2.56-.62,1.42-1.21,2.21-1.3.7-.08,1.64.4,2.19.92.61.58.89,1.49,1.32,2.26Z"/>
        <path d="M446.14,209.71c.74.32,1.64.48,2.19,1.01.6.59,1.14,1.49,1.2,2.3.06.71-.4,1.65-.94,2.18-.6.59-1.53,1.1-2.35,1.15-.72.04-1.61-.45-2.17-.98-.56-.53-1.07-1.39-1.11-2.13-.03-.73.4-1.64.93-2.2.57-.61,1.48-.91,2.25-1.35Z"/>
        <path d="M335.93,322.52c-1.65.28-3.07-1.01-2.99-2.74.09-2.11.77-2.89,2.7-3.05,1.75-.14,3.23.93,3.11,2.88-.12,2.02-.85,2.88-2.82,2.9Z"/>
        <path d="M347.06,290.36c-.9.26-1.29-.55-1.91-.99-.81-.57-.55-1.37-.68-2.12-.16-.97.57-1.37,1.01-1.99.58-.8,1.37-.55,2.13-.68.97-.16,1.37.57,1.99,1.01.8.58.55,1.37.68,2.13.16.97-.57,1.37-1.01,1.99-.58.8-1.36.64-2.2.66Z"/>
        <path d="M412.72,280.76c-1.77.01-2.94-1.1-2.95-2.81-.01-1.77,1.1-2.94,2.81-2.95,1.77-.01,2.94,1.1,2.95,2.81.01,1.77-1.1,2.94-2.81,2.95Z"/>
        <path d="M403.04,209.72c1.75,0,2.88,1.13,2.88,2.88,0,1.75-1.13,2.88-2.88,2.88s-2.88-1.13-2.88-2.88c0-1.75,1.13-2.88,2.88-2.88Z"/>
        <path d="M413.58,220.76c1.76,0,2.91,1.12,2.91,2.85,0,1.76-1.12,2.91-2.85,2.91-1.76,0-2.91-1.12-2.91-2.85,0-1.76,1.12-2.91,2.85-2.91Z"/>
        <path d="M444.8,292.28c-1.74,0-2.87-1.13-2.87-2.89,0-1.74,1.13-2.87,2.89-2.87,1.74,0,2.87,1.13,2.87,2.89,0,1.74-1.13,2.87-2.89,2.87Z"/>
        <path d="M470.25,267.73c.01,1.77-1.1,2.94-2.81,2.95-1.77.01-2.94-1.1-2.95-2.81-.01-1.77,1.1-2.94,2.81-2.95,1.77-.01,2.94,1.1,2.95,2.81Z"/>
        <path d="M316.68,175.64c1.73,0,2.85,1.15,2.85,2.91,0,1.73-1.15,2.85-2.91,2.85-1.73,0-2.85-1.15-2.85-2.91,0-1.73,1.15-2.85,2.91-2.85Z"/>
        <path d="M336.88,273.56c1.71.01,2.82,1.18,2.81,2.95-.01,1.71-1.18,2.82-2.95,2.81-1.71-.01-2.82-1.18-2.81-2.95.01-1.71,1.18-2.82,2.95-2.81Z"/>
        <path d="M411.79,318.2c1.69.02,2.79,1.21,2.77,2.99-.02,1.69-1.21,2.79-2.99,2.77-1.69-.02-2.79-1.21-2.77-2.99.02-1.69,1.21-2.79,2.99-2.77Z"/>
        <path d="M401.54,291.32c-1.71-.01-2.82-1.18-2.81-2.95.01-1.71,1.18-2.82,2.95-2.81,1.71.01,2.82,1.18,2.81,2.95-.01,1.71-1.18,2.82-2.95,2.81Z"/>
        <path d="M467.85,232.28c1.75,0,2.88,1.13,2.88,2.88s-1.13,2.88-2.88,2.88-2.88-1.13-2.88-2.88,1.13-2.88,2.88-2.88Z"/>
        <path d="M305.54,191.96c-1.71-.01-2.82-1.18-2.81-2.95.01-1.71,1.18-2.82,2.95-2.81,1.71.01,2.82,1.18,2.81,2.95-.01,1.71-1.18,2.82-2.95,2.81Z"/>
        <path d="M285.45,264.33c-.04,1.7-1.17,2.87-2.78,2.95-1.69.09-2.87-1.14-2.95-2.75-.09-1.69,1.14-2.87,2.75-2.95,1.69-.09,2.76,1.14,2.98,2.75Z"/>
        <path d="M340.65,222.09c-.04,1.7-1.17,2.87-2.78,2.95-1.69.09-2.87-1.14-2.95-2.75-.09-1.69,1.14-2.87,2.75-2.95,1.69-.09,2.76,1.14,2.98,2.75Z"/>
        <path d="M363.21,157.47c-.16,1.37-1.04,2.81-2.95,2.78-1.37-.02-2.81-1.02-2.78-2.92.02-1.37,1.02-2.81,2.92-2.78,1.37.02,2.74,1.02,2.81,2.92Z"/>
        <path d="M392.86,155c1.7.04,2.87,1.17,2.95,2.78.09,1.69-1.14,2.87-2.75,2.95-1.69.09-2.87-1.14-2.95-2.75-.09-1.69,1.14-2.76,2.75-2.98Z"/>
        <path d="M351.69,211.63c-.03,1.62-1.45,2.89-2.88,2.88-1.62,0-2.89-1.44-2.88-2.87,0-1.62,1.44-2.89,2.87-2.88,1.62,0,2.87,1.44,2.88,2.87Z"/>
        <path d="M285.93,231.82c-.03,1.01-2.03,2.94-2.96,2.86-1.05-.09-2.91-2.11-2.8-3.02.12-.94,1.93-2.69,2.84-2.74.95-.06,2.95,1.93,2.92,2.9Z"/>
        <path d="M371.87,298.37c-.1,1.14-1.89,3.05-2.8,2.99-.55-.03-1.13-.4-1.59-.75-1.62-1.25-1.63-2.81-.07-4.14,1.08-.91,2.1-.95,3.12.05.58.57.97,1.32,1.34,1.85Z"/>
        <path d="M423.69,259.16c-.99,0-2.95-2-2.88-2.94.08-1.04,2.08-2.92,3-2.82.94.11,2.69,1.9,2.76,2.82.07.94-1.89,2.94-2.88,2.94Z"/>
        <path d="M421.29,245.22c.03-1.01,2.03-2.94,2.96-2.86,1.05.09,2.92,2.11,2.8,3.02-.12.94-1.93,2.69-2.84,2.74-.95.06-2.95-1.93-2.92-2.9Z"/>
        <path d="M422.68,329.25c.41.18.94.31,1.36.59,1.77,1.2,1.79,3.18.09,4.48-.95.72-1.84.72-2.79,0-1.7-1.29-1.67-3.27.09-4.48.36-.25.8-.38,1.26-.59Z"/>
        <path d="M382.43,298.85c-.1,1.14-1.89,3.05-2.8,2.99-.55-.03-1.13-.4-1.59-.75-1.62-1.25-1.63-2.81-.07-4.14,1.08-.91,2.1-.95,3.12.05.58.57.97,1.32,1.34,1.85Z"/>
        <path d="M455.93,302.84c-1.77.01-2.46-.61-2.48-2.26-.02-1.78.61-2.51,2.2-2.54,1.93-.03,2.6.57,2.6,2.38,0,1.73-.64,2.41-2.32,2.42Z"/>
        <path d="M370.41,203.48c-1.72,0-2.39-.66-2.4-2.34-.01-1.84.64-2.48,2.52-2.46,1.66.02,2.29.7,2.28,2.46,0,1.68-.68,2.34-2.4,2.34Z"/>
        <path d="M381.43,203.48c-1.7,0-2.37-.67-2.38-2.36,0-1.74.64-2.42,2.3-2.44,1.86-.02,2.51.63,2.5,2.48-.01,1.67-.69,2.32-2.42,2.32Z"/>
        <path d="M328.65,243.75c0,1.75-.63,2.43-2.29,2.45-1.87.02-2.52-.63-2.51-2.47.01-1.68.68-2.33,2.41-2.33,1.71,0,2.38.66,2.39,2.35Z"/>
        <path d="M459.69,202.51c0,1.72-.65,2.4-2.33,2.41-1.84.01-2.49-.64-2.47-2.51.02-1.66.7-2.3,2.45-2.29,1.69,0,2.35.68,2.35,2.39Z"/>
        <path d="M326.26,256.76c-1.73,0-2.4-.65-2.41-2.33-.01-1.85.64-2.49,2.51-2.47,1.66.02,2.3.7,2.29,2.45,0,1.69-.68,2.35-2.39,2.35Z"/>
        <path d="M316.22,202.52c-1.26.03-2.42-1.02-2.45-2.29-.03-1.48.83-2.34,2.22-2.5,1.41-.16,2.57.97,2.57,2.39,0,1.31-1.03,2.36-2.35,2.39Z"/>
        <path d="M327.21,330.78c-.05,1.04-1.47,2.34-2.51,2.29-1.04-.05-2.34-1.47-2.29-2.51.05-1.04,1.47-2.34,2.51-2.29,1.04.05,2.34,1.47,2.29,2.51Z"/>
        <path d="M423.79,269.24c-1.04.05-2.46-1.26-2.51-2.29-.05-1.04,1.26-2.46,2.29-2.51,1.04-.05,2.46,1.26,2.51,2.29.05,1.04-1.26,2.46-2.29,2.51Z"/>
        <path d="M425.54,171.8c-1.05-.03-2.36-1.42-2.33-2.47.03-1.05,1.42-2.36,2.47-2.33,1.05.03,2.36,1.42,2.33,2.47-.03,1.05-1.42,2.36-2.47,2.33Z"/>
        <path d="M329.61,189.56c0,1.04-1.36,2.4-2.4,2.4-1.04,0-2.4-1.36-2.4-2.4,0-1.04,1.36-2.4,2.4-2.4,1.04,0,2.4,1.36,2.4,2.4Z"/>
        <path d="M392.97,299c0,1.04-1.36,2.4-2.4,2.4-1.04,0-2.4-1.36-2.4-2.4,0-1.04,1.36-2.4,2.4-2.4,1.04,0,2.4,1.36,2.4,2.4Z"/>
        <path d="M357.93,300.92c-1.04,0-2.4-1.36-2.4-2.4,0-1.04,1.36-2.4,2.4-2.4,1.04,0,2.4,1.36,2.4,2.4,0,1.04-1.36,2.4-2.4,2.4Z"/>
        <path d="M424.14,237.08c-1.04-.01-2.38-1.39-2.37-2.43.01-1.04,1.39-2.38,2.43-2.37,1.04.01,2.38,1.39,2.37,2.43-.01,1.04-1.39,2.38-2.43,2.37Z"/>
        <path d="M470.25,224.56c.04.75-1.56,2.39-2.36,2.44-.75.04-2.39-1.56-2.44-2.36-.04-.75,1.56-2.39,2.36-2.44.75-.04,2.39,1.56,2.44,2.36Z"/>
        <path d="M325.67,263c.75-.07,2.42,1.46,2.5,2.3.07.75-1.46,2.42-2.3,2.5-.75.07-2.42-1.46-2.5-2.3-.08-.75,1.46-2.42,2.3-2.5Z"/>
        <path d="M329.13,232.83c-.06.84-1.71,2.39-2.47,2.33-.84-.07-2.39-1.71-2.33-2.47.06-.84,1.71-2.39,2.47-2.33.84.07,2.39,1.71,2.33,2.47Z"/>
        <path d="M394.89,201.52c.04.75-1.56,2.39-2.36,2.44-.75.04-2.39-1.56-2.44-2.36-.04-.75,1.56-2.39,2.36-2.44.75-.04,2.39,1.56,2.44,2.36Z"/>
        <path d="M400.58,340.28c.76-.06,2.4,1.49,2.47,2.33.06.76-1.49,2.4-2.33,2.47-.76.06-2.4-1.49-2.47-2.33-.06-.76,1.49-2.4,2.33-2.47Z"/>
        <path d="M427.53,191.07c-.06.84-1.71,2.39-2.47,2.33-.84-.07-2.39-1.71-2.33-2.47.06-.84,1.71-2.39,2.47-2.33.84.06,2.39,1.71,2.33,2.47Z"/>
        <path d="M469.29,278.84c0,.76-1.64,2.4-2.4,2.4-.76,0-2.4-1.64-2.4-2.4,0-.76,1.64-2.4,2.4-2.4.76,0,2.4,1.64,2.4,2.4Z"/>
        <path d="M292.72,295.16c.84.07,2.39,1.71,2.33,2.47-.07.84-1.71,2.39-2.47,2.33-.84-.06-2.39-1.71-2.33-2.47.06-.84,1.71-2.39,2.47-2.33Z"/>
        <path d="M296.49,199.76c-.02,1.65-.19,1.81-1.98,1.8-1.71-.01-1.89-.23-1.86-2.16.03-1.49.3-1.7,2.1-1.68,1.6.02,1.76.21,1.74,2.04Z"/>
        <path d="M433.77,201.92c.02-1.65.19-1.81,1.98-1.8,1.71.01,1.89.23,1.86,2.16-.03,1.49-.3,1.71-2.1,1.68-1.6-.02-1.76-.21-1.74-2.04Z"/>
        <path d="M359.85,202.52q-1.91,0-1.92-1.86c-.01-1.85.14-2,2.04-1.98,1.65.02,1.81.19,1.8,1.98q-.01,1.86-1.92,1.86Z"/>
        <path d="M346.29,343.64c-1.65-.02-1.81-.19-1.8-1.98.01-1.71.23-1.89,2.16-1.86,1.49.03,1.71.3,1.68,2.1-.02,1.6-.21,1.76-2.04,1.74Z"/>
        <path d="M413.54,210.68c1.02-.03,1.93.79,1.99,1.79.06,1.17-.8,2.07-1.97,2.05-.99-.02-1.87-.92-1.87-1.91,0-1.01.86-1.9,1.85-1.93Z"/>
        <path d="M284.49,275.42c.02,1.02-.81,1.93-1.8,1.98-1.15.05-2.06-.84-2.04-1.98.02-.99.92-1.86,1.92-1.86,1,0,1.9.87,1.92,1.86Z"/>
        <path d="M325.35,306.68c.99.02,1.85.92,1.85,1.93,0,1-.88,1.9-1.87,1.91-1.14.02-2.03-.9-1.97-2.04.05-1,.96-1.82,1.99-1.8Z"/>
        <path d="M414.57,288.43c0,1.01-.86,1.9-1.85,1.93-1.15.03-2.04-.88-1.99-2.03.04-.99.95-1.83,1.97-1.81.99.02,1.87.92,1.87,1.91Z"/>
        <path d="M316.65,297.44c.05,1.01-.77,1.96-1.75,2.04-1.12.09-2.09-.81-2.09-1.92,0-1,.87-1.9,1.86-1.92,1.02-.02,1.93.81,1.98,1.8Z"/>
        <path d="M424.65,310.48c.01,1.01-.83,1.92-1.82,1.96-1.15.04-2.05-.85-2.02-2,.03-.99.93-1.84,1.94-1.84.99,0,1.89.9,1.9,1.88Z"/>
        <path d="M435.69,299.95c0,1.01-.86,1.9-1.86,1.92-1.15.03-2.04-.89-1.98-2.04.05-.99.96-1.83,1.98-1.8.99.02,1.86.92,1.86,1.92Z"/>
        <path d="M327.63,165.56c1.02-.02,1.93.8,1.98,1.8.06,1.15-.83,2.06-1.98,2.04-.99-.02-1.86-.92-1.86-1.92,0-1.01.86-1.9,1.86-1.92Z"/>
        <path d="M336.42,285.56c.99.04,1.84.94,1.82,1.96-.01.99-.91,1.88-1.9,1.88-1.12,0-2.02-.95-1.94-2.08.07-.99.99-1.8,2.02-1.76Z"/>
        <path d="M349.17,177.08c.52-.05,1.95,1.18,2.04,1.75.09.59-1.3,2.16-1.92,2.07-.42-.06-.91-.21-1.19-.5-.34-.35-.57-.86-.71-1.35-.13-.48,1.25-1.92,1.78-1.97Z"/>
        <path d="M337.8,213.08c-.46-.19-.97-.25-1.24-.54-.34-.35-.58-.87-.69-1.35-.13-.6,1.44-2.02,2.04-1.95.55.07,1.81,1.49,1.77,2.01-.04.53-1.44,1.85-1.89,1.83Z"/>
        <path d="M405.93,157.92c-.23.46-.38.99-.72,1.34-.28.29-.77.45-1.19.51-.61.09-2.01-1.48-1.93-2.06.08-.56,1.51-1.8,2.03-1.75.52.05,1.84,1.47,1.81,1.97Z"/>
        <path d="M306.09,275.97c0,.46-1.35,1.88-1.85,1.91-.65.04-2.05-1.38-1.99-2.03.05-.52,1.49-1.92,1.96-1.79.48.13,1,.36,1.35.7.29.28.36.78.53,1.21Z"/>
        <path d="M305.07,219.8c.51-.03,1.92,1.25,1.97,1.8.05.51-1.17,1.95-1.74,2.04-.6.09-2.16-1.29-2.08-1.91.05-.42.21-.91.5-1.19.35-.34.89-.49,1.35-.73Z"/>
        <path d="M403.88,182.09c-.47-.26-.69-.34-.85-.48-.35-.32-.66-.69-1.02-1-.57-.47-.52-.88.02-1.33.3-.25.59-.53.84-.84.47-.57.88-.52,1.33.02.25.3.53.59.84.84.57.47.49.85-.01,1.34-.44.43-.78.98-1.15,1.45Z"/>
        <path d="M328.17,221.76c-.02.99-.42,1.39-1.42,1.4-1.11,0-1.53-.45-1.46-1.6.06-.93.52-1.32,1.54-1.28.96.04,1.36.47,1.34,1.48Z"/>
        <path d="M348.33,320.06c.02,1.02-.36,1.46-1.32,1.5-1.02.05-1.5-.34-1.56-1.26-.08-1.15.34-1.62,1.44-1.62,1,0,1.42.4,1.44,1.38Z"/>
        <path d="M402.57,321.02c.02,1.02-.36,1.46-1.32,1.5-1.02.05-1.5-.34-1.56-1.26-.08-1.15.34-1.62,1.44-1.62,1,0,1.42.4,1.44,1.38Z"/>
        <path d="M446.33,222.68c.98.03,1.37.45,1.36,1.46,0,1.07-.51,1.5-1.64,1.42-.91-.07-1.29-.56-1.24-1.58.05-.98.47-1.33,1.52-1.3Z"/>
        <path d="M348.75,199.16c1.02-.02,1.46.36,1.5,1.32.05,1.02-.34,1.5-1.26,1.56-1.15.08-1.62-.34-1.62-1.44,0-1,.4-1.42,1.38-1.44Z"/>
        <path d="M283.01,222.68c-.99-.02-1.39-.42-1.4-1.42,0-1.11.45-1.53,1.6-1.46.93.06,1.32.52,1.28,1.54-.04.96-.47,1.36-1.48,1.34Z"/>
        <path d="M327.21,276.34c.04,1.02-.35,1.48-1.28,1.54-1.02.06-1.53-.33-1.6-1.22-.09-1.13.34-1.64,1.4-1.66,1.01-.02,1.44.38,1.48,1.34Z"/>
        <path d="M404.49,201.54c0,1.01-.38,1.43-1.36,1.46-1.17.04-1.56-.37-1.52-1.54.04-.96.47-1.36,1.48-1.34.99.02,1.39.42,1.4,1.42Z"/>
        <path d="M403.05,299.36c.05,1.02-.34,1.5-1.26,1.56-1.02.07-1.54-.32-1.62-1.2-.1-1.13.33-1.65,1.38-1.68,1.02-.02,1.46.36,1.5,1.32Z"/>
        <path d="M348.33,298.46c.02,1.02-.36,1.46-1.32,1.5-1.02.05-1.5-.34-1.56-1.26-.08-1.15.34-1.62,1.44-1.62,1,0,1.42.4,1.44,1.38Z"/>
        <path d="M445.29,279.8c-1,0-1.42-.4-1.44-1.38-.03-1.15.4-1.55,1.56-1.5.96.04,1.34.48,1.32,1.5-.02.98-.44,1.38-1.44,1.38Z"/>
        <path d="M423.57,276.44c1.02-.05,1.5.34,1.56,1.26.07,1.02-.32,1.54-1.2,1.62-1.13.1-1.66-.33-1.68-1.38-.02-1.02.36-1.46,1.32-1.5Z"/>
        <path d="M424.53,222.2c1.02-.05,1.5.34,1.56,1.26.07,1.02-.32,1.54-1.2,1.62-1.13.1-1.66-.33-1.68-1.38-.02-1.02.36-1.46,1.32-1.5Z"/>
        <path d="M349.75,155.48c1.01,0,1.43.38,1.46,1.36.04,1.17-.37,1.56-1.54,1.52-.96-.04-1.36-.47-1.34-1.48.02-.99.42-1.39,1.42-1.4Z"/>
        <path d="M372.14,190.01c-.51.42-.94,1-1.15.92-.42-.14-.71-.64-1.06-1,.33-.29.66-.78,1-.8.33-.01.69.47,1.21.88Z"/>
        <path d="M368.49,310.82c-.42-.53-.78-.83-.93-1.22-.15-.38.7-1.18,1.04-.98.36.21.79.65.8.99,0,.33-.48.68-.9,1.2Z"/>
        <path d="M380.71,309.44c-.4.43-.66.83-1.02,1.05-.32.21-1.24-.56-1.09-.93.15-.38.54-.87.87-.91.33-.04.72.43,1.24.78Z"/>
        <path d="M468.12,289.34c-.46.43-.74.81-1.12.99-.36.18-1.21-.62-1.04-.98.18-.37.59-.83.93-.85.33-.02.7.46,1.22.84Z"/>
        <path d="M412.92,342.62c-.46.43-.74.81-1.12.99-.36.18-1.21-.62-1.04-.98.18-.37.59-.83.93-.85.33-.02.7.46,1.22.84Z"/>
        <path d="M381.54,191.71c-.43-.42-.82-.68-1.03-1.05-.2-.33.58-1.23.94-1.07.38.16.86.56.89.89.03.33-.44.71-.8,1.23Z"/>
        <path d="M434.61,244.53c.43.4.83.66,1.05,1.02.21.32-.56,1.24-.93,1.09-.38-.15-.87-.54-.91-.87-.04-.33.43-.72.78-1.24Z"/>
        <path d="M315.69,244.58c-.42-.53-.78-.83-.93-1.22-.15-.39.7-1.18,1.04-.98.36.21.79.65.8.99,0,.33-.48.68-.9,1.2Z"/>
        <path d="M434.73,257.54c-.42-.53-.78-.83-.93-1.22-.15-.39.7-1.18,1.04-.98.36.21.79.65.8.99,0,.33-.48.68-.9,1.2Z"/>
        <path d="M316.41,254.26c-.42.43-.68.82-1.05,1.03-.33.2-1.23-.58-1.07-.94.16-.38.56-.86.89-.89.33-.03.71.44,1.23.8Z"/>
        <path d="M305.88,232.22c-.46.43-.74.81-1.12.99-.36.18-1.21-.62-1.04-.98.18-.37.59-.83.93-.85.33-.02.7.46,1.22.84Z"/>
        <path d="M444.42,322.75c-.43-.42-.82-.68-1.03-1.05-.2-.33.58-1.23.94-1.07.38.16.86.56.89.89.03.33-.44.71-.8,1.23Z"/>
        <path d="M358.66,309.48c-.34.26-.52.47-.74.53-.12.03-.31-.22-.47-.34.16-.2.29-.45.5-.57.09-.05.33.17.71.38Z"/>
        <path d="M391.3,310.14c-.4.18-.62.35-.85.35-.12,0-.38-.38-.35-.43.14-.2.35-.39.58-.48.08-.03.28.24.61.56Z"/>
        <path d="M455.44,310.27c.21.38.43.62.38.71-.12.21-.37.34-.57.5-.12-.16-.37-.35-.34-.47.05-.22.27-.4.53-.74Z"/>
        <path d="M435.94,234.6c-.34.26-.52.47-.74.53-.12.03-.31-.22-.47-.34.16-.2.29-.45.5-.57.09-.05.33.17.71.38Z"/>
        <path d="M338.98,189.46c-.33.31-.53.59-.61.56-.23-.08-.43-.28-.58-.48-.03-.05.22-.43.35-.43.23,0,.45.17.85.35Z"/>
        <path d="M393.22,179.58c-.4.18-.62.35-.85.35-.12,0-.38-.38-.35-.43.14-.2.35-.39.58-.48.08-.03.28.24.61.56Z"/>
        <path d="M305.51,178.77c-.18-.4-.35-.62-.35-.85,0-.12.38-.38.43-.35.2.14.39.35.48.58.03.08-.24.28-.56.61Z"/>
        <path d="M415.3,158.46c-.4.18-.62.35-.85.35-.12,0-.38-.38-.35-.43.14-.2.35-.39.58-.48.08-.03.28.24.61.56Z"/>
        <path d="M338.8,157.65c-.26-.34-.47-.52-.53-.74-.03-.12.22-.31.34-.47.2.16.45.29.57.5.05.09-.17.33-.38.71Z"/>
        <path d="M303.11,318.42c.31.33.59.53.56.61-.08.23-.28.44-.48.58-.05.03-.43-.22-.43-.35,0-.23.17-.45.35-.85Z"/>
        <path d="M315.94,265.47c-.38.21-.62.43-.71.38-.21-.12-.34-.37-.5-.57.16-.12.35-.37.47-.34.22.05.4.27.74.53Z"/>
        <path d="M357.35,320.85c-.18-.4-.35-.62-.35-.85,0-.12.38-.38.43-.35.2.14.39.35.48.58.03.08-.24.28-.56.61Z"/>
        <path d="M337.06,298.11c-.38.21-.62.43-.71.38-.21-.12-.34-.37-.5-.57.16-.12.35-.37.47-.34.22.05.4.27.74.53Z"/>
        <path d="M282.82,286.44c-.34.26-.52.47-.74.53-.12.03-.31-.22-.47-.34.16-.2.29-.45.5-.57.09-.05.33.17.71.38Z"/>
        <path d="M325.67,286.26c.31.33.59.53.56.61-.08.23-.28.44-.48.58-.05.03-.43-.22-.43-.35,0-.23.17-.45.35-.85Z"/>
        <path d="M284.26,210.12c-.34.26-.52.47-.74.53-.12.03-.31-.22-.47-.34.16-.2.29-.45.5-.57.09-.05.33.17.71.38Z"/>
        <path d="M412.9,299.55c-.38.21-.62.43-.71.38-.21-.12-.34-.37-.5-.57.16-.12.35-.37.47-.34.22.05.4.27.74.53Z"/>
        <path d="M315.59,233.49c-.18-.4-.35-.62-.35-.85,0-.12.38-.38.43-.35.2.14.39.35.48.58.03.08-.24.28-.56.61Z"/>
        <path d="M446.5,234.75c-.38.21-.62.43-.71.38-.21-.12-.34-.37-.5-.57.16-.12.35-.37.47-.34.22.05.4.27.74.53Z"/>
        <path d="M424.55,211.86c.31.33.59.53.56.61-.08.23-.28.43-.48.58-.05.03-.43-.22-.43-.35,0-.23.17-.45.35-.85Z"/>
        <path d="M304.24,265.65c-.26-.34-.47-.52-.53-.74-.03-.12.22-.31.34-.47.2.16.45.29.57.5.05.09-.17.33-.38.71Z"/>
        <path d="M414.82,201.66c-.4.18-.62.35-.85.35-.12,0-.38-.38-.35-.43.14-.2.35-.39.58-.48.08-.03.28.24.61.56Z"/>
        <path d="M327.46,211.06c-.33.31-.53.59-.61.56-.23-.08-.44-.28-.58-.48-.03-.05.22-.43.35-.43.23,0,.45.17.85.35Z"/>
        <path d="M338.5,200.5c-.33.31-.53.59-.61.56-.23-.08-.43-.28-.58-.48-.03-.05.22-.43.35-.43.23,0,.45.17.85.35Z"/>
        <path d="M313.67,330.93c-.18-.4-.35-.62-.35-.85,0-.12.38-.38.43-.35.2.14.39.35.48.58.03.08-.24.28-.56.61Z"/>
        <path d="M433.36,331.87c.21.38.43.62.38.71-.12.21-.37.34-.57.5-.12-.16-.37-.35-.34-.47.05-.22.27-.4.53-.74Z"/>
        <path d="M293.38,308.22c-.4.18-.62.35-.85.35-.12,0-.38-.38-.35-.43.14-.2.35-.39.58-.48.08-.03.28.24.61.56Z"/>
        <path d="M316.24,209.95c.21.38.43.62.38.71-.12.21-.37.34-.57.5-.12-.16-.37-.35-.34-.47.05-.22.27-.4.53-.74Z"/>
        <path d="M434.63,268.05c-.18-.4-.35-.62-.35-.85,0-.12.38-.38.43-.35.2.14.39.35.48.58.03.08-.24.28-.56.61Z"/>
        <path d="M457.84,192.21c-.26-.34-.47-.52-.53-.74-.03-.12.22-.31.34-.47.2.16.45.29.57.5.05.09-.17.33-.38.71Z"/>
        <path d="M393.22,190.62c-.4.18-.62.35-.85.35-.12,0-.38-.38-.35-.43.14-.2.35-.39.58-.48.08-.03.28.24.61.56Z"/>
        <path d="M360.58,190.11c-.38.21-.62.43-.71.38-.21-.12-.34-.37-.5-.57.16-.12.35-.37.47-.34.22.05.4.27.74.53Z"/>
        <path d="M336.1,341.82c-.4.18-.62.35-.85.35-.12,0-.38-.38-.35-.43.14-.2.35-.39.58-.48.08-.03.28.24.61.56Z"/>
        <path d="M423.11,288.18c.31.33.59.53.56.61-.08.23-.28.44-.48.58-.05.03-.43-.22-.43-.35,0-.23.17-.45.35-.85Z"/>
      </g>
    </g>
  </g>
</svg>