<svg width="72" height="41" viewBox="0 0 72 41" fill="none" xmlns="http://www.w3.org/2000/svg">
<g opacity="0.8" clip-path="url(#clip0_35_225)">
<path d="M1.3425 36.5298L0.51552 39.0537L0.2148 38.9463L2.67426 31.482H3.31866L5.77812 38.9463L5.4774 39.0537L4.65042 36.5298H1.3425ZM1.4499 36.2076H4.54302L3.09312 31.8042H2.8998L1.4499 36.2076ZM12.5939 39L8.35161 31.8472V39H8.02941V31.482H8.51271L12.755 38.6348V31.482H13.0772V39H12.5939ZM16.459 36.5298L15.6321 39.0537L15.3313 38.9463L17.7908 31.482H18.4352L20.8947 38.9463L20.5939 39.0537L19.767 36.5298H16.459ZM16.5664 36.2076H19.6596L18.2097 31.8042H18.0163L16.5664 36.2076ZM23.146 39V31.482H23.4682V38.6778H27.6353V39H23.146ZM30.5076 36.1002L27.8548 31.5894L28.134 31.4283L30.6687 35.735L33.2033 31.4283L33.4825 31.5894L30.8298 36.1002V39H30.5076V36.1002ZM39.0396 31.8042H36.1075L35.3128 32.599V33.6193L35.4954 33.9844L39.7377 36.0035L40.0169 36.5298V38.0119L39.0181 39H35.9357L35.0658 38.71L35.1624 38.4093L35.9679 38.6778H38.8892L39.6947 37.883V36.6157L39.5014 36.2506L35.2376 34.21L34.9906 33.7052V32.4701L35.9787 31.482H39.1147L39.9417 31.7612L39.8451 32.062L39.0396 31.8042ZM45.0871 39H41.8436V38.6778H43.3043V31.8042H41.8436V31.482H45.0871V31.8042H43.6265V38.6778H45.0871V39ZM50.9677 31.8042H48.0357L47.2409 32.599V33.6193L47.4235 33.9844L51.6658 36.0035L51.945 36.5298V38.0119L50.9462 39H47.8638L46.9939 38.71L47.0905 38.4093L47.896 38.6778H50.8173L51.6228 37.883V36.6157L51.4295 36.2506L47.1657 34.21L46.9187 33.7052V32.4701L47.9068 31.482H51.0429L51.8698 31.7612L51.7732 32.062L50.9677 31.8042Z" fill="black"/>
<path d="M60.1221 31.482H63.226L64.4396 32.5882V37.8938L63.226 39H60.1221L58.9085 37.8938V32.5882L60.1221 31.482ZM63.7415 32.8782L62.9682 32.1801H60.3799L59.6066 32.8782V37.6038L60.3799 38.3019H62.9682L63.7415 37.6038V32.8782ZM70.3681 32.1801H67.9731L67.2857 32.8675V33.6407L67.4146 33.9092L71.238 35.7673L71.571 36.3902V37.9045L70.4755 39H67.6938L66.6091 38.6348L66.8346 37.9797L67.769 38.3019H70.1855L70.8729 37.6145V36.5942L70.7225 36.315L66.8776 34.4462L66.5876 33.8448V32.5775L67.6831 31.482H70.497L71.5495 31.8364L71.3347 32.4808L70.3681 32.1801Z" fill="black"/>
</g>
<rect y="11" width="72" height="8" fill="black"/>
<path d="M3.62248 15.7901L3.97744 15.6961C3.99484 15.8597 4.06444 15.9902 4.18624 16.0876C4.30804 16.1816 4.4716 16.2286 4.67692 16.2286C5.07016 16.2286 5.26678 16.0667 5.26678 15.7431C5.26678 15.7013 5.26156 15.6631 5.25112 15.6283C5.24416 15.59 5.23546 15.5587 5.22502 15.5343C5.21458 15.5065 5.19544 15.4786 5.1676 15.4508C5.14324 15.4229 5.12236 15.4003 5.10496 15.3829C5.08756 15.3655 5.05798 15.3481 5.01622 15.3307C4.97794 15.3098 4.94836 15.2942 4.92748 15.2837C4.9066 15.2733 4.86832 15.2594 4.81264 15.242C4.76044 15.2246 4.7239 15.2124 4.70302 15.2054C4.68214 15.1985 4.63864 15.1863 4.57252 15.1689C4.50988 15.1515 4.46812 15.1393 4.44724 15.1324C4.33936 15.0976 4.25062 15.0645 4.18102 15.0332C4.11142 15.0019 4.03312 14.9566 3.94612 14.8975C3.85912 14.8348 3.793 14.7548 3.74776 14.6573C3.70252 14.5564 3.6799 14.4398 3.6799 14.3076C3.6799 14.0536 3.76342 13.8604 3.93046 13.7282C4.0975 13.5925 4.33066 13.5246 4.62994 13.5246C5.20762 13.5246 5.54344 13.7612 5.6374 14.2345L5.29288 14.3285C5.22676 14.0083 5.01448 13.8482 4.65604 13.8482C4.4716 13.8482 4.32892 13.8865 4.228 13.9631C4.12708 14.0396 4.07662 14.151 4.07662 14.2972C4.07662 14.3807 4.09228 14.452 4.1236 14.5112C4.15492 14.5669 4.20886 14.6173 4.28542 14.6626C4.36198 14.7043 4.43158 14.7374 4.49422 14.7617C4.56034 14.7826 4.65952 14.8122 4.79176 14.8505C4.8892 14.8783 4.96576 14.9027 5.02144 14.9236C5.0806 14.9444 5.15542 14.9792 5.2459 15.028C5.33986 15.0767 5.41294 15.1289 5.46514 15.1846C5.51734 15.2402 5.56258 15.3168 5.60086 15.4142C5.64262 15.5117 5.6635 15.6196 5.6635 15.7379C5.6635 16.0093 5.57476 16.2146 5.39728 16.3538C5.22328 16.4896 4.98316 16.5574 4.67692 16.5574C4.50988 16.5574 4.3585 16.5383 4.22278 16.5C4.09054 16.4617 3.96352 16.3834 3.84172 16.2651C3.7234 16.1433 3.65032 15.985 3.62248 15.7901ZM7.88812 16.5H7.49662V15.3203L6.47872 13.5768H6.92242L7.32958 14.2763C7.38874 14.3772 7.4479 14.4833 7.50706 14.5947C7.5697 14.7026 7.61668 14.7861 7.648 14.8453L7.7002 14.934H7.71586L7.76284 14.8505C7.79764 14.7913 7.84462 14.7061 7.90378 14.5947C7.96642 14.4833 8.02732 14.3772 8.08648 14.2763L8.49364 13.5768H8.9008L7.88812 15.3203V16.5ZM12.1842 16.5H11.7718L10.3206 14.1928H10.3102V14.2136C10.3102 14.2276 10.3102 14.2467 10.3102 14.2711C10.3102 14.2954 10.3102 14.3233 10.3102 14.3546C10.3102 14.3859 10.3102 14.4224 10.3102 14.4642C10.3137 14.5025 10.3154 14.5442 10.3154 14.5895C10.3154 14.6312 10.3154 14.6782 10.3154 14.7304C10.3154 14.7791 10.3154 14.8261 10.3154 14.8714V16.5H9.93436V13.5768H10.3467L11.7927 15.8475H11.8031V15.8318C11.8031 15.8179 11.8031 15.8005 11.8031 15.7796C11.8031 15.7553 11.8031 15.7274 11.8031 15.6961C11.8031 15.6648 11.8014 15.63 11.7979 15.5917C11.7979 15.5534 11.7979 15.5152 11.7979 15.4769C11.7979 15.4351 11.7979 15.3916 11.7979 15.3464C11.7979 15.2977 11.7979 15.2507 11.7979 15.2054V13.5768H12.1842V16.5ZM15.5108 13.9474H14.5973V16.5H14.2058V13.9474H13.2923V13.5768H15.5108V13.9474ZM18.8008 16.5H18.4093V15.1793H17.0103V16.5H16.6188V13.5768H17.0103V14.8139H18.4093V13.5768H18.8008V16.5ZM20.1038 16.5V13.5768H21.9569V13.9474H20.4953V14.8087H21.6228V15.1689H20.4953V16.1294H21.9778V16.5H20.1038ZM22.9367 15.7901L23.2916 15.6961C23.309 15.8597 23.3786 15.9902 23.5004 16.0876C23.6222 16.1816 23.7858 16.2286 23.9911 16.2286C24.3844 16.2286 24.581 16.0667 24.581 15.7431C24.581 15.7013 24.5758 15.6631 24.5653 15.6283C24.5584 15.59 24.5497 15.5587 24.5392 15.5343C24.5288 15.5065 24.5096 15.4786 24.4818 15.4508C24.4574 15.4229 24.4366 15.4003 24.4192 15.3829C24.4018 15.3655 24.3722 15.3481 24.3304 15.3307C24.2921 15.3098 24.2626 15.2942 24.2417 15.2837C24.2208 15.2733 24.1825 15.2594 24.1268 15.242C24.0746 15.2246 24.0381 15.2124 24.0172 15.2054C23.9963 15.1985 23.9528 15.1863 23.8867 15.1689C23.8241 15.1515 23.7823 15.1393 23.7614 15.1324C23.6536 15.0976 23.5648 15.0645 23.4952 15.0332C23.4256 15.0019 23.3473 14.9566 23.2603 14.8975C23.1733 14.8348 23.1072 14.7548 23.062 14.6573C23.0167 14.5564 22.9941 14.4398 22.9941 14.3076C22.9941 14.0536 23.0776 13.8604 23.2447 13.7282C23.4117 13.5925 23.6449 13.5246 23.9441 13.5246C24.5218 13.5246 24.8576 13.7612 24.9516 14.2345L24.6071 14.3285C24.541 14.0083 24.3287 13.8482 23.9702 13.8482C23.7858 13.8482 23.6431 13.8865 23.5422 13.9631C23.4413 14.0396 23.3908 14.151 23.3908 14.2972C23.3908 14.3807 23.4065 14.452 23.4378 14.5112C23.4691 14.5669 23.5231 14.6173 23.5996 14.6626C23.6762 14.7043 23.7458 14.7374 23.8084 14.7617C23.8745 14.7826 23.9737 14.8122 24.106 14.8505C24.2034 14.8783 24.28 14.9027 24.3356 14.9236C24.3948 14.9444 24.4696 14.9792 24.5601 15.028C24.6541 15.0767 24.7271 15.1289 24.7793 15.1846C24.8315 15.2402 24.8768 15.3168 24.9151 15.4142C24.9568 15.5117 24.9777 15.6196 24.9777 15.7379C24.9777 16.0093 24.889 16.2146 24.7115 16.3538C24.5375 16.4896 24.2974 16.5574 23.9911 16.5574C23.8241 16.5574 23.6727 16.5383 23.537 16.5C23.4047 16.4617 23.2777 16.3834 23.1559 16.2651C23.0376 16.1433 22.9645 15.985 22.9367 15.7901ZM26.0848 16.5V13.5768H26.4763V16.5H26.0848ZM29.811 13.9631L28.5791 15.5343L28.0989 16.1242L28.1041 16.1346C28.198 16.1311 28.3198 16.1294 28.4695 16.1294H29.8162V16.5H27.6134V16.1137L28.9027 14.4903C28.9967 14.3685 29.0802 14.2624 29.1533 14.1719C29.2299 14.0814 29.2803 14.0222 29.3047 13.9944L29.336 13.9526L29.3256 13.9474H28.9706H27.6604V13.5768H29.811V13.9631ZM30.9544 16.5V13.5768H32.8075V13.9474H31.3459V14.8087H32.4735V15.1689H31.3459V16.1294H32.8284V16.5H30.9544ZM35.7579 16.5V13.5768H36.1494V16.5H35.7579ZM39.7034 16.5H39.291L37.8398 14.1928H37.8294V14.2136C37.8294 14.2276 37.8294 14.2467 37.8294 14.2711C37.8294 14.2954 37.8294 14.3233 37.8294 14.3546C37.8294 14.3859 37.8294 14.4224 37.8294 14.4642C37.8329 14.5025 37.8346 14.5442 37.8346 14.5895C37.8346 14.6312 37.8346 14.6782 37.8346 14.7304C37.8346 14.7791 37.8346 14.8261 37.8346 14.8714V16.5H37.4535V13.5768H37.8659L39.3119 15.8475H39.3223V15.8318C39.3223 15.8179 39.3223 15.8005 39.3223 15.7796C39.3223 15.7553 39.3223 15.7274 39.3223 15.6961C39.3223 15.6648 39.3206 15.63 39.3171 15.5917C39.3171 15.5534 39.3171 15.5152 39.3171 15.4769C39.3171 15.4351 39.3171 15.3916 39.3171 15.3464C39.3171 15.2977 39.3171 15.2507 39.3171 15.2054V13.5768H39.7034V16.5ZM42.8264 13.9474H41.4014V14.9027H42.461V15.2733H41.4014V16.5H41.0099V13.5768H42.8264V13.9474ZM44.0559 16.1503C43.8053 15.8753 43.68 15.5047 43.68 15.0384C43.68 14.5721 43.8053 14.2032 44.0559 13.9318C44.3064 13.6603 44.6335 13.5246 45.0372 13.5246C45.4374 13.5246 45.7628 13.6603 46.0134 13.9318C46.2674 14.2032 46.3944 14.5721 46.3944 15.0384C46.3944 15.5047 46.2674 15.8753 46.0134 16.1503C45.7628 16.4217 45.4374 16.5574 45.0372 16.5574C44.6335 16.5574 44.3064 16.4217 44.0559 16.1503ZM44.343 14.1928C44.169 14.3946 44.082 14.6765 44.082 15.0384C44.082 15.4003 44.169 15.6839 44.343 15.8893C44.517 16.0911 44.7484 16.192 45.0372 16.192C45.3226 16.192 45.5523 16.0911 45.7263 15.8893C45.9037 15.6839 45.9925 15.4003 45.9925 15.0384C45.9925 14.6765 45.9037 14.3946 45.7263 14.1928C45.5523 13.9874 45.3226 13.8848 45.0372 13.8848C44.7484 13.8848 44.517 13.9874 44.343 14.1928ZM49.0871 16.5L48.4659 15.3307C48.3963 15.3342 48.3024 15.3359 48.1841 15.3359H47.9022V16.5H47.5159V13.5768H48.3824C48.7165 13.5768 48.9758 13.6534 49.1602 13.8065C49.3446 13.9596 49.4369 14.1754 49.4369 14.4538C49.4369 14.6695 49.3829 14.847 49.275 14.9862C49.1672 15.1219 49.021 15.2107 48.8366 15.2524L49.5099 16.5H49.0871ZM47.9074 15.0175H48.3929C48.8279 15.0175 49.0454 14.8383 49.0454 14.4799C49.0454 14.1179 48.8244 13.937 48.3824 13.937H47.9074V15.0175ZM52.847 16.5V15.1167C52.847 15.061 52.847 15.0001 52.847 14.934C52.847 14.8679 52.847 14.8052 52.847 14.7461C52.847 14.6869 52.847 14.6278 52.847 14.5686C52.8505 14.506 52.8522 14.4503 52.8522 14.4016C52.8522 14.3528 52.8522 14.3093 52.8522 14.2711C52.8522 14.2328 52.8522 14.2032 52.8522 14.1823V14.1458H52.8418L52.064 15.7849H51.7873L51.02 14.1301H51.0096V14.1614C51.0096 14.1858 51.0096 14.2171 51.0096 14.2554C51.0096 14.2937 51.0096 14.3389 51.0096 14.3911C51.013 14.4398 51.0148 14.4938 51.0148 14.5529C51.0148 14.6121 51.0148 14.673 51.0148 14.7356C51.0148 14.7948 51.0148 14.8574 51.0148 14.9236C51.0148 14.9862 51.0148 15.0454 51.0148 15.101V16.5H50.6389V13.5768H51.1296L51.6621 14.6887C51.7143 14.8 51.7647 14.9079 51.8134 15.0123C51.8622 15.1132 51.8952 15.1846 51.9126 15.2263L51.9439 15.289H51.9596L51.9857 15.2263C52.0066 15.1846 52.0414 15.1115 52.0901 15.0071C52.1423 14.8992 52.1945 14.7913 52.2467 14.6834L52.7791 13.5768H53.2385V16.5H52.847ZM56.181 15.7379H54.9438L54.6828 16.5H54.2861L55.3197 13.5768H55.8104L56.8491 16.5H56.442L56.181 15.7379ZM56.0609 15.3934L55.8365 14.7304C55.659 14.2189 55.5702 13.9439 55.5702 13.9057H55.5546C55.5546 13.937 55.4606 14.2206 55.2727 14.7565L55.0587 15.3934H56.0609ZM59.471 13.9474H58.5575V16.5H58.166V13.9474H57.2525V13.5768H59.471V13.9474ZM60.579 16.5V13.5768H60.9705V16.5H60.579ZM62.4678 16.1503C62.2172 15.8753 62.0919 15.5047 62.0919 15.0384C62.0919 14.5721 62.2172 14.2032 62.4678 13.9318C62.7183 13.6603 63.0455 13.5246 63.4491 13.5246C63.8493 13.5246 64.1747 13.6603 64.4253 13.9318C64.6793 14.2032 64.8063 14.5721 64.8063 15.0384C64.8063 15.5047 64.6793 15.8753 64.4253 16.1503C64.1747 16.4217 63.8493 16.5574 63.4491 16.5574C63.0455 16.5574 62.7183 16.4217 62.4678 16.1503ZM62.7549 14.1928C62.5809 14.3946 62.4939 14.6765 62.4939 15.0384C62.4939 15.4003 62.5809 15.6839 62.7549 15.8893C62.9289 16.0911 63.1603 16.192 63.4491 16.192C63.7345 16.192 63.9642 16.0911 64.1382 15.8893C64.3157 15.6839 64.4044 15.4003 64.4044 15.0384C64.4044 14.6765 64.3157 14.3946 64.1382 14.1928C63.9642 13.9874 63.7345 13.8848 63.4491 13.8848C63.1603 13.8848 62.9289 13.9874 62.7549 14.1928ZM68.1776 16.5H67.7653L66.3141 14.1928H66.3037V14.2136C66.3037 14.2276 66.3037 14.2467 66.3037 14.2711C66.3037 14.2954 66.3037 14.3233 66.3037 14.3546C66.3037 14.3859 66.3037 14.4224 66.3037 14.4642C66.3071 14.5025 66.3089 14.5442 66.3089 14.5895C66.3089 14.6312 66.3089 14.6782 66.3089 14.7304C66.3089 14.7791 66.3089 14.8261 66.3089 14.8714V16.5H65.9278V13.5768H66.3402L67.7861 15.8475H67.7966V15.8318C67.7966 15.8179 67.7966 15.8005 67.7966 15.7796C67.7966 15.7553 67.7966 15.7274 67.7966 15.6961C67.7966 15.6648 67.7948 15.63 67.7914 15.5917C67.7914 15.5534 67.7914 15.5152 67.7914 15.4769C67.7914 15.4351 67.7914 15.3916 67.7914 15.3464C67.7914 15.2977 67.7914 15.2507 67.7914 15.2054V13.5768H68.1776V16.5Z" fill="white"/>
<g clip-path="url(#clip1_35_225)">
<g clip-path="url(#clip2_35_225)">
<path fill-rule="evenodd" clip-rule="evenodd" d="M70.9379 19.981H70.0033V19.046H70.9379V19.981ZM71.8725 20.9161H70.9379V19.981H71.8725V20.9161ZM68.134 19.046V20.9161H67.1994V16.2408H68.134V18.111H70.0033V19.046H68.134ZM70.9379 17.1758V18.111H70.0033V17.1758H70.9379ZM71.8725 16.2408V17.1758H70.9379V16.2408H71.8725ZM67.1994 7.74021H70.9379V6.80517H67.1994V4H71.8725V4.93503H68.134V5.87014H71.8725V8.67532H67.1994V7.74021ZM61.6033 4H62.538V8.67532H61.6033V4ZM59.738 19.981H60.6726V20.9161H59.738V19.981ZM58.8033 19.046H56.9342V20.9161H55.9995V16.2408H60.6726V19.046H59.738V19.981H58.8033V19.046ZM59.738 17.1758H56.9342V18.111H59.738V17.1758ZM52.2688 7.74021H56.0073V6.80517H52.2688V4H56.9418V4.93503H53.2034V5.87014H56.9418V8.67532H52.2688V7.74021ZM44.7997 16.2408H49.4727V20.9161H44.7997V16.2408ZM45.7342 19.981H48.5381V17.1758H45.7342V19.981ZM43.8689 8.67532H42.9343V4H47.6073V6.80517H43.8689V8.67532ZM46.6727 5.87014V4.93503H43.8689V5.87014H46.6727ZM33.5997 16.2408H34.5343V19.981H35.469V16.2408H36.3309V19.981H37.3382V16.2408H38.2728V20.9161H33.5997V16.2408ZM33.5997 4H38.2728V8.67532H33.5997V4ZM34.5343 7.74021H37.3381V4.93503H34.5343V7.74021ZM24.2651 4H25.1998V7.74021H28.9383V8.67532H24.2651V4ZM27.0729 17.1758H25.2036V20.9161H24.269V17.1758H22.3998V16.2408H27.0729V17.1758ZM18.6691 4H19.6037V8.67532H18.6691V4ZM11.1999 16.2408H15.873V17.1758H12.1345V18.111H14.0038V19.046H12.1345V19.981H15.873V20.9161H11.1999V16.2408ZM12.1384 8.67532H11.2037V4.93503H9.33457V4H14.0076V4.93503H12.1384V8.67532ZM3.73843 17.1758H0.934628V20.9161H0V16.2408H4.67306V20.9161H3.73843V17.1758ZM0.934628 8.67532H0V4H4.67306V6.80517H0.934628V8.67532ZM3.73843 5.87014V4.93503H0.934628V5.87014H3.73843Z" fill="black"/>
</g>
</g>
<g clip-path="url(#clip3_35_225)">
<g clip-path="url(#clip4_35_225)">
<path fill-rule="evenodd" clip-rule="evenodd" d="M70.9379 24.981H70.0033V24.046H70.9379V24.981ZM71.8725 25.9161H70.9379V24.981H71.8725V25.9161ZM68.134 24.046V25.9161H67.1994V21.2408H68.134V23.111H70.0033V24.046H68.134ZM70.9379 22.1758V23.111H70.0033V22.1758H70.9379ZM71.8725 21.2408V22.1758H70.9379V21.2408H71.8725ZM67.1994 12.7402H70.9379V11.8052H67.1994V9H71.8725V9.93503H68.134V10.8701H71.8725V13.6753H67.1994V12.7402ZM61.6033 9H62.538V13.6753H61.6033V9ZM59.738 24.981H60.6726V25.9161H59.738V24.981ZM58.8033 24.046H56.9342V25.9161H55.9995V21.2408H60.6726V24.046H59.738V24.981H58.8033V24.046ZM59.738 22.1758H56.9342V23.111H59.738V22.1758ZM52.2688 12.7402H56.0073V11.8052H52.2688V9H56.9418V9.93503H53.2034V10.8701H56.9418V13.6753H52.2688V12.7402ZM44.7997 21.2408H49.4727V25.9161H44.7997V21.2408ZM45.7342 24.981H48.5381V22.1758H45.7342V24.981ZM43.8689 13.6753H42.9343V9H47.6073V11.8052H43.8689V13.6753ZM46.6727 10.8701V9.93503H43.8689V10.8701H46.6727ZM33.5997 21.2408H34.5343V24.981H35.469V21.2408H36.3309V24.981H37.3382V21.2408H38.2728V25.9161H33.5997V21.2408ZM33.5997 9H38.2728V13.6753H33.5997V9ZM34.5343 12.7402H37.3381V9.93503H34.5343V12.7402ZM24.2651 9H25.1998V12.7402H28.9383V13.6753H24.2651V9ZM27.0729 22.1758H25.2036V25.9161H24.269V22.1758H22.3998V21.2408H27.0729V22.1758ZM18.6691 9H19.6037V13.6753H18.6691V9ZM11.1999 21.2408H15.873V22.1758H12.1345V23.111H14.0038V24.046H12.1345V24.981H15.873V25.9161H11.1999V21.2408ZM12.1384 13.6753H11.2037V9.93503H9.33457V9H14.0076V9.93503H12.1384V13.6753ZM3.73843 22.1758H0.934628V25.9161H0V21.2408H4.67306V25.9161H3.73843V22.1758ZM0.934628 13.6753H0V9H4.67306V11.8052H0.934628V13.6753ZM3.73843 10.8701V9.93503H0.934628V10.8701H3.73843Z" fill="black"/>
</g>
</g>
<line x1="-1.09278e-08" y1="0.875" x2="72" y2="0.874994" stroke="black" stroke-width="0.25"/>
<line x1="-1.09278e-08" y1="28.875" x2="72" y2="28.875" stroke="black" stroke-width="0.25"/>
<defs>
<clipPath id="clip0_35_225">
<rect width="72" height="11" fill="white" transform="translate(0 30)"/>
</clipPath>
<clipPath id="clip1_35_225">
<rect width="72" height="7" fill="white" transform="translate(0 4)"/>
</clipPath>
<clipPath id="clip2_35_225">
<rect width="72" height="16.9507" fill="white" transform="translate(0 4)"/>
</clipPath>
<clipPath id="clip3_35_225">
<rect width="72" height="7" fill="white" transform="translate(0 21)"/>
</clipPath>
<clipPath id="clip4_35_225">
<rect width="72" height="16.9507" fill="white" transform="translate(0 21)"/>
</clipPath>
</defs>
</svg>
