<?xml version="1.0" encoding="UTF-8"?>
<svg id="Elements" xmlns="http://www.w3.org/2000/svg" xmlns:xlink="http://www.w3.org/1999/xlink" viewBox="0 0 191.58 191.92">
  <defs>
    <style>
      .cls-1 {
        fill: url(#linear-gradient);
      }
    </style>
    <linearGradient id="linear-gradient" x1="24.71" y1="167.15" x2="166.72" y2="25.14" gradientUnits="userSpaceOnUse">
      <stop offset="0" stop-color="#0796d7" stop-opacity=".2"/>
      <stop offset=".25" stop-color="#0b8dc7" stop-opacity=".45"/>
      <stop offset=".59" stop-color="#1183b6" stop-opacity=".75"/>
      <stop offset=".85" stop-color="#147dab" stop-opacity=".93"/>
      <stop offset="1" stop-color="#167ba7"/>
    </linearGradient>
  </defs>
  <path class="cls-1" d="M146.04,22.07c.78.31,1.83.35,2.69,1.1,1,.88,1.29,2.01,1.5,3.21.05.29-.82,2.46-.98,2.69-.76,1.09-1.97,1.47-3.14,1.61-2.22.27-4.4-1.83-4.51-4.14-.11-2.25,1.92-4.38,4.44-4.47ZM40.44,31.99c-.9-.82-1.93-1.24-3.06-1.25-2.22-.02-4.16,1.95-4.26,4.18-.1,2.24,1.96,4.43,4.26,4.41,1.14,0,2.16-.44,3.06-1.26.94-.85.97-1.99,1.41-3.05-.45-1.05-.48-2.19-1.42-3.04ZM29.44,42.6c-.88-.86-1.92-1.27-3.04-1.28-1.03,0-2.01.39-2.87,1.11-.97.81-1.27,1.93-1.4,3-.27,2.23,1.83,4.39,4.16,4.49,2.24.1,4.38-1.96,4.44-4.47-.3-.86-.38-1.98-1.28-2.85ZM167.39,44.16c-2.32.11-4.4,2.28-4.15,4.51.13,1.19.59,2.32,1.6,3.15.8.66,1.75.98,2.7.94,1.21-.05,2.33-.47,3.21-1.46.76-.86.81-1.9,1.11-2.69-.08-2.52-2.21-4.56-4.46-4.45ZM24.36,139.2c-2.33.1-4.43,2.26-4.16,4.49.13,1.07.43,2.19,1.4,3,.86.72,1.84,1.12,2.87,1.11,1.12,0,2.16-.42,3.04-1.28.9-.87.98-1.99,1.28-2.85-.06-2.51-2.2-4.57-4.44-4.47ZM48.35,20.16c-2.32.11-4.4,2.28-4.15,4.51.13,1.19.59,2.32,1.6,3.15.8.66,1.75.98,2.7.94,1.21-.05,2.33-.47,3.21-1.46.76-.86.81-1.9,1.11-2.69-.08-2.52-2.21-4.56-4.46-4.45ZM146.57,170.52c.82-.9,1.24-1.93,1.25-3.06.02-2.22-1.95-4.16-4.18-4.26-2.24-.1-4.43,1.96-4.41,4.26,0,1.14.43,2.16,1.25,3.06.85.93,1.99.97,3.05,1.41,1.05-.44,2.19-.48,3.04-1.42ZM45.48,161.28c-2.33.1-4.43,2.26-4.16,4.49.13,1.07.43,2.19,1.4,3,.86.72,1.84,1.12,2.87,1.11,1.12,0,2.16-.42,3.04-1.28.9-.87.98-1.99,1.28-2.85-.06-2.51-2.2-4.57-4.44-4.47ZM10.56,67.37c.13,1.93,2.74,4.31,4.55,4.15,1.86-.17,4.13-2.6,4.09-4.37-.05-1.94-2.56-4.36-4.43-4.27-1.93.09-4.33,2.65-4.21,4.49ZM181.92,70.05c-.03-1.79-2.36-4.19-4.17-4.29-1.86-.11-4.39,2.29-4.47,4.23-.07,1.87,2.37,4.38,4.29,4.41,1.93.03,4.38-2.42,4.35-4.35ZM180.96,124.29c-.03-1.79-2.36-4.18-4.17-4.29-1.86-.11-4.39,2.29-4.47,4.23-.07,1.87,2.37,4.38,4.29,4.41,1.93.03,4.38-2.42,4.35-4.35ZM128.64,14.81c-.05-1.8-2.39-4.17-4.21-4.25-1.87-.09-4.38,2.33-4.43,4.27-.05,1.89,2.41,4.38,4.33,4.37,1.92,0,4.37-2.5,4.31-4.39ZM161.28,145.99c.06,1.93,2.6,4.35,4.45,4.25,1.83-.1,4.15-2.47,4.19-4.27.04-1.91-2.41-4.38-4.33-4.37-1.92,0-4.37,2.51-4.31,4.39ZM13.74,117.12c-1.94.13-4.31,2.74-4.14,4.56.17,1.86,2.6,4.13,4.38,4.08,1.94-.05,4.35-2.57,4.26-4.44-.09-1.93-2.66-4.32-4.5-4.2ZM62.88,176.68c.03,1.79,2.36,4.18,4.18,4.28,1.87.1,4.39-2.29,4.46-4.24.07-1.87-2.38-4.38-4.3-4.4-1.94-.02-4.38,2.43-4.34,4.36ZM74.4,13.92c0-1.79-2.31-4.2-4.14-4.32-1.83-.13-4.4,2.27-4.5,4.2-.1,1.86,2.32,4.39,4.26,4.44,1.89.06,4.38-2.4,4.38-4.32ZM34.91,150.24c-1.93.1-4.32,2.68-4.19,4.51.13,1.85,2.53,4.14,4.33,4.13,1.92,0,4.37-2.51,4.31-4.39-.06-1.93-2.6-4.35-4.45-4.25ZM153.44,34.6c-.7.75-1.22,2-1.18,3.01.04,1.01.68,2.18,1.43,2.91.68.67,1.86,1.18,2.79,1.14,1.02-.05,2.24-.58,2.96-1.31.72-.73,1.28-1.97,1.26-2.97-.01-1.01-.61-2.22-1.34-2.94-.74-.72-1.96-.94-2.94-1.36-1.06.51-2.28.77-2.98,1.53ZM124.45,180.47c.7-.75,1.24-1.99,1.21-3-.03-1.01-.64-2.22-1.4-2.92-.75-.7-2.01-1.22-3.01-1.17-1.01.05-2.18.69-2.91,1.44-.67.68-1.18,1.86-1.13,2.79.05,1.02.59,2.23,1.32,2.96.73.73,1.95.96,2.96,1.41,1.04-.5,2.26-.76,2.96-1.51ZM17.66,75.41c-.84-.77-1.62-1.08-2.72-1.04-1.05.04-1.95.08-2.75.97-.72.8-1.31,1.48-1.18,2.66.12,1.08-.11,2.12,1,2.98.85.65,1.52,1.23,2.68,1.12,1.1-.1,2.12.02,2.96-1.05.66-.84,1.39-1.52,1.02-2.61.15-1.24-.07-2.16-1.02-3.03ZM151.74,153.7c-.77.84-1.08,1.61-1.04,2.72.04,1.05.08,1.95.97,2.75.8.72,1.48,1.31,2.66,1.18,1.08-.12,2.13.11,2.98-1,.65-.85,1.24-1.52,1.12-2.68-.11-1.1.02-2.12-1.05-2.96-.84-.66-1.52-1.39-2.61-1.02-1.24-.15-2.16.07-3.03,1.02ZM110.88,173.76c-2.2,0-3.8,1.53-3.84,3.66-.04,2.37,1.46,3.99,3.72,4.02,2.36.03,3.94-1.48,3.96-3.78.02-2.31-1.55-3.9-3.84-3.9ZM177.08,109.92c-2.2.01-3.77,1.54-3.8,3.7-.03,2.36,1.47,3.96,3.76,3.98,2.31.02,3.91-1.54,3.92-3.82,0-2.3-1.57-3.87-3.88-3.86ZM177.78,77.25c-2.37.08-3.99,1.49-4.02,3.75-.03,2.23,1.46,3.79,3.54,3.99,2.28.22,4.24-1.78,4.14-3.63.38-2.17-1.89-4.17-3.66-4.11ZM181.95,59.7c-.08-2.37-1.49-3.99-3.75-4.02-2.23-.03-3.79,1.46-3.99,3.54-.22,2.28,1.78,4.24,3.63,4.14,2.17.38,4.17-1.89,4.11-3.66ZM14.32,85.44c-2.29.02-3.79,1.62-3.76,3.98.03,2.16,1.6,3.69,3.8,3.7,2.31.01,3.89-1.56,3.88-3.86,0-2.28-1.61-3.84-3.92-3.82ZM132.52,174.2c-1.87-.14-3.94,1.77-3.9,3.66.04,2.37,1.47,4.02,3.7,4.06,2.37.04,3.97-1.46,4-3.74.03-2.33-1.52-3.81-3.8-3.98ZM77.28,14.42c0,2.2,1.54,3.79,3.68,3.82,2.37.04,3.97-1.46,4-3.74.03-2.34-1.51-3.93-3.8-3.94-2.31-.01-3.89,1.56-3.88,3.86ZM176.66,131.52c-2.2,0-3.82,1.52-3.86,3.64-.04,2.37,1.45,4.01,3.7,4.04,2.36.03,3.96-1.47,3.98-3.76.02-2.31-1.54-3.91-3.82-3.92ZM109.92,14.94c.02,2.2,1.55,3.75,3.72,3.78,2.36.03,3.94-1.48,3.96-3.78.02-2.31-1.55-3.9-3.84-3.9-2.29,0-3.86,1.59-3.84,3.9ZM10.52,110.84c-.14,1.87,1.77,3.94,3.66,3.9,2.37-.04,4.02-1.47,4.06-3.7.04-2.37-1.46-3.97-3.74-4-2.33-.03-3.81,1.52-3.98,3.8ZM78.18,173.28c-2.2.02-3.75,1.55-3.78,3.72-.03,2.36,1.48,3.94,3.78,3.96,2.31.02,3.9-1.55,3.9-3.84s-1.59-3.86-3.9-3.84ZM52.8,176.64c0,2.2,1.53,3.8,3.66,3.84,2.37.04,3.99-1.46,4.02-3.72.03-2.36-1.48-3.94-3.78-3.96-2.31-.02-3.9,1.55-3.9,3.84ZM13.74,128.61c-1.77-.06-3.92,1.92-3.7,4.11.21,2.08,1.73,3.62,3.93,3.6,2.3-.02,3.81-1.6,3.78-3.96-.03-2.26-1.65-3.67-4.02-3.75ZM98.82,14.41c-.15,1.26,1.02,1.7,1.1,2.7.98.15,1.44,1.27,2.65,1.18,1.98-.15,3.98-1.88,4-3.79.02-2.01-1.83-3.93-3.8-3.94-2.02,0-3.7,1.87-3.94,3.85ZM132.55,17.46c.75.59,1.67,1.27,2.8,1.28,1.06,0,1.94-.59,2.63-1.11.67-.5.94-1.65,1.18-2.57.28-1.13-.56-2.08-1.11-2.85-.48-.66-1.66-.93-2.58-1.13-1.11-.24-2.07.57-2.83,1.15-.67.5-.83,1.68-1.25,2.63.37.91.51,2.09,1.17,2.6ZM89.1,11.6c-.59.75-1.27,1.67-1.28,2.81,0,1.06.59,1.94,1.11,2.63.5.67,1.65.94,2.57,1.18,1.13.28,2.08-.56,2.85-1.11.66-.48.93-1.66,1.13-2.58.24-1.11-.57-2.07-1.15-2.83-.5-.67-1.68-.83-2.63-1.25-.91.37-2.09.51-2.6,1.17ZM12.59,54.05c-.48.71-1.32,1.58-1.05,2.64.24.92.47,2,1.09,2.63.62.63,1.69.92,2.61,1.13,1.11.24,2.08-.57,2.83-1.15.65-.51.86-1.68,1.1-2.6.28-1.06-.57-1.94-1.05-2.64-.5-.74-1.77-.95-2.77-1.43-1,.48-2.27.69-2.77,1.43ZM62.29,16.51c.48-.7,1.32-1.58,1.05-2.64-.24-.92-.47-2-1.09-2.63-.62-.63-1.69-.92-2.61-1.12-1.11-.24-2.08.57-2.83,1.15-.65.51-.86,1.68-1.1,2.6-.28,1.06.57,1.94,1.05,2.64.5.74,1.77.95,2.77,1.43,1-.47,2.27-.69,2.77-1.43ZM17.19,97.25c-.76-.58-1.66-1.27-2.81-1.27-1.06,0-1.92.63-2.63,1.13-.67.48-.93,1.65-1.16,2.57-.28,1.13.57,2.08,1.13,2.84.48.66,1.69,1.05,2.58,1.07.9.02,2.02-.34,2.66-.94.7-.66.97-1.79,1.43-2.73-.41-.99-.54-2.18-1.2-2.68ZM103.2,177.13c.15-.86-.21-1.46-.81-2.07-.61-.61-1.2-.96-2.07-.83-.39.06-.8.07-1.19,0-1.41-.24-2.13.91-2.56,1.74-.42.81-.19,2.04-.05,3.05.07.46.65.83.95,1.27.82,1.17,2.04.5,3.07.67.68.12,1.14-.18,1.66-.64.86-.76,1.19-1.61.99-2.51,0-.36-.02-.52,0-.68ZM177.71,88.32c-2.48,0-3.46.92-3.47,3.25,0,2.48.92,3.46,3.25,3.47,2.48,0,3.46-.92,3.47-3.25,0-2.48-.92-3.46-3.25-3.47ZM99.81,184.8c-2.23,0-3.34,1.14-3.33,3.39,0,2.23,1.14,3.34,3.39,3.33,2.23,0,3.34-1.14,3.33-3.39,0-2.23-1.14-3.34-3.39-3.33ZM88.8,191.52c2.26,0,3.36-1.1,3.36-3.36,0-2.26-1.1-3.36-3.36-3.36-2.26,0-3.36,1.1-3.36,3.36,0,2.26,1.1,3.36,3.36,3.36ZM59.07,21.12c-2.25-.01-3.38,1.1-3.39,3.33-.01,2.25,1.1,3.38,3.33,3.39,2.25.01,3.38-1.1,3.39-3.33.01-2.25-1.1-3.38-3.33-3.39ZM92.64,177.05c-.02-2.22-1.16-3.31-3.43-3.29-2.22.02-3.31,1.16-3.29,3.43.02,2.22,1.16,3.31,3.43,3.29,2.22-.02,3.31-1.16,3.29-3.43ZM184.74,102.72c0,1.81,1.56,3.42,3.42,3.42,1.81,0,3.42-1.56,3.42-3.42,0-1.81-1.56-3.65-3.42-3.36-1.81-.29-3.42,1.49-3.42,3.36ZM173.76,102.79c.02,2.22,1.16,3.31,3.43,3.29,2.22-.02,3.31-1.16,3.29-3.43-.02-2.22-1.16-3.31-3.43-3.29-2.22.02-3.31,1.16-3.29,3.43ZM184.74,92.16c0,1.81,1.56,3.42,3.42,3.42,1.81,0,3.42-1.56,3.42-3.42,0-1.81-1.56-3.65-3.42-3.36-1.81-.29-3.42,1.49-3.42,3.36ZM156.66,165.04c-.6-.83-1.39-.83-2.28-.92-1.19-.12-1.6.83-2.35,1.33-.89.6-.75,1.44-.86,2.3-.16,1.22.84,1.6,1.38,2.32.53.71,1.21.86,2.07.82,1.73-.08,3.32-1.7,3.3-3.63.35-1.07-.72-1.49-1.25-2.23ZM167.99,159.14c.7-.6.99-1.26,1.03-2.24.05-1.07-.51-1.6-1.12-2.2-.61-.6-1.1-1.22-2.18-1.14-1.79.13-3.38,1.61-3.51,3.34-.07,1.01.3,1.64,1,2.24.7.6,1.2,1.58,2.39,1.12,1.19.45,1.69-.53,2.39-1.13ZM28.31,54.46c-.69-.63-1.21-1.37-2.4-1.23-.84.1-1.51.2-2.05.89-.56.72-1.46,1.15-1.34,2.35.09.9.1,1.67.92,2.28.73.55,1.2,1.36,2.37,1.29,1.79-.11,3.47-1.6,3.48-3.52.3-.84-.3-1.45-.97-2.06ZM102.56.48c-1.64.1-3.33,1.99-3.2,3.58.13,1.54,1.89,3.17,3.4,3.14,1.65-.04,3.39-1.85,3.32-3.46-.07-1.66-1.91-3.36-3.52-3.26ZM170.89,37.38c-.07-1.55-1.69-3.22-3.25-3.3-1.61-.08-3.41,1.64-3.49,3.3-.06,1.36,1.53,3.39,3.37,3.42,1.84-.04,3.43-2.07,3.37-3.42ZM7.19,88.78c-.16-1.82-1.49-3.1-3.2-3.32-1.6-.21-3.44,1.58-3.52,3.24-.07,1.61,1.67,3.42,3.32,3.46,1.88,0,3.51-2.08,3.39-3.38ZM138.72,25.84c-.06-1.66-1.89-3.37-3.5-3.28-1.54.08-3.2,1.78-3.22,3.32-.02,1.87,2.07,3.47,3.38,3.4,1.64-.02,3.4-1.83,3.34-3.44ZM24.32,129.12c-1.64.1-3.33,1.99-3.2,3.58.13,1.54,1.89,3.17,3.4,3.14,1.65-.04,3.39-1.85,3.32-3.46-.07-1.66-1.91-3.36-3.52-3.26ZM22.34,152.15c-.95.49-.85,1.6-1.13,2.4-.18.53.46,1.34.73,2.03.42,1.07,1.58.91,2.37,1.24.54.23,1.48-.46,2.24-.77,1.06-.42.85-1.6,1.2-2.38.23-.52-.46-1.49-.81-2.21-.47-.95-1.69-.61-2.39-1.31-.72.32-1.47.63-2.2,1ZM76.02,190.09c.71.57,1.64.35,2.26.95.59-.65,1.54-.42,2.25-.99.79-.64.28-1.72,1.07-2.23-.31-.75-.57-1.53-.93-2.25-.47-.95-1.59-.94-2.38-1.15-.62-.16-1.48.51-2.21.87-.97.48-.56,1.7-1.25,2.42.78.58.34,1.7,1.19,2.38ZM5.78,97.61c-.72-.76-1.77-.48-2.44-1.13-.58.68-1.54.4-2.25.98-.79.64-.29,1.72-1.09,2.22.3.75.56,1.53.91,2.26.47.95,1.59.92,2.38,1.16.6.18,1.49-.49,2.21-.86.96-.48.6-1.68,1.37-2.53-1.05-.33-.43-1.41-1.1-2.11ZM94.57,5.58c.57-.71.35-1.64.95-2.26-.65-.59-.42-1.54-.99-2.25-.64-.79-1.72-.28-2.23-1.07-.75.31-1.53.57-2.25.93-.95.47-.94,1.59-1.15,2.38-.16.62.51,1.48.87,2.21.48.97,1.7.56,2.42,1.25.58-.79,1.7-.34,2.38-1.19ZM159.34,24.23c-.49-.98-1.73-.51-2.38-1.19-.59.66-1.54.38-2.26.97-.78.64-.33,1.7-1.1,2.21.3.76.54,1.54.9,2.26.46.95,1.58.92,2.37,1.18.59.19,1.49-.48,2.21-.84.96-.48.61-1.68,1.28-2.4-.33-.72-.66-1.46-1.02-2.19ZM37.43,163.44c-.49-.97-1.61-.8-2.41-1.12-.5-.2-1.33.48-2.02.74-1.1.41-.57,1.74-1.33,2.33.29.76.54,1.53.88,2.27.45.98,1.59.9,2.37,1.19.57.21,1.49-.47,2.22-.83.96-.47.61-1.68,1.3-2.4-.33-.72-.65-1.47-1.01-2.19ZM112.44,186.28c-.55-.52-1.49-1-2.19-.92-.79.08-1.65.68-2.21,1.3-.52.57-.96,1.47-.92,2.2.04.74.56,1.59,1.13,2.11.56.52,1.47,1,2.18.95.81-.06,1.73-.59,2.32-1.18.53-.54.69-1.45,1.01-2.19-.43-.77-.72-1.68-1.32-2.26ZM164.68,57.02c-.52.56-.96,1.46-.93,2.2.03.74.55,1.59,1.11,2.13.56.53,1.46,1.02,2.17.98.82-.05,1.75-.56,2.35-1.15.54-.53,1-1.47.94-2.18-.07-.81-.6-1.71-1.2-2.3-.54-.53-1.45-.69-2.19-1.01-.77.44-1.68.74-2.25,1.35ZM59.55,165.58c.11-1.95-1.36-3.03-3.11-2.88-1.93.16-2.61.94-2.7,3.05-.08,1.72,1.34,3.01,2.99,2.74,1.97-.02,2.71-.89,2.82-2.9ZM168.48,135.37c0-1.75-1.13-2.89-2.87-2.89-1.75,0-2.89,1.13-2.89,2.87,0,1.75,1.13,2.89,2.87,2.89,1.75,0,2.89-1.13,2.89-2.87ZM188.09,110.88c-1.71.01-2.82,1.18-2.81,2.95.01,1.71,1.18,2.82,2.95,2.81,1.71-.01,2.82-1.18,2.81-2.95-.01-1.71-1.18-2.82-2.95-2.81ZM34.56,24.45c0,1.76,1.12,2.91,2.85,2.91,1.76,0,2.91-1.12,2.91-2.85,0-1.76-1.12-2.91-2.85-2.91-1.76,0-2.91,1.12-2.91,2.85ZM129.6,166.93c-.02,1.78,1.09,2.97,2.77,2.99,1.78.02,2.97-1.09,2.99-2.77.02-1.78-1.09-2.97-2.77-2.99-1.78-.02-2.97,1.09-2.99,2.77ZM185.76,81.12c0,1.75,1.13,2.88,2.88,2.88s2.88-1.13,2.88-2.88-1.13-2.88-2.88-2.88-2.88,1.13-2.88,2.88ZM29.28,35.11c.01-1.77-1.1-2.94-2.81-2.95-1.77-.01-2.94,1.1-2.95,2.81-.01,1.77,1.1,2.94,2.81,2.95,1.77.01,2.94-1.1,2.95-2.81ZM3.26,107.55c-1.61.08-2.84,1.26-2.75,2.95.08,1.61,1.26,2.84,2.95,2.75,1.61-.08,2.73-1.26,2.78-2.95-.22-1.6-1.29-2.84-2.98-2.75ZM81.19.51c-1.9-.03-2.9,1.41-2.92,2.78-.03,1.9,1.41,2.9,2.78,2.92,1.9.03,2.79-1.41,2.95-2.78-.07-1.91-1.44-2.9-2.81-2.92ZM110.91,3.94c.08,1.61,1.26,2.84,2.95,2.75,1.61-.08,2.84-1.26,2.75-2.95-.08-1.61-1.26-2.73-2.95-2.78-1.6.22-2.84,1.29-2.75,2.98ZM3.8,74.88c-.91.05-2.72,1.8-2.84,2.74-.12.91,1.75,2.93,2.8,3.02.93.08,2.93-1.85,2.96-2.86.03-.97-1.97-2.96-2.92-2.9ZM142.21,175.8c-1.76,1.21-1.79,3.19-.09,4.48.95.72,1.84.72,2.79,0,1.7-1.29,1.67-3.28-.09-4.48-.42-.28-.94-.42-1.36-.59-.45.21-.89.34-1.26.59ZM179.04,146.38c0-1.8-.67-2.41-2.6-2.38-1.59.03-2.22.76-2.2,2.54.02,1.65.71,2.27,2.48,2.26,1.68-.01,2.32-.69,2.32-2.42ZM178.13,46.08c-1.75,0-2.43.63-2.45,2.29-.02,1.87.62,2.52,2.47,2.51,1.68-.01,2.33-.68,2.33-2.41s-.66-2.38-2.35-2.39ZM39.36,46.09c0-1.42-1.16-2.55-2.57-2.39-1.4.16-2.26,1.02-2.22,2.5.03,1.26,1.18,2.32,2.45,2.29,1.32-.03,2.35-1.08,2.35-2.39ZM45.71,174.24c-1.04-.05-2.46,1.26-2.51,2.29-.05,1.04,1.26,2.46,2.29,2.51,1.04.05,2.46-1.26,2.51-2.29.05-1.04-1.26-2.46-2.29-2.51ZM148.8,15.43c.03-1.05-1.28-2.44-2.33-2.47-1.05-.03-2.44,1.28-2.47,2.33-.03,1.05,1.28,2.44,2.33,2.47,1.05.03,2.44-1.28,2.47-2.33ZM48,33.12c-1.04,0-2.4,1.36-2.4,2.4,0,1.04,1.36,2.4,2.4,2.4,1.04,0,2.4-1.36,2.4-2.4,0-1.04-1.36-2.4-2.4-2.4ZM188.6,68.16c-.8.04-2.4,1.69-2.36,2.44.04.8,1.69,2.4,2.44,2.36.8-.04,2.4-1.69,2.36-2.44-.04-.8-1.69-2.4-2.44-2.36ZM119.04,188.71c.06.84,1.71,2.39,2.47,2.33.84-.06,2.39-1.71,2.33-2.47-.07-.84-1.71-2.39-2.47-2.33-.84.07-2.39,1.71-2.33,2.47ZM145.99,34.56c-.76-.06-2.4,1.49-2.47,2.33-.06.76,1.49,2.4,2.33,2.47.76.06,2.4-1.49,2.47-2.33.06-.76-1.49-2.4-2.33-2.47ZM187.68,122.4c-.76,0-2.4,1.64-2.4,2.4,0,.76,1.64,2.4,2.4,2.4.76,0,2.4-1.64,2.4-2.4,0-.76-1.64-2.4-2.4-2.4ZM11.04,143.45c-.06.76,1.49,2.4,2.33,2.47.76.06,2.4-1.49,2.47-2.33.06-.76-1.49-2.4-2.33-2.47-.76-.06-2.4,1.49-2.47,2.33ZM15.54,43.68c-1.8-.03-2.07.19-2.1,1.68-.03,1.93.15,2.15,1.86,2.16,1.79.01,1.96-.15,1.98-1.8.02-1.83-.14-2.02-1.74-2.04ZM156.3,49.92c1.8.03,2.07-.19,2.1-1.68.03-1.93-.15-2.15-1.86-2.16-1.79-.01-1.96.15-1.98,1.8-.02,1.83.14,2.02,1.74,2.04ZM69.12,187.86c.03-1.8-.19-2.07-1.68-2.1-1.93-.03-2.15.15-2.16,1.86-.01,1.79.15,1.96,1.8,1.98,1.83.02,2.02-.14,2.04-1.74ZM3.36,119.52c-1.01,0-1.9.86-1.92,1.86-.03,1.15.89,2.04,2.04,1.98.99-.05,1.83-.96,1.8-1.98-.02-.99-.92-1.86-1.92-1.86ZM44.16,154.44c-.06,1.15.83,2.07,1.97,2.04.99-.02,1.87-.92,1.87-1.91,0-1-.87-1.9-1.85-1.93-1.02-.02-1.93.8-1.99,1.8ZM143.54,154.56c-1.01,0-1.91.85-1.94,1.84-.04,1.15.87,2.05,2.02,2,.99-.04,1.84-.94,1.82-1.96-.01-.99-.91-1.88-1.9-1.88ZM154.62,144c-1.02-.02-1.93.81-1.98,1.8-.05,1.15.84,2.06,1.98,2.04.99-.02,1.86-.92,1.86-1.92,0-1-.87-1.9-1.86-1.92ZM46.56,13.44c0,1,.87,1.9,1.86,1.92,1.15.02,2.03-.9,1.98-2.04-.05-1-.96-1.82-1.98-1.8-.99.02-1.86.92-1.86,1.92ZM68.18,25.01c.13.48.36,1,.7,1.35.28.29.77.45,1.19.5.62.08,2.01-1.48,1.92-2.07-.08-.57-1.51-1.8-2.04-1.75-.54.05-1.91,1.49-1.78,1.97ZM124.91,1.92c-.52-.04-1.95,1.19-2.03,1.75-.08.59,1.32,2.15,1.93,2.06.42-.06.91-.22,1.19-.51.34-.35.49-.89.72-1.34.02-.5-1.29-1.92-1.81-1.97ZM26.35,120.72c-.35-.34-.87-.57-1.35-.7-.47-.13-1.92,1.27-1.96,1.79-.06.65,1.34,2.07,1.99,2.03.5-.03,1.85-1.45,1.85-1.91-.17-.42-.24-.93-.53-1.21ZM24.52,66.49c-.29.28-.44.77-.5,1.19-.08.63,1.48,2.01,2.08,1.91.57-.09,1.79-1.53,1.74-2.04-.06-.55-1.47-1.83-1.97-1.8-.46.24-1,.39-1.35.73ZM125.82,26.6c.5-.49.59-.87.01-1.34-.31-.25-.59-.54-.84-.84-.45-.54-.86-.6-1.33-.02-.25.31-.54.59-.84.84-.54.45-.59.86-.02,1.33.36.3.67.68,1.02,1,.16.14.38.22.85.48.37-.47.7-1.01,1.15-1.45ZM67.68,164.64c-1.1,0-1.52.47-1.44,1.62.06.92.54,1.31,1.56,1.26.96-.04,1.34-.48,1.32-1.5-.02-.98-.44-1.38-1.44-1.38ZM121.92,165.6c-1.1,0-1.52.47-1.44,1.62.06.92.54,1.31,1.56,1.26.96-.04,1.34-.48,1.32-1.5-.02-.98-.44-1.38-1.44-1.38ZM165.6,69.94c-.05,1.02.33,1.51,1.24,1.58,1.13.08,1.63-.35,1.64-1.42,0-1.01-.38-1.43-1.36-1.46-1.05-.03-1.47.32-1.52,1.3ZM5.28,67.3c.04-1.02-.35-1.48-1.28-1.54-1.15-.07-1.61.35-1.6,1.46,0,1,.41,1.4,1.4,1.42,1.01.02,1.44-.38,1.48-1.34ZM167.52,124.38c.02-1.02-.36-1.46-1.32-1.5-1.16-.05-1.59.35-1.56,1.5.02.98.44,1.38,1.44,1.38,1,0,1.42-.4,1.44-1.38ZM69.12,2.84c-.02,1.01.38,1.44,1.34,1.48,1.17.04,1.58-.35,1.54-1.52-.03-.98-.45-1.37-1.46-1.36-1,0-1.4.41-1.42,1.4ZM187.68,134.46c-.34.02-.75.49-.93.85-.17.36.68,1.16,1.04.98.38-.19.65-.57,1.12-.99-.52-.39-.89-.86-1.22-.84ZM132.48,187.74c-.34.02-.75.49-.93.85-.17.36.68,1.16,1.04.98.38-.19.65-.57,1.12-.99-.52-.39-.89-.86-1.22-.84ZM25.44,77.34c-.34.02-.76.49-.93.85-.17.36.68,1.16,1.04.98.38-.19.66-.57,1.12-.99-.53-.39-.89-.86-1.22-.84ZM166.02,167.49c-.03-.33-.52-.73-.89-.89-.37-.16-1.14.74-.94,1.07.22.37.6.63,1.03,1.05.36-.52.83-.9.8-1.23ZM175.71,156.97c-.03.12.22.31.34.47.2-.16.45-.29.57-.5.05-.09-.17-.33-.38-.71-.26.34-.47.52-.53.74ZM58.93,35.07c-.12,0-.38.38-.35.43.14.2.35.39.58.48.08.03.28-.24.61-.56-.4-.18-.62-.35-.85-.35ZM113.4,24.99c-.23.08-.43.28-.58.48-.03.05.22.43.35.43.23,0,.45-.17.85-.35-.33-.31-.53-.59-.61-.56ZM26.85,24.12c-.08-.23-.28-.44-.48-.58-.05-.03-.43.22-.43.35,0,.23.17.45.35.85.31-.33.59-.53.56-.61ZM135.48,3.87c-.23.08-.43.28-.58.48-.03.05.22.43.35.43.23,0,.45-.17.85-.35-.33-.31-.53-.59-.61-.56ZM59.98,2.9c-.12-.21-.37-.34-.57-.5-.12.16-.37.35-.34.47.05.22.27.4.53.74.21-.38.43-.62.38-.71ZM23.55,165.23c0,.12.38.38.43.35.2-.14.39-.35.48-.58.03-.08-.24-.28-.56-.61-.18.4-.35.62-.35.85ZM78.69,166.2c-.08-.23-.28-.44-.48-.58-.05-.03-.43.22-.43.35,0,.23.17.45.35.85.31-.33.59-.53.56-.61ZM2.9,132.02c-.21.12-.34.37-.5.57.16.12.35.37.47.34.22-.05.4-.27.74-.53-.38-.21-.62-.43-.71-.38ZM4.34,55.7c-.21.12-.34.37-.5.57.16.12.35.37.47.34.22-.05.4-.27.74-.53-.38-.21-.62-.43-.71-.38ZM166.55,80.19c-.12-.03-.31.22-.47.34.16.2.29.45.5.57.09.05.33-.17.71-.38-.34-.26-.52-.47-.74-.53ZM25.42,110.9c-.12-.21-.37-.34-.57-.5-.12.16-.37.35-.34.47.05.22.27.4.53.74.21-.38.43-.63.38-.71ZM35.01,176.28c-.08-.23-.28-.44-.48-.58-.05-.03-.43.22-.43.35,0,.23.17.45.35.85.31-.33.59-.53.56-.61ZM153.63,178.57c-.03.12.22.31.34.47.2-.16.45-.29.57-.5.05-.09-.17-.33-.38-.71-.26.34-.47.52-.53.74ZM13.56,153.63c-.23.09-.44.28-.58.48-.03.05.22.43.35.43.23,0,.45-.17.85-.35-.34-.31-.53-.59-.61-.56ZM36.51,56.65c-.03.12.22.31.34.47.2-.16.45-.29.57-.5.05-.09-.17-.33-.38-.71-.26.34-.47.52-.53.74ZM179.02,37.46c-.12-.21-.37-.34-.57-.5-.12.16-.37.35-.34.47.05.22.27.4.53.74.21-.38.43-.62.38-.71ZM56.28,187.23c-.23.09-.44.28-.58.48-.03.05.22.43.35.43.23,0,.45-.17.85-.35-.34-.31-.53-.59-.61-.56Z"/>
</svg>