<?xml version="1.0" encoding="UTF-8"?>
<svg id="Elements" xmlns="http://www.w3.org/2000/svg" xmlns:xlink="http://www.w3.org/1999/xlink" viewBox="0 0 191.58 191.92">
  <defs>
    <style>
      .cls-1 {
        fill: url(#linear-gradient);
      }
    </style>
    <linearGradient id="linear-gradient" x1="53.3" y1="138.39" x2="140.97" y2="50.72" gradientUnits="userSpaceOnUse">
      <stop offset="0" stop-color="#0796d7" stop-opacity=".2"/>
      <stop offset=".25" stop-color="#0b8dc7" stop-opacity=".45"/>
      <stop offset=".59" stop-color="#1183b6" stop-opacity=".75"/>
      <stop offset=".85" stop-color="#147dab" stop-opacity=".93"/>
      <stop offset="1" stop-color="#167ba7"/>
    </linearGradient>
  </defs>
  <path class="cls-1" d="M84.96,112.12c-.43-1.25.45-2.4,1.1-3.42.5-.79,1.71-1.13,2.61-1.66.18-.11.4-.17.59-.25-.21-.08-.41-.17-.63-.23-1.47-.38-2.65-1.1-3.24-2.6-.03-.08-.37-1.65-1.06-.04-.5,1.18-1.77,2.13-3.14,2.64-.18.07-.34.19-.51.28.21.07.48.07.63.21,1.12,1.04,2.67,1.76,2.7,3.61,1.26,1.08.27,2.3-.1,3.17-.78,1.85-2.45,3-4.45,3.24-1.64.2-3.01-.74-4.06-1.9-.51-.56-1.03-1.2-1.16-2.17-.09-.63-.41-1.31-.22-1.96.34-1.13.9-2.18,1.72-3.04.36-.38.82-.68,1.28-.94.92-.52.89-.45.2-1-.8-.63-1.67-1.27-2.23-2.09-.93-1.35-1.02-4.39.36-5.82,1.14-1.18,2.26-2.17,4.14-2.22,2.38-.07,3.73,1.22,4.98,2.87.26.35.61.38.79-.01.73-1.56,1.84-2.58,3.6-2.81.14-.02.26-.14.39-.21-.11-.09-.21-.21-.34-.25-1.4-.52-2.6-1.26-3.13-2.77-.12-.35-.24-.7-.36-1.05-.05-.14-.1-.28-.15-.42-.11.14-.27.26-.32.41-.39,1.14-1.27,1.9-2.04,2.76-1.31,1.46-5.07,1.36-6.58-.02-1.7-1.56-2.25-3.35-1.92-5.46.27-1.73,2.49-3.8,4.26-4.04,3.1-.41,4.96,1.18,6.27,3.73.1.19.17.4.25.6.08-.21.17-.41.23-.62.38-1.47,1.1-2.66,2.6-3.25.08-.03,1.75-.51.02-1.03-.74-.22-1.35-1.11-1.87-1.81-1.09-1.49-1.17-3.28-.42-4.82,1.57-3.24,4.1-4.3,7.19-2.82,3.31,1.59,3.78,4.38,2.5,7.13-.45.97-1.53,1.7-2.44,2.39-.41.31-.36.41-.06.58,1.21.71,2.29,1.51,2.87,2.85.1.22.32.72.69-.04.66-1.36,1.78-2.28,3.4-2.41.13-.01.26-.14.39-.22-.1-.11-.19-.24-.31-.34-.66-.51-1.33-1.02-2-1.53-1.88-1.41-1.68-3.46-1.44-5.36.2-1.61,3-3.46,4.66-3.61,3.05-.27,4.7,1.42,5.84,3.93.06.14.15.26.22.39.09-.11.23-.21.25-.33.39-2.32,2.23-3.18,4.08-3.92,1.06-.43,2.13.22,3.05.66,1.62.77,2.44,2.34,2.93,3.98.32,1.07-.33,2.09-.76,3.02-.73,1.57-2.28,2.28-3.8,2.82-1.04.36-2.19-.15-3.02-.71-1.12-.75-2.45-1.53-2.47-3.22,0-.11-.16-.23-.25-.34-.07.13-.16.25-.22.39-.87,1.97-2.09,3.55-4.39,3.92-.14.02-.26.14-.39.21.19.09.37.22.57.25,1.73.33,2.81,1.43,3.53,2.94.19.4.24.86.35,1.29.27-.47.56-.92.81-1.41,1.29-2.59,4.36-3.53,7.13-2.37,2.1.88,2.94,2.44,2.93,4.57,0,.75.15,1.48-.26,2.29-1.13,2.2-1.05,2.24-4.12,3.26-.14.05-.26.15-.39.22.12.08.22.21.35.25.57.18,1.19.24,1.71.5,1.75.87,2.73,2.31,2.7,4.29-.01.83.08,1.63-.23,2.53-.65,1.87-2.04,2.62-3.67,3.25-.14.05-.26.15-.39.23.12.08.23.21.36.24,1.51.41,2.3,1.48,3.02,2.82,1.28,2.37-.33,5.36-1.78,6.29-3.32,2.11-6.34.61-7.85-2.14-.1-.19-.12-.43-.18-.65-.23.18-.5.32-.67.55-.17.23-.24.53-.35.81-.66,1.72-2.21,2.15-3.76,2.37-.89.13-1.91.05-2.75-.27-2.26-.85-2.58-1.34-3.35-4.02-.04-.14-.11-.27-.17-.41-.1.15-.27.3-.3.46-.32,2.14-1.61,3.68-3.56,4.14-3.2.76-7.06-.45-7.01-5.35ZM95.78,111.83c.07-.13.18-.25.22-.39q.97-2.94,3.44-4.23c.19-.1.44-.09.64-.19.08-.04.12-.21.14-.33,0-.04-.11-.13-.17-.13-2.19-.19-3.32-1.59-4.05-3.49-.05-.13-.17-.23-.25-.34-.08.13-.17.25-.22.39-.7,1.8-1.82,3.13-3.85,3.44-.14.02-.27.11-.41.17.15.1.29.25.45.3,1.8.59,3.01,1.8,3.7,3.53.11.27.04.61.1.92.02.13.16.23.25.34ZM106.83,91.7c-.09.1-.25.19-.26.3-.15,1.68-1.06,2.8-2.54,3.53-.53.26-.5.63.08.94,1.3.68,2.09,1.73,2.46,3.13.06.22.11.43.17.65.23-.18.61-.33.65-.54.33-1.81,1.8-2.45,3.2-3.14.26-.13.62-.04.92-.1.12-.02.21-.17.32-.26-.13-.07-.25-.16-.39-.21q-2.84-.9-4.07-3.29c-.1-.2-.21-.39-.31-.59-.07-.13-.13-.27-.21-.42ZM106.73,102.78c-.06.15-.11.29-.17.42-.78,1.74-1.84,3.16-3.94,3.37-.13.01-.25.15-.38.23.13.08.25.18.38.24,1.47.67,3.14,1.1,3.48,3.08.04.26.41.46.63.69.17-.28.38-.55.5-.85.51-1.31,1.51-2.02,2.79-2.45.16-.06.36-.31.36-.47,0-.16-.2-.43-.36-.46-1.45-.27-2.16-1.22-2.51-2.57-.09-.35-.3-.68-.48-1-.05-.1-.19-.15-.3-.23ZM98.88,96.08c-.04-.14-.04-.39-.12-.41-1.33-.45-2-1.55-2.66-2.67-.13-.21-.35-.59-.59-.01-.61,1.44-1.74,2.23-3.24,2.54-.2.04-.38.17-.57.25.21.07.43.12.62.23.51.3,1.04.59,1.51.95.93.71,1.46,1.71,1.85,2.79.69-.91.98-2.12,2.01-2.78.31-.2.66-.32.97-.51.11-.07.15-.25.23-.37ZM81.81,83.95c.91-.61,1.73-1.45,2.37-2.35.45-.63.75-1.53.72-2.3-.02-.71-.22-1.58-.5-2.16-.46-.95-1.49-1.61-2.24-2.44-.64-.72-1.79.2-2.32-.78-.8.19-1.73.18-2.37.61-.91.61-1.71,1.47-2.37,2.35-.48.64-.09,1.66-.69,2.34.8.85.31,2.15,1.31,3.1,1.18,1.12,2.44,1.78,3.75,2.01.92-.13,1.8,0,2.35-.38ZM100.76,118.58c-2.74.09-4.58,1.81-4.74,4.64-.16,2.76,2.01,4.88,4.7,4.93,2.86.06,4.87-2.24,4.88-4.77,0-2.64-2.09-4.89-4.84-4.8ZM123.25,85.93c-2.71.07-4.84,2.21-4.67,4.95.18,2.87,2.06,4.55,4.76,4.62,2.6.07,4.82-2.04,4.81-4.83-.04-2.59-2.09-4.82-4.91-4.74ZM90.27,127.66c2.73-.08,4.58-1.79,4.75-4.63.16-2.76-1.99-4.88-4.69-4.94-2.84-.06-4.87,2.21-4.89,4.76,0,2.7,2.13,4.89,4.83,4.81ZM127.66,101.7c-.08-2.72-1.89-4.59-4.67-4.72-2.79-.13-4.88,2.1-4.91,4.72-.03,2.86,2.28,4.86,4.8,4.86,2.5,0,4.87-1.98,4.78-4.86ZM85.92,68.43c-.05,2.46,2.32,4.98,4.71,5.01,2.32.03,4.85-2.35,4.89-4.59.05-2.46-2.32-4.98-4.71-5.01-2.32-.03-4.85,2.35-4.89,4.59ZM96.96,68.53c-.03,2.43,2.4,4.91,4.81,4.91,2.4,0,4.82-2.5,4.79-4.93-.03-2.27-2.51-4.67-4.81-4.67-2.29,0-4.76,2.43-4.79,4.69ZM63.84,89.95c.04,2.24,2.57,4.63,4.87,4.61,2.38-.02,4.77-2.54,4.73-4.99-.04-2.24-2.57-4.63-4.87-4.61-2.38.02-4.77,2.54-4.73,4.99ZM68.87,96c-2.46-.05-5,2.31-5.03,4.69-.03,2.34,2.32,4.86,4.57,4.91,2.46.05,5-2.31,5.03-4.69.03-2.34-2.32-4.86-4.57-4.91ZM123.4,84.48c2.86,0,4.27-1.38,4.28-4.18.01-3.06-1.31-4.45-4.24-4.46-3.01,0-4.4,1.35-4.4,4.3,0,2.95,1.4,4.34,4.36,4.34ZM111.84,119.04c-2.86,0-4.31,1.39-4.32,4.14-.01,3.08,1.3,4.49,4.2,4.5,3.05,0,4.43-1.32,4.44-4.26,0-2.98-1.38-4.38-4.32-4.38ZM79.18,118.56c-2.86,0-4.29,1.39-4.3,4.16-.01,3.08,1.3,4.47,4.22,4.48,3.04,0,4.42-1.33,4.42-4.28,0-2.96-1.39-4.36-4.34-4.36ZM122.88,117.12c2.86,0,4.31-1.39,4.32-4.14.01-3.08-1.3-4.49-4.2-4.5-3.05,0-4.44,1.32-4.44,4.26,0,2.98,1.38,4.38,4.32,4.38ZM84.2,66.72c-.42-.98-1.32-1.6-2.17-2.15-.46-.3-1.21-.11-1.8-.27-1.29-.34-2.41.33-3.13,1.06-.71.72-1.29,1.73-1.35,3.03-.05,1.39.4,2.56,1.18,3.35.7.71,1.7,1.34,3.05,1.3,1.35-.03,2.59-.39,3.31-1.22.65-.74,1.79-1.68,1.29-3.08-.12-.68-.12-1.41-.39-2.03ZM109.75,72.41c.7.74,1.87,1.05,3.12,1.12,1.36.08,2.38-.56,3.08-1.25.69-.69,1.34-1.7,1.26-3.07-.08-1.34-.44-2.54-1.27-3.3-.75-.69-1.78-1.24-3.1-1.21-1.28.03-2.41.43-3.11,1.15-.76.79-1.74,1.85-1.17,3.28-.59,1.44.44,2.47,1.19,3.27ZM65.45,108.7c-.7.71-1.28,1.75-1.23,3.09.05,1.27.41,2.4,1.14,3.12.72.71,1.73,1.29,3.03,1.34,1.39.05,2.56-.4,3.35-1.18.7-.7,1.34-1.7,1.3-3.05-.04-1.35-.39-2.59-1.22-3.31-.74-.65-1.68-1.79-3.06-1.09-1.43-.62-2.55.3-3.32,1.08ZM72.09,76.12c-.87-.95-1.81-1.23-3.07-1.31-1.4-.08-2.15.62-3.01,1.46-.84.81-1.29,1.6-1.26,2.85.02,1.29.42,2.18,1.32,3.07.88.88,1.71,1.38,3.04,1.39,1.33,0,2.17-.5,3.05-1.37.87-.87,1.61-1.71,1.23-3.07.45-1.37-.47-2.12-1.29-3.01ZM104.64,133.94c0-2.2-1.52-3.82-3.64-3.86-2.37-.04-4.01,1.45-4.04,3.7-.03,2.36,1.47,3.96,3.76,3.98,2.31.02,3.91-1.54,3.92-3.82ZM57.48,96.96c-2.26.03-3.76,1.65-3.72,4.02.04,2.13,1.64,3.66,3.84,3.66s3.86-1.59,3.84-3.9c-.02-2.3-1.6-3.81-3.96-3.78ZM101.72,54.24c-2.2.01-3.77,1.54-3.8,3.7-.03,2.36,1.47,3.96,3.76,3.98,2.31.02,3.91-1.54,3.92-3.82,0-2.3-1.57-3.87-3.88-3.86ZM72,122.4c0-2.2-1.53-3.8-3.66-3.84-2.37-.04-3.99,1.46-4.02,3.72-.03,2.36,1.48,3.94,3.78,3.96,2.31.02,3.9-1.55,3.9-3.84ZM137.76,91.08c-.03-2.26-1.65-3.76-4.02-3.72-2.13.04-3.66,1.64-3.66,3.84,0,2.29,1.59,3.86,3.9,3.84,2.3-.02,3.81-1.6,3.78-3.96ZM122.4,119.52c-2.2,0-3.8,1.53-3.84,3.66-.04,2.37,1.46,3.99,3.72,4.02,2.36.03,3.94-1.48,3.96-3.78.02-2.31-1.55-3.9-3.84-3.9ZM61.92,89.78c0-2.2-1.52-3.82-3.64-3.86-2.37-.04-4.01,1.45-4.04,3.7-.03,2.36,1.47,3.96,3.76,3.98,2.31.02,3.91-1.54,3.92-3.82ZM127.2,69.06c-.02-2.2-1.55-3.75-3.72-3.78-2.36-.03-3.94,1.48-3.96,3.78-.02,2.31,1.55,3.9,3.84,3.9s3.86-1.59,3.84-3.9ZM137.76,101.7c-.02-2.2-1.55-3.75-3.72-3.78-2.36-.03-3.94,1.48-3.96,3.78-.02,2.31,1.55,3.9,3.84,3.9,2.29,0,3.86-1.59,3.84-3.9ZM89.8,130.04c-1.87-.14-3.94,1.77-3.9,3.66.05,2.37,1.47,4.02,3.7,4.06,2.37.04,3.97-1.46,4-3.74.03-2.34-1.51-3.81-3.8-3.98ZM93.85,60.47c.18-1.05,1.3-1.55,1.29-2.87,0-1.2-1.02-1.71-1.12-2.7-.99-.13-1.46-1.19-2.64-1.23-1.26-.04-2.2.61-2.83,1.23-.56.55-1.34,1.35-1.24,2.58.17,2.01,1.86,3.94,4.02,3.96,1.05.6,1.51-.96,2.53-.97ZM71.83,65.49c-.78-.55-1.71-1.42-2.84-1.14-.92.23-2.1.48-2.58,1.15-.55.77-1.38,1.73-1.1,2.86.23.92.52,2.09,1.19,2.56.72.49,1.57,1.17,2.64,1.11,1.12-.06,2.08-.66,2.8-1.28.65-.56.78-1.71,1.15-2.61-.43-.96-.59-2.15-1.26-2.63ZM133.47,108.96c-1.53-.02-3.75,2.06-3.87,3.63-.12,1.62,2,3.95,3.69,4.05,1.63.09,3.92-2.06,3.99-3.75.07-1.65-2.12-3.9-3.81-3.93ZM113.93,136.97c.76-.79.65-1.84,1.27-2.6-.68-.57-.41-1.52-.97-2.24-.75-.95-1.81-1.18-2.75-1.48-.59-.19-1.49.46-2.21.82-1.15.57-1.38,1.84-1.66,2.86-.16.62.49,1.49.86,2.2.59,1.14,1.88,1.17,2.86,1.7.74-.65,1.82-.46,2.6-1.27ZM82.03,131.76c-.44-.64-1.04-1.22-1.68-1.65-.47-.31-1.23-.63-1.66-.45-1.01.42-2.3.51-2.87,1.67-.36.72-1.04,1.64-.83,2.2.31.85.43,1.85,1.28,2.6.75.66,1.71,1.01,2.41,1.03.69.02,1.68-.29,2.42-.96.87-.78.95-1.86,1.42-2.66-.16-.66-.17-1.32-.48-1.77ZM131.81,77.61c-.83.82-.74,1.66-.77,2.58-.03.95.02,1.75.81,2.56.82.83,1.66.74,2.58.77.95.03,1.75-.01,2.56-.81.83-.82.74-1.66.77-2.58.03-.95-.01-1.75-.81-2.56-.82-.83-1.65-.75-2.96-.78-.57-.04-1.36.03-2.17.82ZM54.66,78.61c-.04,1.87,1.44,3.49,3.31,3.52,1.87.04,3.49-1.44,3.52-3.31.04-1.87-1.43-3.69-3.31-3.47-1.86-.3-3.49,1.38-3.52,3.25ZM80.23,54.24c-2.27-.02-3.41,1.08-3.43,3.29-.02,2.27,1.08,3.41,3.29,3.43,2.27.02,3.41-1.08,3.43-3.29.02-2.27-1.08-3.41-3.29-3.43ZM112.73,54.72c-2.22.02-3.31,1.16-3.29,3.43.02,2.22,1.16,3.31,3.43,3.29,2.22-.02,3.31-1.16,3.29-3.43-.02-2.22-1.16-3.31-3.43-3.29ZM54.24,111.43c.02,2.22,1.16,3.31,3.43,3.29,2.22-.02,3.31-1.16,3.29-3.43-.02-2.22-1.16-3.31-3.43-3.29-2.22.02-3.31,1.16-3.29,3.43ZM70.05,135.66c.44-.62,1.17-1.02,1.01-1.99-.12-.75.13-1.55-.68-2.13-.62-.44-1.02-1.17-1.99-1.01-.75.12-1.55-.13-2.13.68-.44.62-1.17,1.02-1.01,1.99.12.75-.13,1.55.68,2.12.62.44,1.02,1.26,1.91.99.84-.02,1.62.15,2.2-.66ZM136.32,123.77c-.01-1.71-1.18-2.82-2.95-2.81-1.71.01-2.82,1.18-2.81,2.95.01,1.71,1.18,2.82,2.95,2.81,1.71-.01,2.82-1.18,2.81-2.95ZM120.96,58.56c0,1.75,1.13,2.88,2.88,2.88s2.88-1.13,2.88-2.88c0-1.75-1.13-2.88-2.88-2.88s-2.88,1.13-2.88,2.88ZM131.52,69.63c0,1.73,1.15,2.85,2.91,2.85,1.73,0,2.85-1.15,2.85-2.91,0-1.73-1.15-2.85-2.91-2.85-1.73,0-2.85,1.15-2.85,2.91ZM54.72,122.33c-.01,1.77,1.1,2.94,2.81,2.95,1.77.01,2.94-1.1,2.95-2.81.01-1.77-1.1-2.94-2.81-2.95-1.77-.01-2.94,1.1-2.95,2.81ZM125.28,134.47c.01-1.77-1.1-2.94-2.81-2.95-1.77-.01-2.94,1.1-2.95,2.81-.01,1.77,1.1,2.94,2.81,2.95,1.77.01,2.94-1.1,2.95-2.81ZM58.46,65.31c-1.61.08-2.84,1.26-2.75,2.95.08,1.61,1.26,2.84,2.95,2.75,1.61-.08,2.73-1.26,2.78-2.95-.22-1.6-1.29-2.83-2.98-2.75ZM69.6,54.72c-1.43,0-2.86,1.26-2.87,2.88,0,1.43,1.26,2.86,2.88,2.87,1.43,0,2.85-1.26,2.88-2.88-.01-1.43-1.26-2.86-2.88-2.87ZM91.32,142.48c-1.02-1-2.04-.96-3.12-.05-1.56,1.32-1.56,2.88.07,4.14.46.35,1.04.71,1.59.75.91.06,2.7-1.84,2.8-2.99-.37-.53-.76-1.28-1.34-1.85ZM147.36,102.18c-.07-.92-1.82-2.71-2.76-2.82-.92-.1-2.92,1.78-3,2.82-.07.94,1.89,2.94,2.88,2.94.99,0,2.95-2,2.88-2.94ZM145,94.08c.91-.05,2.72-1.8,2.84-2.74.11-.91-1.75-2.93-2.8-3.02-.93-.08-2.93,1.85-2.96,2.86-.03.97,1.97,2.96,2.92,2.9ZM101.88,142.96c-1.02-1-2.04-.96-3.12-.05-1.56,1.32-1.56,2.88.07,4.14.46.35,1.04.71,1.59.75.91.06,2.7-1.84,2.8-2.99-.37-.53-.76-1.28-1.34-1.85ZM93.6,47.1c0-1.76-.63-2.44-2.28-2.46-1.87-.02-2.53.62-2.52,2.46,0,1.68.68,2.34,2.4,2.34s2.39-.66,2.4-2.34ZM104.64,47.12c.01-1.85-.64-2.5-2.5-2.48-1.67.02-2.31.7-2.3,2.44,0,1.69.68,2.36,2.38,2.36,1.73,0,2.41-.64,2.42-2.32ZM47.05,87.36c-1.73,0-2.4.65-2.41,2.33-.01,1.85.64,2.49,2.51,2.47,1.66-.02,2.3-.7,2.29-2.45,0-1.69-.68-2.35-2.39-2.35ZM49.44,100.37c0-1.75-.63-2.43-2.29-2.45-1.87-.02-2.52.63-2.51,2.47.01,1.68.68,2.33,2.41,2.33,1.71,0,2.38-.66,2.39-2.35ZM146.88,112.69c-.05-1.04-1.47-2.34-2.51-2.29-1.04.05-2.34,1.47-2.29,2.51.05,1.04,1.47,2.34,2.51,2.29,1.04-.05,2.34-1.47,2.29-2.51ZM111.36,142.56c-1.04,0-2.4,1.36-2.4,2.4,0,1.04,1.36,2.4,2.4,2.4,1.04,0,2.4-1.36,2.4-2.4,0-1.04-1.36-2.4-2.4-2.4ZM81.12,144.48c0-1.04-1.36-2.4-2.4-2.4-1.04,0-2.4,1.36-2.4,2.4,0,1.04,1.36,2.4,2.4,2.4,1.04,0,2.4-1.36,2.4-2.4ZM147.36,80.67c.01-1.04-1.33-2.42-2.37-2.43-1.04-.01-2.42,1.33-2.43,2.37-.01,1.04,1.33,2.42,2.37,2.43,1.04.01,2.42-1.33,2.43-2.37ZM44.16,111.46c.08.84,1.76,2.37,2.5,2.3.84-.08,2.37-1.76,2.3-2.5-.08-.84-1.76-2.37-2.5-2.3-.84.08-2.37,1.76-2.3,2.5ZM47.59,76.32c-.76-.06-2.4,1.49-2.47,2.33-.06.76,1.49,2.4,2.33,2.47.76.06,2.4-1.49,2.47-2.33.06-.76-1.49-2.4-2.33-2.47ZM113.24,45.12c-.8.04-2.4,1.69-2.36,2.44.04.8,1.69,2.4,2.44,2.36.8-.04,2.4-1.69,2.36-2.44-.04-.8-1.69-2.4-2.44-2.36ZM82.56,46.62c.01-1.79-.15-1.96-1.8-1.98-1.9-.02-2.05.13-2.04,1.98q.01,1.86,1.92,1.86t1.92-1.86ZM132.48,58.57c0,.99.88,1.89,1.87,1.91,1.17.02,2.03-.88,1.97-2.05-.05-1-.96-1.82-1.99-1.79-.99.03-1.85.92-1.85,1.93ZM133.49,132.48c-1.02-.02-1.93.82-1.97,1.81-.05,1.15.84,2.06,1.99,2.03.99-.03,1.85-.92,1.85-1.93,0-.99-.88-1.89-1.87-1.91ZM55.2,133.28c-.08,1.12.82,2.08,1.94,2.08.99,0,1.89-.9,1.9-1.88.01-1.01-.83-1.92-1.82-1.96-1.02-.04-1.95.77-2.02,1.76ZM60.48,57.21c.04-.51-1.22-1.94-1.77-2.01-.6-.07-2.17,1.35-2.04,1.95.1.48.35,1,.69,1.35.28.29.78.36,1.24.54.44.01,1.85-1.31,1.89-1.83ZM47.62,66.24c-1.02-.04-1.48.35-1.54,1.28-.07,1.15.35,1.61,1.46,1.6,1,0,1.4-.41,1.42-1.4.02-1.01-.38-1.44-1.34-1.48ZM68.16,46.56c0,1.1.47,1.52,1.62,1.44.92-.06,1.31-.54,1.26-1.56-.04-.96-.48-1.34-1.5-1.32-.98.02-1.38.44-1.38,1.44ZM46.52,120.96c-1.06.02-1.49.53-1.4,1.66.07.89.58,1.28,1.6,1.22.93-.06,1.32-.52,1.28-1.54-.04-.96-.47-1.36-1.48-1.34ZM123.88,46.08c-1.01-.02-1.44.38-1.48,1.34-.04,1.17.35,1.58,1.52,1.54.98-.03,1.37-.45,1.36-1.46,0-1-.41-1.4-1.4-1.42ZM122.34,144c-1.05.02-1.48.55-1.38,1.68.08.88.6,1.27,1.62,1.2.92-.06,1.31-.54,1.26-1.56-.04-.96-.48-1.34-1.5-1.32ZM67.68,143.04c-1.1,0-1.52.47-1.44,1.62.06.92.54,1.31,1.56,1.26.96-.04,1.34-.48,1.32-1.5-.02-.98-.44-1.38-1.44-1.38ZM143.04,123.9c.02,1.05.55,1.48,1.68,1.38.88-.08,1.27-.6,1.2-1.62-.06-.92-.54-1.31-1.56-1.26-.96.04-1.34.48-1.32,1.5ZM144,69.66c.02,1.05.55,1.48,1.68,1.38.88-.08,1.27-.6,1.2-1.62-.06-.92-.54-1.31-1.56-1.26-.96.04-1.34.48-1.32,1.5ZM91.72,35.1c-.35.02-.67.51-1,.8.35.35.64.85,1.06,1,.21.07.65-.5,1.15-.92-.53-.41-.88-.89-1.21-.88ZM90.18,155.58c-.01-.35-.44-.78-.8-.99-.34-.2-1.19.6-1.04.98.15.39.52.69.93,1.22.42-.53.91-.87.9-1.2ZM100.27,154.62c-.33.04-.72.53-.87.91-.15.37.77,1.13,1.09.93.36-.23.62-.62,1.02-1.05-.52-.35-.91-.82-1.24-.78ZM103.14,36.45c-.03-.33-.52-.73-.89-.89-.37-.16-1.14.74-.94,1.07.22.37.6.63,1.03,1.05.36-.52.83-.9.8-1.23ZM154.62,91.73c.04.33.53.72.91.87.37.15,1.13-.77.93-1.09-.23-.36-.62-.62-1.05-1.02-.35.52-.82.91-.78,1.24ZM37.38,89.34c-.01-.35-.44-.78-.8-.99-.34-.2-1.19.6-1.04.98.15.39.52.69.93,1.22.42-.53.91-.87.9-1.2ZM156.42,102.3c-.01-.35-.44-.78-.8-.99-.34-.2-1.19.6-1.04.98.15.39.52.69.93,1.22.42-.53.91-.87.9-1.2ZM35.97,99.42c-.33.03-.73.52-.89.89-.16.37.74,1.14,1.07.94.37-.22.63-.6,1.05-1.03-.52-.36-.9-.83-1.23-.8ZM78.74,155.06c-.21.12-.34.37-.5.57.16.12.35.37.47.34.22-.05.4-.27.74-.53-.38-.21-.62-.43-.71-.38ZM111.48,155.55c-.23.08-.43.28-.58.48-.03.05.22.43.35.43.23,0,.45-.17.85-.35-.33-.31-.53-.59-.61-.56ZM156.02,80.18c-.21.12-.34.37-.5.57.16.12.35.37.47.34.22-.05.4-.27.74-.53-.38-.21-.62-.43-.71-.38ZM35.99,110.91c-.12-.03-.31.22-.47.34.16.2.29.45.5.57.09.05.33-.17.71-.38-.34-.26-.52-.47-.74-.53ZM57.11,143.55c-.12-.03-.31.22-.47.34.16.2.29.45.5.57.09.05.33-.17.71-.38-.34-.26-.52-.47-.74-.53ZM46.11,133.07c0,.12.38.38.43.35.2-.14.39-.35.48-.58.03-.08-.24-.28-.56-.61-.18.4-.35.62-.35.85ZM132.95,144.99c-.12-.03-.31.22-.47.34.16.2.29.45.5.57.09.05.33-.17.71-.38-.34-.26-.52-.47-.74-.53ZM36.93,78.84c-.08-.23-.28-.44-.48-.58-.05-.03-.43.22-.43.35,0,.23.17.45.35.85.31-.33.59-.53.56-.61ZM144.99,58.67c0,.12.38.38.43.35.2-.14.39-.35.48-.58.03-.08-.24-.28-.56-.61-.18.4-.35.62-.35.85ZM135,47.07c-.23.08-.43.28-.58.48-.03.05.22.43.35.43.23,0,.45-.17.85-.35-.33-.31-.53-.59-.61-.56ZM47.41,56.67c-.12,0-.38.38-.35.43.14.2.35.39.58.48.08.03.28-.24.61-.56-.4-.18-.62-.35-.85-.35ZM58.45,46.11c-.12,0-.38.38-.35.43.14.2.35.39.58.48.08.03.28-.24.61-.56-.4-.18-.62-.35-.85-.35ZM155.97,113.4c-.08-.23-.28-.44-.48-.58-.05-.03-.43.22-.43.35,0,.23.17.45.35.85.31-.33.59-.53.56-.61ZM113.4,36.03c-.23.08-.43.28-.58.48-.03.05.22.43.35.43.23,0,.45-.17.85-.35-.33-.31-.53-.59-.61-.56ZM80.63,35.55c-.12-.03-.31.22-.47.34.16.2.29.45.5.57.09.05.33-.17.71-.38-.34-.26-.52-.47-.74-.53ZM143.55,134.99c0,.12.38.38.43.35.2-.14.39-.35.48-.58.03-.08-.24-.28-.56-.61-.18.4-.35.62-.35.85Z"/>
</svg>