<?xml version="1.0" encoding="UTF-8"?>
<svg xmlns="http://www.w3.org/2000/svg" version="1.1" viewBox="0 0 20 20">
  <defs>
    <style>
      .cls-1 {
        opacity: .9;
      }

      .cls-2 {
        fill: #fff;
      }
    </style>
  </defs>
  <!-- Generator: Adobe Illustrator 28.7.1, SVG Export Plug-In . SVG Version: 1.2.0 Build 142)  -->
  <g>
    <g id="Layer_1">
      <g id="Layer_1-2" data-name="Layer_1">
        <rect class="cls-1" width="20" height="20"/>
        <path class="cls-2" d="M5.3,18c-.7,0-1.4-.2-2.1-.6-.7-.4-1.3-1-1.9-1.9.6,0,1-.2,1.3-.4.3-.2.5-.6.6-1.1,0-.7.4-1.3.9-1.8s1.2-.8,2-.8,1.5.3,2,.8.8,1.2.8,2-.4,1.9-1.1,2.6c-.7.7-1.6,1.1-2.6,1.1h0ZM10.8,12.6l-2.8-2.8,7.6-7.6c.2-.2.4-.3.7-.3s.5,0,.7.3l1.4,1.4c.2.2.3.4.3.7s0,.5-.3.7c0,0-7.6,7.6-7.6,7.6Z"/>
      </g>
    </g>
  </g>
</svg>