<?xml version="1.0" encoding="UTF-8"?>
<svg xmlns="http://www.w3.org/2000/svg" version="1.1" viewBox="0 0 20 20">
  <defs>
    <style>
      .cls-1 {
        opacity: .9;
      }

      .cls-2 {
        fill: #fff;
      }
    </style>
  </defs>
  <!-- Generator: Adobe Illustrator 28.7.1, SVG Export Plug-In . SVG Version: 1.2.0 Build 142)  -->
  <g>
    <g id="Layer_1">
      <g id="Layer_1-2" data-name="Layer_1">
        <rect class="cls-1" width="20" height="20"/>
        <path class="cls-2" d="M1.4,17.1v-2.7c0-.5.1-.9.4-1.3.2-.4.6-.7,1-1,.8-.5,1.6-.8,2.5-1.1s1.8-.4,2.8-.4,1.9.1,2.8.4,1.7.6,2.5,1.1c.4.2.8.6,1,1s.4.9.4,1.4v2.7H1.4ZM16.6,17.1v-2.6c0-.6-.1-1.2-.4-1.8s-.6-1.1-1.1-1.6c.4.1.8.3,1.2.5l1.2.6c.4.2.7.5.9,1,.2.5.3,1,.3,1.5v2.5h-2.1ZM8.1,9.6c-.9,0-1.7-.3-2.4-1s-1-1.4-1-2.4.3-1.7,1-2.4,1.4-1,2.4-1,1.7.3,2.4,1c.7.7,1,1.4,1,2.4s-.3,1.7-1,2.4-1.4,1-2.4,1ZM16.1,6.3c0,.9-.3,1.7-1,2.4-.7.7-1.4,1-2.4,1s-.2,0-.3,0-.2,0-.4-.1c.4-.4.7-.9.9-1.5.2-.5.3-1.1.3-1.8s-.1-1.2-.3-1.8-.5-1-.9-1.5h.6c.9,0,1.7.3,2.4,1,.7.7,1,1.4,1,2.4h0Z"/>
      </g>
    </g>
  </g>
</svg>