<svg xmlns="http://www.w3.org/2000/svg" height="20" viewBox="0 -960 960 960" width="20"><path d="M65-141v-128q0-35.302 17.695-64.599Q100.391-362.896 131-380q57-33 121.459-51T387-449q72 0 136.5 17.5T643-381q30.609 16.958 48.305 45.979Q709-306 709-269.055V-141H65Zm731 0v-125q0-46-18.5-87T723-432q28 10 56.5 22t57.5 29q26 13 42 45.808 16 32.807 16 72.192v122h-99ZM387-497q-68 0-114.5-46.5T226-658q0-68 46.5-114.5T387-819q68 0 114.5 46.5T548-658q0 68-46.5 114.5T387-497Zm385-161.009Q772-591 725.053-544q-46.948 47-113.895 47Q602-497 596-498t-18-5q27-31 42-70.352 15-39.352 15-84.5T620-742.5Q605-782 578-813q9-3 16-4.5t16.529-1.5q67.207 0 114.339 46.991Q772-725.018 772-658.009Z"/></svg>