<?xml version="1.0" encoding="UTF-8"?>
<svg xmlns="http://www.w3.org/2000/svg" version="1.1" viewBox="0 0 20 20">
  <defs>
    <style>
      .cls-1 {
        opacity: .9;
      }

      .cls-2 {
        fill: #fff;
      }
    </style>
  </defs>
  <!-- Generator: Adobe Illustrator 28.7.1, SVG Export Plug-In . SVG Version: 1.2.0 Build 142)  -->
  <g>
    <g id="Layer_1">
      <g id="Layer_1-2" data-name="Layer_1">
        <rect class="cls-1" width="20" height="20"/>
        <path class="cls-2" d="M10,18.7c-1.2,0-2.3-.2-3.4-.7s-2-1.1-2.8-1.9-1.4-1.7-1.9-2.8c-.5-1.1-.7-2.2-.7-3.4s.2-2.3.7-3.4,1.1-2,1.9-2.8,1.7-1.4,2.8-1.9c1.1-.5,2.2-.7,3.4-.7s2.3.2,3.4.7,2,1.1,2.8,1.9,1.4,1.7,1.9,2.8c.5,1.1.7,2.2.7,3.4s-.2,2.3-.7,3.4-1.1,2-1.9,2.8-1.7,1.4-2.8,1.9c-1,.5-2.2.7-3.4.7ZM9,16.2v-1.4c-.3,0-.5,0-.7-.3-.2-.2-.3-.4-.3-.7v-1l-4.2-4.2c0,.2,0,.4,0,.6s0,.4,0,.7c0,1.6.5,3,1.5,4.1,1,1.2,2.3,1.9,3.8,2.1h0ZM14.8,14c-.8.8-1.2,1.1-1.1,1s.3-.5.6-1.1c.4-.6.8-1.3,1.2-2,.4-.8.7-1.4.7-1.9,0-1.3-.4-2.5-1.1-3.5-.7-1-1.6-1.8-2.8-2.2v.5c0,.4-.1.7-.4,1-.3.3-.6.4-1,.4h-1.9v.9c0,.3,0,.5-.3.7-.2.2-.4.3-.7.3h-.9v1.9h4.8c.3,0,.5,0,.7.3.2.2.3.4.3.7v1.9h.8c.3,0,.6.1.8.3s.3.5.3.8Z"/>
      </g>
    </g>
  </g>
</svg>