<svg xmlns="http://www.w3.org/2000/svg" height="20" viewBox="0 -960 960 960" width="20"><path d="M481.276-62q-86.162 0-162.219-32.5Q243-127 185.5-184.5 128-242 95.5-318.042 63-394.083 63-480.542 63-567 95.5-642.5t90-133q57.5-57.5 133.542-90 76.041-32.5 162.5-32.5Q568-898 643-865.5t132.5 90q57.5 57.5 90 133.308 32.5 75.807 32.5 162Q898-394 865.5-318q-32.5 76-90 133.5t-132.962 90Q567.075-62 481.276-62ZM434-184v-67q-19 0-32.017-13.121-13.016-13.121-13.016-31.546V-342L188-543q-3 15-5 30t-2 31.439q0 114.231 73 197.896Q327-200 434-184Zm278-105q-57 58-54 47.5t30.359-53.053q27.36-42.553 59.5-98.341Q780-448.682 780-482q0-93.461-50.5-167.731Q679-724 597-757v22q0 28.463-21.15 48.731Q554.7-666 526.46-666H434v44.701q0 19.699-13.8 33.499T386.701-574H342v92h231.595q19.805 0 33.605 13.8 13.8 13.8 13.8 33.455V-344h38q23 0 38.16 16 15.16 16 14.84 39Z"/></svg>